0
SECTION
2
HEADER
9
$INSUNITS
70
4
9
$ACADVER
1
AC1014
9
$HANDSEED
5
FFFF
0
ENDSEC
0
SECTION
2
TABLES
0
TABLE
2
VPORT
5
8
100
AcDbSymbolTable
0
ENDTAB
0
TABLE
2
LTYPE
5
5
100
AcDbSymbolTable
0
LTYPE
5
14
100
AcDbSymbolTableRecord
100
AcDbLinetypeTableRecord
2
BYBLOCK
70
0
0
LTYPE
5
15
100
AcDbSymbolTableRecord
100
AcDbLinetypeTableRecord
2
BYLAYER
70
0
0
ENDTAB
0
TABLE
2
LAYER
5
2
100
AcDbSymbolTable
70
2
0
LAYER
5
50
100
AcDbSymbolTableRecord
100
AcDbLayerTableRecord
2
0
70
0
6
CONTINUOUS
0
ENDTAB
0
TABLE
2
STYLE
5
3
100
AcDbSymbolTable
70
1
0
STYLE
5
11
100
AcDbSymbolTableRecord
100
AcDbTextStyleTableRecord
2
STANDARD
70
0
0
ENDTAB
0
TABLE
2
VIEW
5
6
100
AcDbSymbolTable
70
0
0
ENDTAB
0
TABLE
2
UCS
5
7
100
AcDbSymbolTable
70
0
0
ENDTAB
0
TABLE
2
APPID
5
9
100
AcDbSymbolTable
70
2
0
APPID
5
12
100
AcDbSymbolTableRecord
100
AcDbRegAppTableRecord
2
ACAD
70
0
0
ENDTAB
0
TABLE
2
DIMSTYLE
5
A
100
AcDbSymbolTable
70
1
0
ENDTAB
0
TABLE
2
BLOCK_RECORD
5
1
100
AcDbSymbolTable
70
1
0
BLOCK_RECORD
5
1F
100
AcDbSymbolTableRecord
100
AcDbBlockTableRecord
2
*MODEL_SPACE
0
BLOCK_RECORD
5
1B
100
AcDbSymbolTableRecord
100
AcDbBlockTableRecord
2
*PAPER_SPACE
0
ENDTAB
0
ENDSEC
0
SECTION
2
BLOCKS
0
BLOCK
5
20
100
AcDbEntity
100
AcDbBlockBegin
2
*MODEL_SPACE
0
ENDBLK
5
21
100
AcDbEntity
100
AcDbBlockEnd
0
BLOCK
5
1C
100
AcDbEntity
100
AcDbBlockBegin
2
*PAPER_SPACE
0
ENDBLK
5
1D
100
AcDbEntity
100
AcDbBlockEnd
0
ENDSEC
0
SECTION
2
ENTITIES
0
CIRCLE
5
100
100
AcDbEntity
8
0
100
AcDbCircle
10
0.7325422379202351
20
82.20018008035899
30
0
40
1.0000000000000142
210
0
220
-0
230
1
0
ARC
5
101
100
AcDbEntity
8
0
100
AcDbCircle
10
-21.300522634374914
20
5.8321058653763025
30
0
40
4.9343975624089769
210
0
220
0
230
1
100
AcDbArc
50
237.68054274893677
51
329.37753594042499
0
SPLINE
5
102
100
AcDbEntity
8
0
100
AcDbSpline
70
4
71
3
72
99
73
95
74
0
42
0.000000001
43
0.0000000001
44
0.0000000001
40
0
40
0
40
0
40
0
40
0.053156709377909298
40
0.14049370360199601
40
0.14049370360199601
40
0.17660386048353999
40
0.17660386048353999
40
0.1943879452784949
40
0.1943879452784949
40
0.20269021756513081
40
0.20269021756513081
40
0.20569326135075361
40
0.20569326135075361
40
0.20869630513637641
40
0.20869630513637641
40
0.2147023927076219
40
0.2147023927076219
40
0.22671456785011299
40
0.22671456785011299
40
0.25073891813509519
40
0.25073891813509519
40
0.29878761870505999
40
0.29878761870505999
40
0.39488501984498908
40
0.39488501984498908
40
0.58707982212484755
40
0.58707982212484755
40
0.91857020557639035
40
0.91857020557639035
40
1.2500605890279328
40
1.2500605890279328
40
1.5815509724794758
40
1.5815509724794758
40
1.648990640004242
40
1.648990640004242
40
1.693371221941137
40
1.693371221941137
40
1.72426339308469
40
1.72426339308469
40
1.7470376574814943
40
1.7470376574814943
40
1.7633879210135617
40
1.7633879210135617
40
1.7717553961425458
40
1.7717553961425458
40
1.7753118139402841
40
1.7753118139402841
40
1.7770315180567453
40
1.7770315180567453
40
1.7787512221732049
40
1.7787512221732049
40
1.782190630406127
40
1.782190630406127
40
1.7890694468719708
40
1.7890694468719708
40
1.802827079803657
40
1.802827079803657
40
1.8303423456670311
40
1.8303423456670311
40
1.8853728773937801
40
1.8853728773937801
40
1.9954339408472759
40
1.9954339408472759
40
2.2155560677542692
40
2.2155560677542692
40
2.655800321568254
40
2.655800321568254
40
2.7152337158989064
40
2.7152337158989064
40
2.7291762678126581
40
2.7291762678126581
40
2.7291762678126581
40
2.9104161672039814
40
2.9104161672039814
40
2.9104161672039814
40
3.6958998304493331
40
3.6958998304493331
40
3.6958998304493331
40
4.4813834936946835
40
4.4813834936946835
40
4.4813834936946835
40
4.5307168674467357
40
4.5307168674467357
40
4.5307168674467357
40
4.762891778977286
40
4.762891778977286
40
4.762891778977286
40
4.8189064872477996
40
4.8189064872477996
40
4.8189064872477996
40
6.2150507192161868
40
6.2150507192161868
40
6.2150507192161868
40
6.5007874788184914
40
6.5007874788184914
40
6.5007874788184914
40
6.5007874788184914
41
1
41
1
41
1
41
1
41
1
41
1
41
1
41
1
41
1
41
1
41
1
41
1
41
1
41
1
41
1
41
1
41
1
41
1
41
1
41
1
41
1
41
1
41
1
41
1
41
1
41
1
41
1
41
1
41
1
41
1
41
1
41
1
41
1
41
1
41
1
41
1
41
1
41
1
41
1
41
1
41
1
41
1
41
1
41
1
41
1
41
1
41
1
41
1
41
1
41
1
41
1
41
1
41
1
41
1
41
1
41
1
41
1
41
1
41
1
41
1
41
1
41
1
41
1
41
1
41
1
41
1
41
1
41
1
41
1
41
1
41
1
41
1
41
1
41
1
41
0.94924211465296005
41
0.94924211465296005
41
1
41
0.94924211465296005
41
0.94924211465296005
41
1
41
1
41
1
41
1
41
1
41
1
41
1
41
1
41
1
41
1
41
0.8440551614259737
41
0.8440551614259737
41
1
41
0.99293381046028806
41
0.99265889263647067
41
0.99917524652854772
10
-17.054264411824427
20
3.3186281130717354
30
0
10
-16.054369348709159
20
4.9422545278188146
30
0
10
-15.293558072416538
20
6.0307900636911249
30
0
10
-14.786350554888443
20
6.7564804209397344
30
0
10
-14.069434159786312
20
7.7822130784813304
30
0
10
-13.859725282212239
20
8.0822553787743878
30
0
10
-13.546735755006338
20
8.5300671204462297
30
0
10
-13.44345510537444
20
8.6778365618245878
30
0
10
-13.291959206823734
20
8.8945902749335737
30
0
10
-13.243743957904925
20
8.9635745466639882
30
0
10
-13.178088603598042
20
9.0575113592619338
30
0
10
-13.156260087082003
20
9.0887397242341983
30
0
10
-13.151616381823104
20
9.0953927955203362
30
0
10
-13.149297728278455
20
9.0987243321921163
30
0
10
-13.142351441921747
20
9.1087339313222593
30
0
10
-13.137733483355234
20
9.1154269830457046
30
0
10
-13.123918921975104
20
9.1355659779464382
30
0
10
-13.114761633039151
20
9.1490717632943408
30
0
10
-13.087451977484434
20
9.1898274610220021
30
0
10
-13.069461816670653
20
9.2173157550695173
30
0
10
-13.016180034118534
20
9.3007245075722089
30
0
10
-12.981577080445241
20
9.3575895039274393
30
0
10
-12.88084416215753
20
9.5318615753209279
30
0
10
-12.817791626632626
20
9.6529570553113153
30
0
10
-12.643499173059709
20
10.029787748175405
30
0
10
-12.547222210557543
20
10.299247929989317
30
0
10
-12.355904056184812
20
11.06852188099074
30
0
10
-12.314200809272329
20
11.594365718304811
30
0
10
-12.418444051265141
20
12.636608597223056
30
0
10
-12.564477016602353
20
13.151171961215891
30
0
10
-13.010101512404262
20
14.079359255742627
30
0
10
-13.308242579450109
20
14.492003002791218
30
0
10
-13.712729499067748
20
14.901015140997824
30
0
10
-13.782658048737559
20
14.967240139408116
30
0
10
-13.900632293059019
20
15.072139747978195
30
0
10
-13.94798496039364
20
15.112492967015836
30
0
10
-14.029043332733231
20
15.178760441151748
30
0
10
-14.062522737559426
20
15.205335769109904
30
0
10
-14.121001816373351
20
15.250426764356799
30
0
10
-14.14591792513427
20
15.269225258365022
30
0
10
-14.188872957368837
20
15.300943443842794
30
0
10
-14.206869300603735
20
15.314025692110516
30
0
10
-14.234137615166063
20
15.333542496461998
30
0
10
-14.243379272039434
20
15.340104223702706
30
0
10
-14.25656343226354
20
15.34939070284592
30
0
10
-14.260497579532725
20
15.352152351359774
30
0
10
-14.266336751785715
20
15.356237336264993
30
0
10
-14.27575568201064
20
15.362822356005719
30
0
10
-14.289697046997816
20
15.372569957735589
30
0
10
-14.296667729491404
20
15.377443758600844
30
0
10
-14.317579776972238
20
15.392065161195827
30
0
10
-14.331521141959342
20
15.401812762925697
30
0
10
-14.373345236920834
20
15.431055568115806
30
0
10
-14.40122796689522
20
15.450550771575617
30
0
10
-14.484876156818345
20
15.509036381955763
30
0
10
-14.540641616767047
20
15.548026788875742
30
0
10
-14.707937996613154
20
15.664998009635749
30
0
10
-14.819468916510559
20
15.742978823475706
30
0
10
-15.154061676202737
20
15.97692126499572
30
0
10
-15.377123515997653
20
16.132882892675635
30
0
10
-16.046309035382222
20
16.600767775715521
30
0
10
-16.492432714971841
20
16.912691031075706
30
0
10
-17.830803753740838
20
17.848460797155834
30
0
10
-18.723051112920039
20
18.472307307875706
30
0
10
-21.399793190457927
20
20.34384684003582
30
0
10
-23.184287908816543
20
21.59153986147599
30
0
10
-25.209691116856305
20
23.007672631316023
30
0
10
-25.450599606537416
20
23.176112379715601
30
0
10
-25.748023110406812
20
23.38406661257066
30
0
10
-25.80453812459492
20
23.423581097025927
30
0
10
-25.861053138783063
20
23.463095581481337
30
0
10
-26.59569451210654
20
23.976746255439192
30
0
10
-27.330335885430017
20
24.490396929397189
30
0
10
-28.06497725875353
20
25.004047603355257
30
0
10
-28.725838789560427
20
25.46611247339678
30
0
10
-29.513227239545436
20
25.640070329956099
30
0
10
-30.307244090703946
20
25.499431974217384
30
0
10
-31.10126094186235
20
25.358793618478739
30
0
10
-31.780998345310323
20
24.924974567049762
30
0
10
-32.242950201476503
20
24.264034032952519
30
0
10
-32.529452596645356
20
23.854118922633329
30
0
10
-32.815954991814209
20
23.444203812313003
30
0
10
-33.102457386983133
20
23.034288701992747
30
0
10
-34.450807665760834
20
21.105128029706801
30
0
10
-35.799157944538536
20
19.175967357420998
30
0
10
-37.14750822331645
20
17.246806685135123
30
0
10
-37.472812309853154
20
16.781375809970012
30
0
10
-37.798116396389929
20
16.3159449348049
30
0
10
-38.12342048292674
20
15.850514059639718
30
0
10
-38.995899638163749
20
14.602209001108246
30
0
10
-38.861952816961853
20
13.085125073116028
30
0
10
-37.784244965550151
20
12.009006500426604
30
0
10
-33.67989472728928
20
7.91070888254281
30
0
10
-29.033261618258486
20
4.4379787341206454
30
0
10
-23.938645807190525
20
1.6621435838297605
30
0
0
LWPOLYLINE
5
103
100
AcDbEntity
8
0
100
AcDbPolyline
90
6
70
1
43
0.0
10
20.913428892198663
20
7.9132060393450656
42
-0.66848860706046531
10
26.036566546040021
20
10.03270751441887
10
31.375530679892023
20
4.684583949326516
42
-0.52167062593837699
10
30.50846682200179
20
-0.15930344171552036
42
-0.024950399498268855
10
24.891864189869448
20
-2.4164204876686837
42
-0.51522689056071203
10
20.913428892199235
20
0.41953867428587088
0
CIRCLE
5
104
100
AcDbEntity
8
0
100
AcDbCircle
10
0.79412305073983447
20
117.75437158386046
30
0
40
1.0000000000000142
210
0
220
-0
230
1
0
LWPOLYLINE
5
105
100
AcDbEntity
8
0
100
AcDbPolyline
90
7
70
1
43
0.0
10
-49.722398724372354
20
70.039848227985274
42
-0.51008840919676968
10
-52.570315534334462
20
73.974599027112731
42
-0.067971477505003264
10
-45.387756822596685
20
88.745682715456397
42
-0.5280233372895321
10
-40.433217459373694
20
88.799392647563863
10
-30.608954455888203
20
74.743266343575925
42
-0.60620959926130435
10
-33.06514543621698
20
70.024645093290786
10
-33.070623457178279
20
70.024645093290573
0
SPLINE
5
106
100
AcDbEntity
8
0
100
AcDbSpline
70
0
71
3
72
227
73
223
74
0
42
0.000000001
43
0.0000000001
44
0.0000000001
40
-9.5018758776000052
40
-9.5018758776000052
40
-9.5018758776000052
40
-9.5018758776000052
40
-9.3438219286987749
40
-9.3438219286987749
40
-8.9186160261767125
40
-8.9186160261767125
40
-8.7060130749156812
40
-8.7060130749156812
40
-8.5997115992851665
40
-8.5997115992851665
40
-8.5465608614699082
40
-8.5465608614699082
40
-8.5199854925622791
40
-8.5199854925622791
40
-8.5066978081084628
40
-8.5066978081084628
40
-8.500308907961367
40
-8.500308907961367
40
-8.490539761460397
40
-8.490539761460397
40
-8.4701376597894225
40
-8.4701376597894225
40
-8.4372155163138576
40
-8.4372155163138576
40
-8.2535465340142551
40
-8.2535465340142551
40
-8.161712042864453
40
-8.161712042864453
40
-7.7783223067004368
40
-7.7783223067004368
40
-7.3949325705364224
40
-7.3949325705364224
40
-7.1628734546283219
40
-7.1628734546283219
40
-7.0468438966742726
40
-7.0468438966742726
40
-6.9888291176972457
40
-6.9888291176972457
40
-6.959821728208734
40
-6.959821728208734
40
-6.9453180334644768
40
-6.9453180334644768
40
-6.9380661860923478
40
-6.9380661860923478
40
-6.9344402624062846
40
-6.9344402624062846
40
-6.9326273005632535
40
-6.9326273005632535
40
-6.9308143387202215
40
-6.9308143387202215
40
-6.9200581854451002
40
-6.9200581854451002
40
-6.9037268111490819
40
-6.9037268111490819
40
-6.8846823400094594
40
-6.8846823400094594
40
-6.596329981815594
40
-6.596329981815594
40
-6.596329981815594
40
-6.1320134091602601
40
-6.1320134091602601
40
-5.9123365241303931
40
-5.9123365241303931
40
-5.692659639100528
40
-5.692659639100528
40
-5.4317858462533941
40
-5.4317858462533941
40
-5.154674353650293
40
-5.154674353650293
40
-5.0161186073487443
40
-5.0161186073487443
40
-4.9468407341979672
40
-4.9468407341979672
40
-4.9122017976225809
40
-4.9122017976225809
40
-4.8948823293348882
40
-4.8948823293348882
40
-4.8862225951910414
40
-4.8862225951910414
40
-4.8818927281191167
40
-4.8818927281191167
40
-4.8797277945831556
40
-4.8797277945831556
40
-4.8786453278151738
40
-4.8786453278151738
40
-4.8781040944311833
40
-4.8781040944311833
40
-4.8775628610471937
40
-4.8775628610471937
40
-4.876011372462127
40
-4.876011372462127
40
-4.7382741825831083
40
-4.7382741825831083
40
-4.6694055876435989
40
-4.6694055876435989
40
-4.6349712901738451
40
-4.6349712901738451
40
-4.6177541414389669
40
-4.6177541414389669
40
-4.6091455670715282
40
-4.6091455670715282
40
-4.6048412798878093
40
-4.6048412798878093
40
-4.6026891362959503
40
-4.6026891362959503
40
-4.6016130645000199
40
-4.6016130645000199
40
-4.6005369927040913
40
-4.6005369927040913
40
-4.5998549030363671
40
-4.5998549030363671
40
-4.5969345526592651
40
-4.5969345526592651
40
-4.5923128262963582
40
-4.5923128262963582
40
-4.5831396284228871
40
-4.5831396284228871
40
-4.571743347742089
40
-4.571743347742089
40
-4.509242365108002
40
-4.509242365108002
40
-4.2894066735688217
40
-4.2894066735688217
40
-4.1794888277992319
40
-4.1794888277992319
40
-3.9378929350454248
40
-3.9378929350454248
40
-3.6962970422916182
40
-3.6962970422916182
40
-3.3775139874173736
40
-3.3775139874173736
40
-3.1385298543184819
40
-3.1385298543184819
40
-3.0190377877690353
40
-3.0190377877690353
40
-2.9592917544943118
40
-2.9592917544943118
40
-2.9294187378569503
40
-2.9294187378569503
40
-2.9144822295382684
40
-2.9144822295382684
40
-2.9070139753789288
40
-2.9070139753789288
40
-2.9032798482992588
40
-2.9032798482992588
40
-2.9014127847594238
40
-2.9014127847594238
40
-2.900479252989506
40
-2.900479252989506
40
-2.8995457212195879
40
-2.8995457212195879
40
-2.8959451017659936
40
-2.8959451017659936
40
-2.8900701366932928
40
-2.8900701366932928
40
-2.8809299538178319
40
-2.8809299538178319
40
-2.7259322249177287
40
-2.7259322249177287
40
-2.648433360467676
40
-2.648433360467676
40
-2.6096839282426507
40
-2.6096839282426507
40
-2.590309212130137
40
-2.590309212130137
40
-2.5806218540738808
40
-2.5806218540738808
40
-2.5757781750457527
40
-2.5757781750457527
40
-2.5733563355316891
40
-2.5733563355316891
40
-2.5709344960176241
40
-2.5709344960176241
40
-2.5697235762605919
40
-2.5697235762605919
40
-2.5665441968568561
40
-2.5665441968568561
40
-2.5607127162747605
40
-2.5607127162747605
40
-2.4288387331770269
40
-2.4288387331770269
40
-2.3629017416281592
40
-2.3629017416281592
40
-2.1383348742131338
40
-2.1383348742131338
40
-2.0260514405056216
40
-2.0260514405056216
40
-1.8044537022258491
40
-1.8044537022258491
40
-1.5828559639460769
40
-1.5828559639460769
40
-1.2909783782659361
40
-1.2909783782659361
40
-1.1450395854258659
40
-1.1450395854258659
40
-1.0720701890058308
40
-1.0720701890058308
40
-1.0355854907958131
40
-1.0355854907958131
40
-1.0173431416908041
40
-1.0173431416908041
40
-1.0082219671383001
40
-1.0082219671383001
40
-1.003661379862048
40
-1.003661379862048
40
-0.99910079258579598
40
-0.99910079258579598
40
-0.99336394004546436
40
-0.99336394004546436
40
-0.97951345338325235
40
-0.97951345338325235
40
-0.94268086089941117
40
-0.94268086089941117
40
-0.87621903564683945
40
-0.87621903564683945
40
-0.81342422650583035
40
-0.81342422650583035
40
-0.71258741128247127
40
-0.71258741128247127
40
-0.53547163546189358
40
-0.53547163546189358
40
0
40
0
40
0
40
0
10
61.096184062745955
20
111.38212693836314
30
0
10
60.748049664238657
20
111.73074377100386
30
0
10
60.399915265731394
20
112.07936060364466
30
0
10
59.115209512029878
20
113.36584666377314
30
0
10
58.178638156835483
20
114.30371589126081
30
0
10
56.773781124043801
20
115.71051973249249
30
0
10
56.305495446446585
20
116.17945434623623
30
0
10
55.60306693005078
20
116.88285626685199
30
0
10
55.368924091252012
20
117.11732357372418
30
0
10
55.017709833054091
20
117.46902453403214
30
0
10
54.900638413654832
20
117.58625818746809
30
0
10
54.725031284555925
20
117.76210866762214
30
0
10
54.666495574856029
20
117.82072549434014
30
0
10
54.578692010306469
20
117.90865073441709
30
0
10
54.549424155456734
20
117.9379591477761
30
0
10
54.506083916302117
20
117.98135944652506
30
0
10
54.489192694337696
20
117.99828013165873
30
0
10
54.480609221563583
20
118.00685127357193
30
0
10
54.475387415808321
20
118.01201997133417
30
0
10
54.459160713586172
20
118.02794012970912
30
0
10
54.448047440686445
20
118.03864483334307
30
0
10
54.418634021417702
20
118.06645272837335
30
0
10
54.400108562821927
20
118.08345124156558
30
0
10
54.275836701012885
20
118.19403503678716
30
0
10
54.159016730314811
20
118.2819150161785
30
0
10
53.968215888622844
20
118.39961160921108
30
0
10
53.902041568090979
20
118.43648821267541
30
0
10
53.547646393092663
20
118.6129378155694
30
0
10
53.219829559813689
20
118.70503883875627
30
0
10
52.548022652993254
20
118.74937304605551
30
0
10
52.206068239452854
20
118.70121254889676
30
0
10
51.709509262665847
20
118.5281989744737
30
0
10
51.53410691287668
20
118.4418479285526
30
0
10
51.296366854317057
20
118.29032098114601
30
0
10
51.221291236924564
20
118.23617457878284
30
0
10
51.115383039306259
20
118.15083332327708
30
0
10
51.081194382432997
20
118.1216994184465
30
0
10
51.031608967533195
20
118.0771326846004
30
0
10
51.015363227209996
20
118.06213275778292
30
0
10
50.991420311010849
20
118.039436469829
30
0
10
50.98351027646757
20
118.03183830414751
30
0
10
50.971751729065709
20
118.02039443346827
30
0
10
50.967849963307437
20
118.01657203930398
30
0
10
50.962023945830843
20
118.01082710016109
30
0
10
50.960086378489642
20
118.00891022911445
30
0
10
50.957186685586748
20
118.00603212389865
30
0
10
50.956221230967351
20
118.0050722890516
30
0
10
50.954292541126556
20
118.00315169285233
30
0
10
50.956806630530274
20
118.00566182154411
30
0
10
50.866630872108907
20
117.91564050208612
30
0
10
50.789462012553912
20
117.83860380530916
30
0
10
50.595125472588585
20
117.64460009463475
30
0
10
50.477957792178252
20
117.52763308073787
30
0
10
50.224157611181361
20
117.27426756907475
30
0
10
50.087525110594768
20
117.13786907130797
30
0
10
47.882139770345802
20
114.93626077082448
30
0
10
45.813386930681332
20
112.87105096810934
30
0
10
43.744634091021055
20
110.80584116539006
30
0
10
43.479143577798105
20
110.54080534287705
30
0
10
43.26300384792944
20
110.1990468629223
30
0
10
43.080182093878499
20
109.64993662044472
30
0
10
43.041502715287088
20
109.46736661538614
30
0
10
43.005097179699519
20
109.10342358599797
30
0
10
43.006987976293125
20
108.92444821934704
30
0
10
43.052428979416781
20
108.53534125608937
30
0
10
43.105139680818674
20
108.32188832045732
30
0
10
43.271896128250162
20
107.90011652672918
30
0
10
43.389578473532957
20
107.69327615511345
30
0
10
43.60329489846869
20
107.41647114879443
30
0
10
43.680620651402826
20
107.32972040729427
30
0
10
43.803670431077819
20
107.20934614919193
30
0
10
43.845860036781339
20
107.17084026253558
30
0
10
43.910620626964239
20
107.11563356626429
30
0
10
43.932453403306688
20
107.09765625586984
30
0
10
43.965535274577583
20
107.07133924196116
30
0
10
43.976618012626254
20
107.0626750354399
30
0
10
43.993320748737723
20
107.04984212546714
30
0
10
43.998901432179203
20
107.04559172042531
30
0
10
44.007291546016596
20
107.03925709549446
30
0
10
44.010091432072116
20
107.03715238418474
30
0
10
44.014295962249648
20
107.03400557868071
30
0
10
44.015698255824383
20
107.03295835374954
30
0
10
44.017802862576119
20
107.03139008364451
30
0
10
44.018504592558259
20
107.03086775482453
30
0
10
44.019557478018179
20
107.03008490365511
30
0
10
44.01990848825271
20
107.0298240602751
30
0
10
44.020610605365569
20
107.02930258757524
30
0
10
44.033460566720102
20
107.01975982080691
30
0
10
44.070122431061343
20
106.99251256380202
30
0
10
44.097288398733134
20
106.97229007107148
30
0
10
46.534902880150426
20
105.15478504512915
30
0
10
48.832756978538043
20
103.18275939502171
30
0
10
52.059057587884787
20
100.00111399609486
30
0
10
53.097845716061798
20
98.903454351865051
30
0
10
54.595721421706855
20
97.20735687019824
30
0
10
55.08497097892608
20
96.633730724956365
30
0
10
55.803197810444054
20
95.76172094611907
30
0
10
56.039999440435615
20
95.469122991694221
30
0
10
56.391223468096001
20
95.027439874315945
30
0
10
56.507635113625945
20
94.87974782641723
30
0
10
56.681249961664655
20
94.657526666024353
30
0
10
56.738954476791861
20
94.583339099101224
30
0
10
56.825259611328498
20
94.471888668069738
30
0
10
56.853986049971752
20
94.43471034436358
30
0
10
56.897012676694736
20
94.378900800650797
30
0
10
56.911344380405247
20
94.360290609725496
30
0
10
56.93998675722689
20
94.323056243873694
30
0
10
56.956545075074807
20
94.301498555127012
30
0
10
56.957411241681939
20
94.300371435752567
30
0
10
56.957747445066929
20
94.299934242771798
30
0
10
56.959523985675489
20
94.297625642062158
30
0
10
56.960967245317988
20
94.295755623775705
30
0
10
56.964702571682331
20
94.290929960263711
30
0
10
56.966999284009319
20
94.2879765480115
30
0
10
56.973877548412339
20
94.279172472083502
30
0
10
56.978481790527233
20
94.273332903195865
30
0
10
56.988874017041482
20
94.260272920149987
30
0
10
56.994678463383934
20
94.253060830065877
30
0
10
57.032618013123972
20
94.206454116852484
30
0
10
57.066107046889485
20
94.167772148877319
30
0
10
57.223484046514734
20
93.996997253989406
30
0
10
57.362920938681832
20
93.874988944674428
30
0
10
57.591478564360266
20
93.716585860930039
30
0
10
57.670855523240263
20
93.667865196215544
30
0
10
57.932635537377024
20
93.526692974557491
30
0
10
58.124594024532463
20
93.452069467462749
30
0
10
58.514983703483345
20
93.352205093692419
30
0
10
58.710305767521938
20
93.326847218499353
30
0
10
59.168189838523091
20
93.321051249599535
30
0
10
59.437114795590666
20
93.359419472935997
30
0
10
59.886717193426016
20
93.501792060788048
30
0
10
60.072415104384298
20
93.586663447312702
30
0
10
60.328883313658395
20
93.743462217501317
30
0
10
60.410724796962008
20
93.800582434527712
30
0
10
60.526955039247099
20
93.892318631760588
30
0
10
60.564613142096597
20
93.923904303776965
30
0
10
60.619371636855703
20
93.972623311028954
30
0
10
60.637336588002064
20
93.989086305033979
30
0
10
60.663841693079306
20
94.014093866044789
30
0
10
60.672603022418379
20
94.022481894125022
30
0
10
60.685633276713062
20
94.035139427391897
30
0
10
60.689958072439296
20
94.039371186815956
30
0
10
60.696417193042649
20
94.045737350579671
30
0
10
60.698565554469575
20
94.04786249259557
30
0
10
60.701781061534312
20
94.051054793190318
30
0
10
60.702851724713582
20
94.052119657983098
30
0
10
60.704455958636387
20
94.053718096612627
30
0
10
60.704990409803372
20
94.05425109972866
30
0
10
60.706058724844425
20
94.055317485532925
30
0
10
60.717966300675315
20
94.067204713872755
30
0
10
60.75049607874913
20
94.099678780020298
30
0
10
60.776328334000311
20
94.125466793816969
30
0
10
60.844309891422057
20
94.193331923038471
30
0
10
60.886459193592195
20
94.235409038463644
30
0
10
60.994183750277919
20
94.342949101343606
30
0
10
61.059759004793577
20
94.40841204879851
30
0
10
62.237348719019963
20
95.583984971175923
30
0
10
63.349363178730833
20
96.694094946098147
30
0
10
65.017384868297341
20
98.359259908481334
30
0
10
65.573392098152823
20
98.914314895942312
30
0
10
66.407402942936073
20
99.746897377134061
30
0
10
66.685406557863871
20
100.02442487086454
30
0
10
67.102411980255539
20
100.44071611146029
30
0
10
67.241413787719466
20
100.57947985832564
30
0
10
67.449916498915201
20
100.78762547862355
30
0
10
67.51941740264715
20
100.85700735205604
30
0
10
67.623668758245046
20
100.96108016220499
30
0
10
67.658419210111049
20
100.9957710989214
30
0
10
67.710544887909975
20
101.0478075039959
30
0
10
67.727920113843041
20
101.06515297235389
30
0
10
67.762670565708987
20
101.09984390907029
30
0
10
67.795379172077645
20
101.13249641014298
30
0
10
67.797466922035767
20
101.13458071789152
30
0
10
67.798162510438004
20
101.13527597928675
30
0
10
67.800683235461108
20
101.13779849522699
30
0
10
67.802506431649931
20
101.13962864794048
30
0
10
67.807667172504324
20
101.14482517413735
30
0
10
67.810999309186357
20
101.148199544184
30
0
10
67.889500571931194
20
101.22815001795344
30
0
10
67.96067525430243
20
101.31053880482176
30
0
10
68.059617477106144
20
101.4417642192363
30
0
10
68.091296917447465
20
101.48677423171856
30
0
10
68.22454405751688
20
101.69012704328756
30
0
10
68.31068608893915
20
101.86075985371394
30
0
10
68.408986576602786
20
102.12747918139249
30
0
10
68.436644257063477
20
102.21814942235417
30
0
10
68.503155605714312
20
102.49034304705872
30
0
10
68.526514185967358
20
102.67431735218713
30
0
10
68.533481812407118
20
103.0354543112818
30
0
10
68.517464965752026
20
103.21803812156828
30
0
10
68.432150813352592
20
103.63897912151329
30
0
10
68.347153835018801
20
103.87436737797971
30
0
10
68.172051951954444
20
104.19875592074531
30
0
10
68.105900361891685
20
104.30213644115652
30
0
10
67.997012445003904
20
104.4478962445279
30
0
10
67.959112832592837
20
104.49493765378632
30
0
10
67.900156279099207
20
104.56297473822451
30
0
10
67.880153163123992
20
104.58523342150491
30
0
10
67.849661308718083
20
104.61796956429987
30
0
10
67.839416171757591
20
104.62877299692737
30
0
10
67.823931679087295
20
104.64481284278412
30
0
10
67.818750717542969
20
104.65013190957721
30
0
10
67.810950707696207
20
104.6580689076677
30
0
10
67.808345943188826
20
104.66070764014133
30
0
10
67.803126996804963
20
104.66597119293533
30
0
10
67.803605140206315
20
104.66549620862887
30
0
10
67.780596347807958
20
104.68853659334476
30
0
10
67.767777817039956
20
104.70137272464959
30
0
10
67.724011499452928
20
104.74519913576016
30
0
10
67.69306371263383
20
104.7761894155658
30
0
10
67.579816491290572
20
104.8895921314749
30
0
10
67.497517056766412
20
104.97200456757804
30
0
10
67.26671407506106
20
105.20312445427236
30
0
10
67.118210527879995
20
105.35183190486352
30
0
10
66.829397083000828
20
105.64104190623803
30
0
10
66.689087185302867
20
105.78154445702152
30
0
10
66.323465618985892
20
106.14766804154273
30
0
10
66.098153950366878
20
106.37328907528038
30
0
10
65.477091474857502
20
106.99520430319127
30
0
10
65.081340667967254
20
107.3914984973642
30
0
10
63.489122009361765
20
108.98590335838611
30
0
10
62.292654157646403
20
110.18401402523503
30
0
10
61.096186305931219
20
111.38212469208361
30
0
0
CIRCLE
5
107
100
AcDbEntity
8
0
100
AcDbCircle
10
97.098090765201377
20
96.460715723224752
30
0
40
1.9999999999999929
210
0
220
-0
230
1
0
SPLINE
5
108
100
AcDbEntity
8
0
100
AcDbSpline
70
0
71
3
72
227
73
223
74
0
42
0.000000001
43
0.0000000001
44
0.0000000001
40
-9.5018758776000052
40
-9.5018758776000052
40
-9.5018758776000052
40
-9.5018758776000052
40
-9.3438219286987749
40
-9.3438219286987749
40
-8.9186160261767125
40
-8.9186160261767125
40
-8.7060130749156812
40
-8.7060130749156812
40
-8.5997115992851665
40
-8.5997115992851665
40
-8.5465608614699082
40
-8.5465608614699082
40
-8.5199854925622791
40
-8.5199854925622791
40
-8.5066978081084628
40
-8.5066978081084628
40
-8.500308907961367
40
-8.500308907961367
40
-8.490539761460397
40
-8.490539761460397
40
-8.4701376597894225
40
-8.4701376597894225
40
-8.4372155163138576
40
-8.4372155163138576
40
-8.2535465340142551
40
-8.2535465340142551
40
-8.161712042864453
40
-8.161712042864453
40
-7.7783223067004368
40
-7.7783223067004368
40
-7.3949325705364224
40
-7.3949325705364224
40
-7.1628734546283219
40
-7.1628734546283219
40
-7.0468438966742726
40
-7.0468438966742726
40
-6.9888291176972457
40
-6.9888291176972457
40
-6.959821728208734
40
-6.959821728208734
40
-6.9453180334644768
40
-6.9453180334644768
40
-6.9380661860923478
40
-6.9380661860923478
40
-6.9344402624062846
40
-6.9344402624062846
40
-6.9326273005632535
40
-6.9326273005632535
40
-6.9308143387202215
40
-6.9308143387202215
40
-6.9200581854451002
40
-6.9200581854451002
40
-6.9037268111490819
40
-6.9037268111490819
40
-6.8846823400094594
40
-6.8846823400094594
40
-6.596329981815594
40
-6.596329981815594
40
-6.596329981815594
40
-6.1320134091602601
40
-6.1320134091602601
40
-5.9123365241303931
40
-5.9123365241303931
40
-5.692659639100528
40
-5.692659639100528
40
-5.4317858462533941
40
-5.4317858462533941
40
-5.154674353650293
40
-5.154674353650293
40
-5.0161186073487443
40
-5.0161186073487443
40
-4.9468407341979672
40
-4.9468407341979672
40
-4.9122017976225809
40
-4.9122017976225809
40
-4.8948823293348882
40
-4.8948823293348882
40
-4.8862225951910414
40
-4.8862225951910414
40
-4.8818927281191167
40
-4.8818927281191167
40
-4.8797277945831556
40
-4.8797277945831556
40
-4.8786453278151738
40
-4.8786453278151738
40
-4.8781040944311833
40
-4.8781040944311833
40
-4.8775628610471937
40
-4.8775628610471937
40
-4.876011372462127
40
-4.876011372462127
40
-4.7382741825831083
40
-4.7382741825831083
40
-4.6694055876435989
40
-4.6694055876435989
40
-4.6349712901738451
40
-4.6349712901738451
40
-4.6177541414389669
40
-4.6177541414389669
40
-4.6091455670715282
40
-4.6091455670715282
40
-4.6048412798878093
40
-4.6048412798878093
40
-4.6026891362959503
40
-4.6026891362959503
40
-4.6016130645000199
40
-4.6016130645000199
40
-4.6005369927040913
40
-4.6005369927040913
40
-4.5998549030363671
40
-4.5998549030363671
40
-4.5969345526592651
40
-4.5969345526592651
40
-4.5923128262963582
40
-4.5923128262963582
40
-4.5831396284228871
40
-4.5831396284228871
40
-4.571743347742089
40
-4.571743347742089
40
-4.509242365108002
40
-4.509242365108002
40
-4.2894066735688217
40
-4.2894066735688217
40
-4.1794888277992319
40
-4.1794888277992319
40
-3.9378929350454248
40
-3.9378929350454248
40
-3.6962970422916182
40
-3.6962970422916182
40
-3.3775139874173736
40
-3.3775139874173736
40
-3.1385298543184819
40
-3.1385298543184819
40
-3.0190377877690353
40
-3.0190377877690353
40
-2.9592917544943118
40
-2.9592917544943118
40
-2.9294187378569503
40
-2.9294187378569503
40
-2.9144822295382684
40
-2.9144822295382684
40
-2.9070139753789288
40
-2.9070139753789288
40
-2.9032798482992588
40
-2.9032798482992588
40
-2.9014127847594238
40
-2.9014127847594238
40
-2.900479252989506
40
-2.900479252989506
40
-2.8995457212195879
40
-2.8995457212195879
40
-2.8959451017659936
40
-2.8959451017659936
40
-2.8900701366932928
40
-2.8900701366932928
40
-2.8809299538178319
40
-2.8809299538178319
40
-2.7259322249177287
40
-2.7259322249177287
40
-2.648433360467676
40
-2.648433360467676
40
-2.6096839282426507
40
-2.6096839282426507
40
-2.590309212130137
40
-2.590309212130137
40
-2.5806218540738808
40
-2.5806218540738808
40
-2.5757781750457527
40
-2.5757781750457527
40
-2.5733563355316891
40
-2.5733563355316891
40
-2.5709344960176241
40
-2.5709344960176241
40
-2.5697235762605919
40
-2.5697235762605919
40
-2.5665441968568561
40
-2.5665441968568561
40
-2.5607127162747605
40
-2.5607127162747605
40
-2.4288387331770269
40
-2.4288387331770269
40
-2.3629017416281592
40
-2.3629017416281592
40
-2.1383348742131338
40
-2.1383348742131338
40
-2.0260514405056216
40
-2.0260514405056216
40
-1.8044537022258491
40
-1.8044537022258491
40
-1.5828559639460769
40
-1.5828559639460769
40
-1.2909783782659361
40
-1.2909783782659361
40
-1.1450395854258659
40
-1.1450395854258659
40
-1.0720701890058308
40
-1.0720701890058308
40
-1.0355854907958131
40
-1.0355854907958131
40
-1.0173431416908041
40
-1.0173431416908041
40
-1.0082219671383001
40
-1.0082219671383001
40
-1.003661379862048
40
-1.003661379862048
40
-0.99910079258579598
40
-0.99910079258579598
40
-0.99336394004546436
40
-0.99336394004546436
40
-0.97951345338325235
40
-0.97951345338325235
40
-0.94268086089941117
40
-0.94268086089941117
40
-0.87621903564683945
40
-0.87621903564683945
40
-0.81342422650583035
40
-0.81342422650583035
40
-0.71258741128247127
40
-0.71258741128247127
40
-0.53547163546189358
40
-0.53547163546189358
40
0
40
0
40
0
40
0
10
-41.361590947187068
20
120.36171917929265
30
0
10
-41.765364410686168
20
120.07941040224451
30
0
10
-42.169137874185374
20
119.79710162519643
30
0
10
-43.659166133310485
20
118.75530939854697
30
0
10
-44.745420928936461
20
117.99582594894551
30
0
10
-46.374803122375674
20
116.85660077454328
30
0
10
-46.917930520188555
20
116.47685904974252
30
0
10
-47.732621616908055
20
115.90724646254137
30
0
10
-48.004185315814816
20
115.71737560014091
30
0
10
-48.411530864174672
20
115.43256930654037
30
0
10
-48.54731271362791
20
115.33763387534022
30
0
10
-48.750985487807874
20
115.19523072853998
30
0
10
-48.818876412534564
20
115.14776301293965
30
0
10
-48.920712799624475
20
115.07656143953943
30
0
10
-48.954658261987767
20
115.05282758173946
30
0
10
-49.004925166227657
20
115.01768216099057
30
0
10
-49.024521918046275
20
115.00398580078047
30
0
10
-49.034453349459852
20
114.99702109341852
30
0
10
-49.040450280142558
20
114.99277615357335
30
0
10
-49.058946312809866
20
114.97956047790913
30
0
10
-49.07141818752919
20
114.97047489287466
30
0
10
-49.103911204804938
20
114.94633711983296
30
0
10
-49.123868384511979
20
114.93104486541858
30
0
10
-49.254351745742078
20
114.82786364694752
30
0
10
-49.361182205808056
20
114.72807863237209
30
0
10
-49.510222941586797
20
114.56061428309033
30
0
10
-49.558030356751956
20
114.50184885417036
30
0
10
-49.793339370010266
20
114.18347789019448
30
0
10
-49.940965967412474
20
113.87663450605109
30
0
10
-50.101284683597882
20
113.222732409993
30
0
10
-50.113235613363472
20
112.8776100697945
30
0
10
-50.029077065318468
20
112.35855144771668
30
0
10
-49.974496184214061
20
112.17081915198391
30
0
10
-49.866554399545073
20
111.9103785208282
30
0
10
-49.826267346847537
20
111.82704104666036
30
0
10
-49.760613382290089
20
111.70792247903988
30
0
10
-49.737858884900348
20
111.66919417520388
30
0
10
-49.702579636818491
20
111.61262314205727
30
0
10
-49.690628635795946
20
111.59401950107656
30
0
10
-49.672434799220397
20
111.56649916253093
30
0
10
-49.666325629832286
20
111.5573898915619
30
0
10
-49.657097467591278
20
111.54382277562752
30
0
10
-49.654010678696778
20
111.53931653467735
30
0
10
-49.649364695406177
20
111.53258142928428
30
0
10
-49.647813400975807
20
111.53034043678061
30
0
10
-49.645482547033666
20
111.52698501900259
30
0
10
-49.644704943669993
20
111.52586755823619
30
0
10
-49.643148439118683
20
111.52363466149778
30
0
10
-49.645183866271978
20
111.52654643550738
30
0
10
-49.572189029052893
20
111.42210861140518
30
0
10
-49.509722924634865
20
111.33273483821553
30
0
10
-49.352412752268684
20
111.1076623161449
30
0
10
-49.257568684321065
20
110.97196356726398
30
0
10
-49.052124303010949
20
110.6780227219184
30
0
10
-48.941523989647955
20
110.51978062545358
30
0
10
-47.156324211623364
20
107.96559477468156
30
0
10
-45.481724746963685
20
105.56965102037259
30
0
10
-43.807125282299246
20
103.17370726606703
30
0
10
-43.592217893271474
20
102.86622716269802
30
0
10
-43.293183762767491
20
102.59402534374304
30
0
10
-42.784162403145949
20
102.3186290699899
30
0
10
-42.611082650302485
20
102.24883436939633
30
0
10
-42.258990488218053
20
102.1497838718693
30
0
10
-42.082405826159182
20
102.12056719674783
30
0
10
-41.691319524608197
20
102.09775013384147
30
0
10
-41.471956301452586
20
102.11259432795862
30
0
10
-41.02763521577657
20
102.20357746688171
30
0
10
-40.803501889371567
20
102.28355449930986
30
0
10
-40.493790705348367
20
102.44595740661622
30
0
10
-40.394930426455709
20
102.50704429944049
30
0
10
-40.255017553810575
20
102.60732190591339
30
0
10
-40.209770509947873
20
102.6421840796594
30
0
10
-40.144156968971849
20
102.69637426875866
30
0
10
-40.122661552491792
20
102.71475362898114
30
0
10
-40.09099974649839
20
102.74276301078599
30
0
10
-40.080542671476884
20
102.75217285346761
30
0
10
-40.065004322554181
20
102.76639342605576
30
0
10
-40.059849415205768
20
102.77115125128616
30
0
10
-40.052154099483168
20
102.77831390436644
30
0
10
-40.049595168356262
20
102.78070577457802
30
0
10
-40.045766060895396
20
102.78429999145337
30
0
10
-40.04449123994025
20
102.78549913233688
30
0
10
-40.042581334254841
20
102.78729943813721
30
0
10
-40.041945086650692
20
102.78789980581641
30
0
10
-40.040991297108199
20
102.78880075490142
30
0
10
-40.04067346423767
20
102.78910113752416
30
0
10
-40.040037992522706
20
102.78970203511639
30
0
10
-40.028408829451756
20
102.800699692625
30
0
10
-39.995209253572277
20
102.83207314434284
30
0
10
-39.970576665165289
20
102.85531480091356
30
0
10
-37.757396311925966
20
104.94029000541273
30
0
10
-35.416311985831719
20
106.86079587634217
30
0
10
-31.722761708214193
20
109.48559480446887
30
0
10
-30.461394314968082
20
110.31799480991558
30
0
10
-28.53096097850127
20
111.49859018104655
30
0
10
-27.881092209301066
20
111.88079780337047
30
0
10
-26.897611437955078
20
112.43669024646793
30
0
10
-26.568338532405384
20
112.61908522603461
30
0
10
-26.072376161680602
20
112.88827590307973
30
0
10
-25.90671321774618
20
112.97727253916504
30
0
10
-25.657720194130071
20
113.10966148801035
30
0
10
-25.574639419152057
20
113.15360680608967
30
0
10
-25.449895441260146
20
113.21924760745729
30
0
10
-25.408293646109037
20
113.24108167878931
30
0
10
-25.345860479447033
20
113.27376340880994
30
0
10
-25.32504434490658
20
113.28464575599773
30
0
10
-25.283401956198084
20
113.30638731097962
30
0
10
-25.259296455463804
20
113.31895061740751
30
0
10
-25.258036051312409
20
113.3196079027722
30
0
10
-25.257547119170276
20
113.31986308070795
30
0
10
-25.254965098253592
20
113.32121174736662
30
0
10
-25.252872870339935
20
113.32230835538452
30
0
10
-25.247471886883766
20
113.32514896607323
30
0
10
-25.244164523689783
20
113.32689793152382
30
0
10
-25.234299803378661
20
113.33214288789426
30
0
10
-25.227749432411066
20
113.33566315073006
30
0
10
-25.213083268657179
20
113.34362965371602
30
0
10
-25.20497281489714
20
113.34809355117577
30
0
10
-25.152486028708374
20
113.377363543089
30
0
10
-25.108576417059432
20
113.4036267499347
30
0
10
-24.913067747362341
20
113.5289580900229
30
0
10
-24.76870005619265
20
113.64509010191219
30
0
10
-24.57301485602926
20
113.84266901686134
30
0
10
-24.51125070342826
20
113.91237980673451
30
0
10
-24.326765582624965
20
114.14566849521192
30
0
10
-24.219942532798875
20
114.32175246560098
30
0
10
-24.0538048669303
20
114.6888699816087
30
0
10
-23.994914914361836
20
114.87682131579147
30
0
10
-23.909696264740994
20
115.32674263945692
30
0
10
-23.900783259828167
20
115.59824459421827
30
0
10
-23.962920251102453
20
116.06573926180963
30
0
10
-24.01425614672636
20
116.26335376584555
30
0
10
-24.124137554100962
20
116.54315346744353
30
0
10
-24.166178362249049
20
116.63367041631352
30
0
10
-24.236337710753268
20
116.76406468352594
30
0
10
-24.260904264504894
20
116.80663546956188
30
0
10
-24.299374407738945
20
116.869022026571
30
0
10
-24.312467710844459
20
116.88957281865031
30
0
10
-24.332492787616253
20
116.92001776902222
30
0
10
-24.33923199382857
20
116.93010255987238
30
0
10
-24.349434550810969
20
116.94513281291107
30
0
10
-24.352851027403979
20
116.95012674258477
30
0
10
-24.357998860313366
20
116.95759320736884
30
0
10
-24.359718657600133
20
116.96007795739673
30
0
10
-24.362304093033664
20
116.96379895086478
30
0
10
-24.363166861427565
20
116.96503826009531
30
0
10
-24.36446244388538
20
116.96689568805526
30
0
10
-24.364894543015261
20
116.96751457472791
30
0
10
-24.365759217062894
20
116.96875183561461
30
0
10
-24.375398122850349
20
116.98254270415119
30
0
10
-24.40173009828186
20
117.02021734421001
30
0
10
-24.422640610154183
20
117.05013519106059
30
0
10
-24.477669842009497
20
117.12886861188784
30
0
10
-24.511788561992773
20
117.17768418586408
30
0
10
-24.598988676717966
20
117.30244630042327
30
0
10
-24.652070071459882
20
117.37839284100629
30
0
10
-25.605297091733661
20
118.74222841712927
30
0
10
-26.505442717265169
20
120.03011745266937
30
0
10
-27.855661155562252
20
121.96195100597967
30
0
10
-28.305733968327935
20
122.60589552374972
30
0
10
-28.980843187476601
20
123.57181230040487
30
0
10
-29.205879593859443
20
123.89378455928997
30
0
10
-29.543434203433669
20
124.37674294761754
30
0
10
-29.655952406625126
20
124.53772907706012
30
0
10
-29.82472971141231
20
124.77920827122388
30
0
10
-29.88098881300786
20
124.85970133594512
30
0
10
-29.965377465401453
20
124.98044093302701
30
0
10
-29.993507016199352
20
125.0206874653877
30
0
10
-30.035701342396202
20
125.08105726392861
30
0
10
-30.049766117794938
20
125.10118053010898
30
0
10
-30.077895668592873
20
125.14142706246956
30
0
10
-30.104372314914549
20
125.17930879891922
30
0
10
-30.106062423369373
20
125.18172676750658
30
0
10
-30.10662633452327
20
125.18253251923225
30
0
10
-30.108672808471688
20
125.18545297907438
30
0
10
-30.110158562357405
20
125.18756627949996
30
0
10
-30.114379988400053
20
125.19355098440896
30
0
10
-30.117124474720889
20
125.19741845165684
30
0
10
-30.182228719925881
20
125.28861035790291
30
0
10
-30.251006482105289
20
125.37301039962016
30
0
10
-30.363057150928761
20
125.4932365218142
30
0
10
-30.401882283099688
20
125.53225058691771
30
0
10
-30.579007585477278
20
125.69878524867717
30
0
10
-30.732089693326436
20
125.81324866566275
30
0
10
-30.977687254555946
20
125.95637107323873
30
0
10
-31.062177305012035
20
125.99935329349839
30
0
10
-31.31868612245416
20
126.11212011221552
30
0
10
-31.49580926960585
20
126.16707062597116
30
0
10
-31.850249831187547
20
126.23664317334408
30
0
10
-32.032841079365788
20
126.25257500450707
30
0
10
-32.462201686765759
20
126.24165260332822
30
0
10
-32.708773437096745
20
126.19882166186207
30
0
10
-33.058639911900833
20
126.08270944916056
30
0
10
-33.17193695297636
20
126.03551468936827
30
0
10
-33.334390525751552
20
125.95359194884041
30
0
10
-33.387298468931341
20
125.92443677169443
30
0
10
-33.46453961525409
20
125.87819041644947
30
0
10
-33.489933643757261
20
125.86235637254161
30
0
10
-33.527467305936689
20
125.83801232945915
30
0
10
-33.53988565951056
20
125.8297988355381
30
0
10
-33.558370678001666
20
125.81733487710798
30
0
10
-33.564508600749043
20
125.8131562722666
30
0
10
-33.573679475499851
20
125.80685300735047
30
0
10
-33.576730432308004
20
125.80474602615423
30
0
10
-33.582820280436785
20
125.80052037364359
30
0
10
-33.582269483478946
20
125.80090877281306
30
0
10
-33.608955267849865
20
125.78225045649036
30
0
10
-33.623822303985769
20
125.77185563881719
30
0
10
-33.674582834726294
20
125.73636460635973
30
0
10
-33.710476329330881
20
125.71126839157535
30
0
10
-33.84182137678291
20
125.61943382494951
30
0
10
-33.937272929630069
20
125.55269547310799
30
0
10
-34.204960103095168
20
125.36553245445327
30
0
10
-34.377195723713072
20
125.24510778764024
30
0
10
-34.712163903704329
20
125.01090285765075
30
0
10
-34.874896463077789
20
124.89712259447457
30
0
10
-35.298947326381551
20
124.60063233455016
30
0
10
-35.560265630311854
20
124.4179223378019
30
0
10
-36.280578935564343
20
123.91428964280534
30
0
10
-36.739573936886281
20
123.59336694455712
30
0
10
-38.586242073975079
20
122.30220316365147
30
0
10
-39.973915209742046
20
121.33196208099397
30
0
10
-41.361588345508551
20
120.36172099833655
30
0
0
LWPOLYLINE
5
109
100
AcDbEntity
8
0
100
AcDbPolyline
90
8
70
1
43
0.0
10
50.392883777335527
20
33.417600953245646
42
-0.19868963536022366
10
49.516021431177144
20
35.537102428319599
10
49.516021431177606
20
40.374381222116739
42
-0.4142135623731783
10
52.516021431178075
20
43.374381222116355
10
60.915026381634014
20
43.374381222115204
42
-0.49119201399630541
10
63.817630432511322
20
39.616166395174176
42
-0.044949555339662717
10
60.131134690569425
20
29.369226979956608
42
-0.52120357626153968
10
55.287622922470412
20
28.514464481303943
0
SPLINE
5
110
100
AcDbEntity
8
0
100
AcDbSpline
70
0
71
3
72
227
73
223
74
0
42
0.000000001
43
0.0000000001
44
0.0000000001
40
0
40
0
40
0
40
0
40
0.53547163546189358
40
0.53547163546189358
40
0.71258741128247127
40
0.71258741128247127
40
0.81342422650583035
40
0.81342422650583035
40
0.87621903564683945
40
0.87621903564683945
40
0.94268086089941117
40
0.94268086089941117
40
0.97951345338325235
40
0.97951345338325235
40
0.99336394004546436
40
0.99336394004546436
40
0.99910079258579598
40
0.99910079258579598
40
1.003661379862048
40
1.003661379862048
40
1.0082219671383001
40
1.0082219671383001
40
1.0173431416908041
40
1.0173431416908041
40
1.0355854907958131
40
1.0355854907958131
40
1.0720701890058308
40
1.0720701890058308
40
1.1450395854258659
40
1.1450395854258659
40
1.2909783782659361
40
1.2909783782659361
40
1.5828559639460769
40
1.5828559639460769
40
1.8044537022258491
40
1.8044537022258491
40
2.0260514405056216
40
2.0260514405056216
40
2.1383348742131338
40
2.1383348742131338
40
2.3629017416281592
40
2.3629017416281592
40
2.4288387331770269
40
2.4288387331770269
40
2.5607127162747605
40
2.5607127162747605
40
2.5665441968568561
40
2.5665441968568561
40
2.5697235762605919
40
2.5697235762605919
40
2.5709344960176241
40
2.5709344960176241
40
2.5733563355316891
40
2.5733563355316891
40
2.5757781750457527
40
2.5757781750457527
40
2.5806218540738808
40
2.5806218540738808
40
2.590309212130137
40
2.590309212130137
40
2.6096839282426507
40
2.6096839282426507
40
2.648433360467676
40
2.648433360467676
40
2.7259322249177287
40
2.7259322249177287
40
2.8809299538178319
40
2.8809299538178319
40
2.8900701366932928
40
2.8900701366932928
40
2.8959451017659936
40
2.8959451017659936
40
2.8995457212195879
40
2.8995457212195879
40
2.900479252989506
40
2.900479252989506
40
2.9014127847594238
40
2.9014127847594238
40
2.9032798482992588
40
2.9032798482992588
40
2.9070139753789288
40
2.9070139753789288
40
2.9144822295382684
40
2.9144822295382684
40
2.9294187378569503
40
2.9294187378569503
40
2.9592917544943118
40
2.9592917544943118
40
3.0190377877690353
40
3.0190377877690353
40
3.1385298543184819
40
3.1385298543184819
40
3.3775139874173736
40
3.3775139874173736
40
3.6962970422916182
40
3.6962970422916182
40
3.9378929350454248
40
3.9378929350454248
40
4.1794888277992319
40
4.1794888277992319
40
4.2894066735688217
40
4.2894066735688217
40
4.509242365108002
40
4.509242365108002
40
4.571743347742089
40
4.571743347742089
40
4.5831396284228871
40
4.5831396284228871
40
4.5923128262963582
40
4.5923128262963582
40
4.5969345526592651
40
4.5969345526592651
40
4.5998549030363671
40
4.5998549030363671
40
4.6005369927040913
40
4.6005369927040913
40
4.6016130645000199
40
4.6016130645000199
40
4.6026891362959503
40
4.6026891362959503
40
4.6048412798878093
40
4.6048412798878093
40
4.6091455670715282
40
4.6091455670715282
40
4.6177541414389669
40
4.6177541414389669
40
4.6349712901738451
40
4.6349712901738451
40
4.6694055876435989
40
4.6694055876435989
40
4.7382741825831083
40
4.7382741825831083
40
4.876011372462127
40
4.876011372462127
40
4.8775628610471937
40
4.8775628610471937
40
4.8781040944311833
40
4.8781040944311833
40
4.8786453278151738
40
4.8786453278151738
40
4.8797277945831556
40
4.8797277945831556
40
4.8818927281191167
40
4.8818927281191167
40
4.8862225951910414
40
4.8862225951910414
40
4.8948823293348882
40
4.8948823293348882
40
4.9122017976225809
40
4.9122017976225809
40
4.9468407341979672
40
4.9468407341979672
40
5.0161186073487443
40
5.0161186073487443
40
5.154674353650293
40
5.154674353650293
40
5.4317858462533941
40
5.4317858462533941
40
5.692659639100528
40
5.692659639100528
40
5.9123365241303931
40
5.9123365241303931
40
6.1320134091602601
40
6.1320134091602601
40
6.596329981815594
40
6.596329981815594
40
6.596329981815594
40
6.8846823400094594
40
6.8846823400094594
40
6.9037268111490819
40
6.9037268111490819
40
6.9200581854451002
40
6.9200581854451002
40
6.9308143387202215
40
6.9308143387202215
40
6.9326273005632535
40
6.9326273005632535
40
6.9344402624062846
40
6.9344402624062846
40
6.9380661860923478
40
6.9380661860923478
40
6.9453180334644768
40
6.9453180334644768
40
6.959821728208734
40
6.959821728208734
40
6.9888291176972457
40
6.9888291176972457
40
7.0468438966742726
40
7.0468438966742726
40
7.1628734546283219
40
7.1628734546283219
40
7.3949325705364224
40
7.3949325705364224
40
7.7783223067004368
40
7.7783223067004368
40
8.161712042864453
40
8.161712042864453
40
8.2535465340142551
40
8.2535465340142551
40
8.4372155163138576
40
8.4372155163138576
40
8.4701376597894225
40
8.4701376597894225
40
8.490539761460397
40
8.490539761460397
40
8.500308907961367
40
8.500308907961367
40
8.5066978081084628
40
8.5066978081084628
40
8.5199854925622791
40
8.5199854925622791
40
8.5465608614699082
40
8.5465608614699082
40
8.5997115992851665
40
8.5997115992851665
40
8.7060130749156812
40
8.7060130749156812
40
8.9186160261767125
40
8.9186160261767125
40
9.3438219286987749
40
9.3438219286987749
40
9.5018758776000052
40
9.5018758776000052
40
9.5018758776000052
40
9.5018758776000052
10
61.096186305931219
20
-1.3626919019020711
30
0
10
62.292654157646439
20
-0.16458123505350031
30
0
10
63.489122009361765
20
1.0335294317954258
30
0
10
65.081340667967282
20
2.6279342928173399
30
0
10
65.477091474857502
20
3.0242284869902569
30
0
10
66.098153950366878
20
3.6461437149011466
30
0
10
66.323465618985892
20
3.8717647486387996
30
0
10
66.689087185302867
20
4.2378883331600115
30
0
10
66.829397083000828
20
4.3783908839434993
30
0
10
67.118210527880038
20
4.6676008853180129
30
0
10
67.26671407506106
20
4.8163083359091807
30
0
10
67.497517056766412
20
5.0474282226034894
30
0
10
67.579816491290572
20
5.1298406587066303
30
0
10
67.693063712633858
20
5.2432433746157336
30
0
10
67.724011499452956
20
5.2742336544213764
30
0
10
67.767777817039985
20
5.3180600655319488
30
0
10
67.780596347807958
20
5.3308961968367718
30
0
10
67.803605140206358
20
5.3539365815526629
30
0
10
67.803126996805005
20
5.3534615972461985
30
0
10
67.808345943188826
20
5.3587251500402111
30
0
10
67.810950707696207
20
5.3613638825138388
30
0
10
67.818750717542997
20
5.3693008806043174
30
0
10
67.823931679087295
20
5.3746199473974166
30
0
10
67.839416171757634
20
5.3906597932541622
30
0
10
67.849661308718112
20
5.4014632258816597
30
0
10
67.880153163123992
20
5.4341993686766266
30
0
10
67.900156279099207
20
5.4564580519570249
30
0
10
67.959112832592865
20
5.5244951363952133
30
0
10
67.997012445003946
20
5.5715365456536325
30
0
10
68.105900361891685
20
5.7172963490250162
30
0
10
68.172051951954487
20
5.8206768694362232
30
0
10
68.347153835018844
20
6.14506541220182
30
0
10
68.432150813352621
20
6.3804536686682489
30
0
10
68.517464965752026
20
6.801394668613252
30
0
10
68.533481812407118
20
6.9839784788997328
30
0
10
68.526514185967358
20
7.345115437994405
30
0
10
68.50315560571434
20
7.529089743122821
30
0
10
68.436644257063506
20
7.801283367827363
30
0
10
68.408986576602786
20
7.8919536087890485
30
0
10
68.31068608893915
20
8.1586729364675925
30
0
10
68.224544057516923
20
8.3293057468939757
30
0
10
68.091296917447508
20
8.5326585584629733
30
0
10
68.059617477106187
20
8.5776685709452316
30
0
10
67.960675254302458
20
8.7088939853597758
30
0
10
67.889500571931222
20
8.7912827722280973
30
0
10
67.810999309186357
20
8.8712332459975407
30
0
10
67.807667172504367
20
8.8746076160441767
30
0
10
67.802506431649931
20
8.8798041422410456
30
0
10
67.80068323546115
20
8.8816342949545479
30
0
10
67.798162510438047
20
8.8841568108947833
30
0
10
67.797466922035809
20
8.8848520722900126
30
0
10
67.795379172077688
20
8.8869363800385592
30
0
10
67.762670565708987
20
8.9195888811112489
30
0
10
67.727920113843084
20
8.9542798178276506
30
0
10
67.710544887909975
20
8.9716252861856383
30
0
10
67.658419210111092
20
9.0236616912601342
30
0
10
67.623668758245088
20
9.0583526279765358
30
0
10
67.519417402647193
20
9.1624254381254921
30
0
10
67.449916498915243
20
9.2318073115579757
30
0
10
67.241413787719466
20
9.4399529318558884
30
0
10
67.102411980255539
20
9.5787166787212463
30
0
10
66.685406557863899
20
9.9950079193170005
30
0
10
66.407402942936073
20
10.272535413047468
30
0
10
65.573392098152851
20
11.105117894239225
30
0
10
65.01738486829737
20
11.660172881700195
30
0
10
63.349363178730833
20
13.325337844083389
30
0
10
62.237348719019963
20
14.435447819005613
30
0
10
61.059759004793612
20
15.611020741383026
30
0
10
60.994183750277919
20
15.67648368883793
30
0
10
60.886459193592231
20
15.784023751717893
30
0
10
60.844309891422093
20
15.826100867143058
30
0
10
60.776328334000347
20
15.893965996364567
30
0
10
60.750496078749165
20
15.919754010161231
30
0
10
60.717966300675315
20
15.952228076308774
30
0
10
60.706058724844461
20
15.964115304648612
30
0
10
60.704990409803372
20
15.965181690452876
30
0
10
60.704455958636387
20
15.965714693568902
30
0
10
60.702851724713582
20
15.967313132198431
30
0
10
60.701781061534312
20
15.968377996991219
30
0
10
60.698565554469575
20
15.971570297585966
30
0
10
60.696417193042649
20
15.973695439601858
30
0
10
60.689958072439332
20
15.980061603365581
30
0
10
60.685633276713098
20
15.984293362789632
30
0
10
60.672603022418379
20
15.996950896056514
30
0
10
60.663841693079341
20
16.005338924136741
30
0
10
60.637336588002064
20
16.030346485147557
30
0
10
60.619371636855739
20
16.046809479152575
30
0
10
60.564613142096597
20
16.095528486404564
30
0
10
60.526955039247099
20
16.127114158420941
30
0
10
60.410724796962043
20
16.218850355653824
30
0
10
60.328883313658395
20
16.275970572680212
30
0
10
60.072415104384298
20
16.432769342868827
30
0
10
59.886717193426051
20
16.517640729393488
30
0
10
59.437114795590702
20
16.660013317245532
30
0
10
59.168189838523126
20
16.698381540581995
30
0
10
58.710305767521973
20
16.692585571682184
30
0
10
58.514983703483381
20
16.667227696489118
30
0
10
58.124594024532463
20
16.56736332271878
30
0
10
57.932635537377024
20
16.492739815624038
30
0
10
57.670855523240263
20
16.351567593965992
30
0
10
57.591478564360266
20
16.302846929251498
30
0
10
57.362920938681832
20
16.144443845507102
30
0
10
57.22348404651477
20
16.022435536192123
30
0
10
57.06610704688952
20
15.85166064130421
30
0
10
57.032618013124008
20
15.812978673329052
30
0
10
56.99467846338397
20
15.766371960115659
30
0
10
56.988874017041482
20
15.759159870031549
30
0
10
56.978481790527269
20
15.746099886985672
30
0
10
56.973877548412375
20
15.740260318098027
30
0
10
56.966999284009319
20
15.731456242170037
30
0
10
56.964702571682331
20
15.728502829917819
30
0
10
56.960967245318024
20
15.723677166405832
30
0
10
56.959523985675524
20
15.721807148119371
30
0
10
56.957747445066964
20
15.719498547409732
30
0
10
56.957411241681939
20
15.719061354428963
30
0
10
56.956545075074843
20
15.717934235054525
30
0
10
56.939986757226926
20
15.696376546307835
30
0
10
56.911344380405282
20
15.65914218045604
30
0
10
56.897012676694771
20
15.640531989530739
30
0
10
56.853986049971788
20
15.584722445817949
30
0
10
56.825259611328498
20
15.547544122111798
30
0
10
56.738954476791896
20
15.436093691080313
30
0
10
56.68124996166469
20
15.361906124157176
30
0
10
56.507635113625945
20
15.139684963764299
30
0
10
56.391223468096001
20
14.991992915865584
30
0
10
56.039999440435651
20
14.550309798487309
30
0
10
55.803197810444054
20
14.25771184406246
30
0
10
55.08497097892608
20
13.385702065225171
30
0
10
54.595721421706891
20
12.812075919983297
30
0
10
53.097845716061833
20
11.115978438316478
30
0
10
52.059057587884823
20
10.018318794086678
30
0
10
48.832756978538079
20
6.8366733951598313
30
0
10
46.534902880150426
20
4.864647745052384
30
0
10
44.09728839873317
20
3.0471427191100453
30
0
10
44.070122431061378
20
3.0269202263795059
30
0
10
44.033460566720102
20
2.9996729693746182
30
0
10
44.020610605365604
20
2.9901302026062915
30
0
10
44.019908488252746
20
2.9896087299064256
30
0
10
44.019557478018214
20
2.9893478865264278
30
0
10
44.018504592558294
20
2.9885650353570092
30
0
10
44.017802862576154
20
2.9880427065370263
30
0
10
44.015698255824418
20
2.986474436431994
30
0
10
44.014295962249683
20
2.9854272115008307
30
0
10
44.010091432072151
20
2.9822804059968
30
0
10
44.007291546016631
20
2.9801756946870661
30
0
10
43.998901432179238
20
2.9738410697562223
30
0
10
43.993320748737759
20
2.9695906647143921
30
0
10
43.97661801262629
20
2.9567577547416413
30
0
10
43.965535274577583
20
2.9480935482203741
30
0
10
43.932453403306688
20
2.921776534311693
30
0
10
43.910620626964239
20
2.9037992239172361
30
0
10
43.845860036781339
20
2.8485925276459589
30
0
10
43.803670431077855
20
2.8100866409896064
30
0
10
43.680620651402862
20
2.6897123828872616
30
0
10
43.603294898468725
20
2.6029616413871004
30
0
10
43.389578473532993
20
2.3261566350680773
30
0
10
43.271896128250198
20
2.119316263452351
30
0
10
43.105139680818709
20
1.6975444697242104
30
0
10
43.052428979416817
20
1.484091534092169
30
0
10
43.006987976293125
20
1.0949845708344874
30
0
10
43.005097179699554
20
0.91600920418356324
30
0
10
43.041502715287123
20
0.55206617479539588
30
0
10
43.080182093878499
20
0.36949616973680932
30
0
10
43.263003847929475
20
-0.17961407274077246
30
0
10
43.479143577798141
20
-0.52137255269551375
30
0
10
43.744634091021055
20
-0.78640837520852713
30
0
10
45.813386930681368
20
-2.8516181779278149
30
0
10
47.882139770345837
20
-4.916827980642946
30
0
10
50.087525110594804
20
-7.1184362811264457
30
0
10
50.224157611181397
20
-7.2548347788932155
30
0
10
50.477957792178287
20
-7.508200290556335
30
0
10
50.59512547258862
20
-7.6251673044532176
30
0
10
50.789462012553948
20
-7.8191710151276261
30
0
10
50.866630872108942
20
-7.8962077119045837
30
0
10
50.956806630530309
20
-7.9862290313625728
30
0
10
50.954292541126556
20
-7.9837189026707911
30
0
10
50.956221230967351
20
-7.9856394988700607
30
0
10
50.957186685586784
20
-7.9865993337171126
30
0
10
50.960086378489677
20
-7.9894774389329193
30
0
10
50.962023945830879
20
-7.9913943099795581
30
0
10
50.967849963307472
20
-7.9971392491224513
30
0
10
50.971751729065744
20
-8.0009616432867325
30
0
10
50.98351027646757
20
-8.0124055139659767
30
0
10
50.991420311010849
20
-8.0200036796474627
30
0
10
51.015363227210031
20
-8.0426999676013899
30
0
10
51.031608967533195
20
-8.0576998944188638
30
0
10
51.081194382433033
20
-8.1022666282649602
30
0
10
51.115383039306259
20
-8.1314005330955474
30
0
10
51.2212912369246
20
-8.2167417886013006
30
0
10
51.296366854317057
20
-8.2708881909644738
30
0
10
51.534106912876716
20
-8.4224151383710755
30
0
10
51.709509262665883
20
-8.5087661842921669
30
0
10
52.206068239452854
20
-8.6817797587152334
30
0
10
52.548022652993289
20
-8.7299402558739736
30
0
10
53.219829559813725
20
-8.68560604857473
30
0
10
53.547646393092698
20
-8.5935050253878664
30
0
10
53.902041568091015
20
-8.4170554224938776
30
0
10
53.968215888622879
20
-8.380178819029549
30
0
10
54.159016730314811
20
-8.2624822259969655
30
0
10
54.275836701012921
20
-8.1746022466056267
30
0
10
54.400108562821927
20
-8.0640184513840474
30
0
10
54.418634021417738
20
-8.0470199381918128
30
0
10
54.44804744068648
20
-8.0192120431615344
30
0
10
54.459160713586208
20
-8.0085073395275863
30
0
10
54.475387415808356
20
-7.9925871811526328
30
0
10
54.480609221563583
20
-7.9874184833903961
30
0
10
54.489192694337696
20
-7.9788473414772021
30
0
10
54.506083916302153
20
-7.9619266563435254
30
0
10
54.549424155456769
20
-7.9185263575945619
30
0
10
54.578692010306504
20
-7.8892179442355648
30
0
10
54.666495574856064
20
-7.8012927041586089
30
0
10
54.725031284555961
20
-7.7426758774406146
30
0
10
54.900638413654868
20
-7.5668253972865607
30
0
10
55.017709833054127
20
-7.4495917438506076
30
0
10
55.368924091252048
20
-7.0978907835426419
30
0
10
55.60306693005078
20
-6.8634234766704516
30
0
10
56.305495446446621
20
-6.1600215560546978
30
0
10
56.773781124043836
20
-5.6910869423109567
30
0
10
58.178638156835518
20
-4.2842831010792715
30
0
10
59.115209512029878
20
-3.3464138735916116
30
0
10
60.39991526573143
20
-2.0599278134631227
30
0
10
60.748049664238657
20
-1.7113109808223292
30
0
10
61.096184062745955
20
-1.3626941481816068
30
0
0
CIRCLE
5
111
100
AcDbEntity
8
0
100
AcDbCircle
10
43.700341025406289
20
36.510084160323814
30
0
40
1.4999999999999858
210
0
220
-0
230
1
0
CIRCLE
5
112
100
AcDbEntity
8
0
100
AcDbCircle
10
103.85749543953659
20
46.353584542580336
30
0
40
1.0000000000000142
210
0
220
-0
230
1
0
CIRCLE
5
113
100
AcDbEntity
8
0
100
AcDbCircle
10
18.487978255412649
20
117.74536716612181
30
0
40
1.0000000000000142
210
0
220
-0
230
1
0
CIRCLE
5
114
100
AcDbEntity
8
0
100
AcDbCircle
10
0.79412305073987
20
-7.7349387936789249
30
0
40
1.0000000000000142
210
0
220
-0
230
1
0
CIRCLE
5
115
100
AcDbEntity
8
0
100
AcDbCircle
10
103.85749543953659
20
63.665848247601261
30
0
40
1.0000000000000142
210
0
220
-0
230
1
0
LWPOLYLINE
5
116
100
AcDbEntity
8
0
100
AcDbPolyline
90
12
70
1
43
0.0
10
105.93204855264078
20
50.410408480214898
42
-0.41421356237311585
10
103.93204855264061
20
48.410408480214869
10
32.692568154907029
20
48.410408480221193
42
-0.41421356237306384
10
30.692568154907249
20
50.410408480221193
10
30.692568154907232
20
52.214811784545887
42
-0.42780564568862595
10
30.692568154907249
20
57.361448693164675
10
30.692568154907249
20
59.165851997489071
42
-0.41421356237306384
10
32.692568154906994
20
61.165851997489028
10
103.93204855264051
20
61.165851997495423
42
-0.41421356237311585
10
105.93204855264071
20
59.165851997495494
10
105.93204855264074
20
57.361448693164306
42
-0.42780564568863988
10
105.93204855264128
20
52.214811784546683
0
LINE
5
117
100
AcDbEntity
8
0
100
AcDbLine
10
-33.102440411236778
20
86.985119800032521
30
0
11
-33.102457386983168
21
86.98514408818879
31
0
0
SPLINE
5
118
100
AcDbEntity
8
0
100
AcDbSpline
70
4
71
3
72
17
73
13
74
0
42
0.000000001
43
0.0000000001
44
0.0000000001
40
-6.5007874788182605
40
-6.5007874788182605
40
-6.5007874788182605
40
-6.5007874788182605
40
-6.215050719215907
40
-6.215050719215907
40
-6.215050719215907
40
-4.8189064872475216
40
-4.8189064872475216
40
-4.8189064872475216
40
-4.7628917789770071
40
-4.7628917789770071
40
-4.7628917789770071
40
-4.530716867446456
40
-4.530716867446456
40
-4.530716867446456
40
-4.530716867446456
41
0.99917524652855116
41
0.99265889263647056
41
0.99293381046028684
41
1
41
0.8440551614259737
41
0.8440551614259737
41
1
41
1
41
1
41
1
41
1
41
1
41
1
10
-23.938645807188024
20
108.35728920635322
30
4.4408920985006262e-15
10
-29.033261618256955
20
105.58145405606206
30
0
10
-33.679894727288612
20
102.10872390763942
30
0
10
-37.784244965550187
20
98.010426289754932
30
0
10
-38.861952816961889
20
96.934307717065508
30
0
10
-38.995899638163785
20
95.41722378907329
30
0
10
-38.123420482926775
20
94.168918730541819
30
0
10
-37.798116396389965
20
93.703487855376707
30
0
10
-37.47281230985319
20
93.238056980211596
30
0
10
-37.147508223316485
20
92.772626105046484
30
0
10
-35.799157944538571
20
90.84346543276061
30
0
10
-34.45080766576087
20
88.914304760474664
30
0
10
-33.102457386983168
20
86.98514408818879
30
0
0
ARC
5
119
100
AcDbEntity
8
0
100
AcDbCircle
10
-21.30052263437495
20
104.18732692480523
30
0
40
4.934397562409039
210
0
220
-0
230
1
100
AcDbArc
50
30.622464054388185
51
122.31945725105957
0
SPLINE
5
120
100
AcDbEntity
8
0
100
AcDbSpline
70
4
71
3
72
87
73
83
74
0
42
0.000000001
43
0.0000000001
44
0.0000000001
40
-4.5307158930848042
40
-4.5307158930848042
40
-4.5307158930848042
40
-4.5307158930848042
40
-4.4813834936944055
40
-4.4813834936944055
40
-4.4813834936944055
40
-3.6958998304491919
40
-3.6958998304491919
40
-3.6958998304491919
40
-2.9104161672039814
40
-2.9104161672039814
40
-2.9104161672039814
40
-2.7291762678126581
40
-2.7291762678126581
40
-2.7291762678126581
40
-2.7152337158989064
40
-2.7152337158989064
40
-2.655800321568254
40
-2.655800321568254
40
-2.2155560677542692
40
-2.2155560677542692
40
-1.9954339408472759
40
-1.9954339408472759
40
-1.8853728773937801
40
-1.8853728773937801
40
-1.8303423456670311
40
-1.8303423456670311
40
-1.802827079803657
40
-1.802827079803657
40
-1.7890694468719708
40
-1.7890694468719708
40
-1.782190630406127
40
-1.782190630406127
40
-1.7787512221732049
40
-1.7787512221732049
40
-1.7770315180567453
40
-1.7770315180567453
40
-1.7753118139402841
40
-1.7753118139402841
40
-1.7717553961425458
40
-1.7717553961425458
40
-1.7633879210135617
40
-1.7633879210135617
40
-1.7470376574814943
40
-1.7470376574814943
40
-1.72426339308469
40
-1.72426339308469
40
-1.693371221941137
40
-1.693371221941137
40
-1.648990640004242
40
-1.648990640004242
40
-1.5815509724794758
40
-1.5815509724794758
40
-1.2500605890279328
40
-1.2500605890279328
40
-0.91857020557639035
40
-0.91857020557639035
40
-0.58707982212484755
40
-0.58707982212484755
40
-0.39488501984498908
40
-0.39488501984498908
40
-0.29878761870505999
40
-0.29878761870505999
40
-0.25073891813509519
40
-0.25073891813509519
40
-0.22671456785011299
40
-0.22671456785011299
40
-0.2147023927076219
40
-0.2147023927076219
40
-0.20869630513637641
40
-0.20869630513637641
40
-0.20569326135075361
40
-0.20569326135075361
40
-0.20269021756513081
40
-0.20269021756513081
40
-0.1943879452784949
40
-0.1943879452784949
40
-0.17660386048353999
40
-0.17660386048353999
40
-0.14049370360199601
40
-0.14049370360199601
40
-0.053156709377909298
40
0
40
0
40
0
40
0
41
1
41
1
41
1
41
1
41
0.94924211465297759
41
0.94924211465297759
41
1
41
0.94924211465297759
41
0.94924211465297759
41
1
41
1
41
1
41
1
41
1
41
1
41
1
41
1
41
1
41
1
41
1
41
1
41
1
41
1
41
1
41
1
41
1
41
1
41
1
41
1
41
1
41
1
41
1
41
1
41
1
41
1
41
1
41
1
41
1
41
1
41
1
41
1
41
1
41
1
41
1
41
1
41
1
41
1
41
1
41
1
41
1
41
1
41
1
41
1
41
1
41
1
41
1
41
1
41
1
41
1
41
1
41
1
41
1
41
1
41
1
41
1
41
1
41
1
41
1
41
1
41
1
41
1
41
1
41
1
41
1
41
1
41
1
41
1
41
1
41
1
41
1
41
1
41
1
41
1
10
-33.102440411236785
20
86.985119800032493
30
0
10
-32.815943674649986
20
86.575212785764307
30
0
10
-32.529446938063266
20
86.165305771496108
30
0
10
-32.242950201476255
20
85.755398757228591
30
0
10
-31.780998345309968
20
85.094458223131468
30
0
10
-31.101260941862279
20
84.660639171702869
30
0
10
-30.307244090703982
20
84.520000815964394
30
0
10
-29.513227239545685
20
84.379362460225934
30
0
10
-28.72583878956096
20
84.553320316785289
30
0
10
-28.064977258753565
20
85.015385186826379
30
0
10
-27.330335885430053
20
85.529035860784347
30
0
10
-26.595694512106576
20
86.042686534742273
30
0
10
-25.861053138783099
20
86.55633720870027
30
0
10
-25.804538124594956
20
86.595851693155609
30
0
10
-25.748023110406848
20
86.635366177611019
30
0
10
-25.450599606537452
20
86.843320410465935
30
0
10
-25.209691116856341
20
87.011760158865513
30
0
10
-23.184287908816579
20
88.427892928705546
30
0
10
-21.399793190457963
20
89.675585950145788
30
0
10
-18.723051112920075
20
91.547125482305901
30
0
10
-17.830803753740874
20
92.170971993025773
30
0
10
-16.492432714971876
20
93.10674175910583
30
0
10
-16.046309035382258
20
93.418665014466015
30
0
10
-15.377123515997688
20
93.886549897505901
30
0
10
-15.154061676202772
20
94.042511525185887
30
0
10
-14.819468916510594
20
94.27645396670583
30
0
10
-14.70793799661319
20
94.354434780545816
30
0
10
-14.540641616767083
20
94.471406001305795
30
0
10
-14.48487615681838
20
94.510396408225773
30
0
10
-14.401227966895256
20
94.568882018605919
30
0
10
-14.373345236920869
20
94.588377222065802
30
0
10
-14.331521141959378
20
94.617620027255839
30
0
10
-14.317579776972273
20
94.62736762898578
30
0
10
-14.296667729491439
20
94.641989031580692
30
0
10
-14.289697046997851
20
94.646862832445876
30
0
10
-14.275755682010676
20
94.656610434175818
30
0
10
-14.266336751785751
20
94.663195453916472
30
0
10
-14.26049757953276
20
94.667280438821834
30
0
10
-14.256563432263576
20
94.670042087335688
30
0
10
-14.243379272039469
20
94.67932856647883
30
0
10
-14.234137615166098
20
94.685890293719567
30
0
10
-14.206869300603771
20
94.705407098071092
30
0
10
-14.188872957368872
20
94.718489346338743
30
0
10
-14.145917925134306
20
94.750207531816514
30
0
10
-14.121001816373386
20
94.769006025824737
30
0
10
-14.062522737559462
20
94.814097021071703
30
0
10
-14.029043332733266
20
94.840672349029859
30
0
10
-13.947984960393676
20
94.906939823165771
30
0
10
-13.900632293059054
20
94.947293042203341
30
0
10
-13.782658048737595
20
95.052192650773449
30
0
10
-13.712729499067784
20
95.118417649183712
30
0
10
-13.308242579450145
20
95.527429787390346
30
0
10
-13.010101512404297
20
95.94007353443898
30
0
10
-12.564477016602389
20
96.868260828965603
30
0
10
-12.418444051265176
20
97.382824192958552
30
0
10
-12.314200809272364
20
98.425067071876683
30
0
10
-12.355904056184848
20
98.950910909190824
30
0
10
-12.547222210557578
20
99.720184860192248
30
0
10
-12.643499173059745
20
99.989645042006131
30
0
10
-12.817791626632662
20
100.36647573487029
30
0
10
-12.880844162157565
20
100.48757121486061
30
0
10
-12.981577080445277
20
100.6618432862541
30
0
10
-13.01618003411857
20
100.71870828260933
30
0
10
-13.069461816670689
20
100.80211703511202
30
0
10
-13.08745197748447
20
100.82960532915953
30
0
10
-13.114761633039187
20
100.87036102688727
30
0
10
-13.12391892197514
20
100.88386681223517
30
0
10
-13.137733483355269
20
100.90400580713583
30
0
10
-13.142351441921782
20
100.91069885885928
30
0
10
-13.149297728278491
20
100.92070845798945
30
0
10
-13.151616381823139
20
100.92403999466127
30
0
10
-13.156260087082039
20
100.93069306594734
30
0
10
-13.178088603598077
20
100.96192143091967
30
0
10
-13.243743957904961
20
101.05585824351748
30
0
10
-13.291959206823769
20
101.12484251524789
30
0
10
-13.443455105374476
20
101.34159622835695
30
0
10
-13.546735755006374
20
101.48936566973531
30
0
10
-13.859725282212274
20
101.93717741140708
30
0
10
-14.069434159786347
20
102.23721971170028
30
0
10
-14.786350554888479
20
103.2629523692418
30
0
10
-15.293558072416573
20
103.98864272649041
30
0
10
-16.054369348709194
20
105.07717826236272
30
0
10
-17.054264411824462
20
106.70080467710987
30
0
0
LWPOLYLINE
5
121
100
AcDbEntity
8
0
100
AcDbPolyline
90
8
70
1
43
0.0
10
26.036204080893768
20
22.648537804077815
10
38.214109471194782
20
34.843164117756857
42
0.41421356237313672
10
38.211198782472806
20
39.085803806428515
10
34.79516220628377
20
42.49715641081081
42
0.19873407332455906
10
32.675297706308939
20
43.37438122211401
10
23.913428892196293
20
43.374381222113968
42
0.41421356237308815
10
20.913428892196286
20
40.374381222114039
10
20.913428892197373
20
24.76840230405271
42
0.66842675494587833
0
CIRCLE
5
122
100
AcDbEntity
8
0
100
AcDbCircle
10
68.26712126801101
20
46.353584542580307
30
0
40
1.0000000000000142
210
0
220
-0
230
1
0
LWPOLYLINE
5
123
100
AcDbEntity
8
0
100
AcDbPolyline
90
11
70
1
43
0.0
10
23.08565512851839
20
117.72367300722622
42
-0.33451225300412818
10
20.913428892200262
20
120.60721086828507
10
20.913428892202756
20
149.26264980589383
42
-0.47933021024958683
10
26.990448951525181
20
154.14527489817911
42
-0.027609278087086502
10
37.79273177393226
20
151.12877265547436
42
-0.47121800664887981
10
40.527961542933539
20
143.91817750884763
42
0.30808216042875403
10
41.501162364829852
20
131.71164605754331
10
47.488947877887746
20
125.71563899081559
42
-0.41376166763029354
10
47.489310343032571
20
121.47627301576651
10
39.199146485499774
20
113.1718867016083
42
-0.32982544942518299
10
35.6691488211736
20
112.64171934626268
42
0.05218575976230129
0
LWPOLYLINE
5
124
100
AcDbEntity
8
0
100
AcDbPolyline
90
11
70
1
43
0.0
10
-18.442785222345538
20
-26.976879823413505
42
-0.27544895018990406
10
-14.939722537027148
20
-39.047069072202596
42
0.4429642261292327
10
-10.887999596876291
20
-45.246553326756512
42
0.0089064584439484829
10
-7.3030033443336251
20
-45.752256010576403
42
0.45051249581722447
10
-1.6929083988697258
20
-40.789617180526974
10
-1.6929083988667415
20
-12.528356688917146
42
0.37261491984238682
10
-4.2621495213156591
20
-9.5594432867756947
42
-0.044974994096859088
10
-15.647207567666612
20
-6.8459414515204209
42
0.3326804240744744
10
-19.060831258595456
20
-7.9713583210583927
10
-26.062643034715833
20
-17.989244715891903
42
0.41416347860908093
10
-25.322755995588864
20
-22.166503287592665
0
CIRCLE
5
125
100
AcDbEntity
8
0
100
AcDbCircle
10
-30.734614507526317
20
-20.367953693256471
30
0
40
1.4999999999999858
210
0
220
-0
230
1
0
LWPOLYLINE
5
126
100
AcDbEntity
8
0
100
AcDbPolyline
90
11
70
1
43
0.0
10
101.1124842677234
20
70.098338721737136
42
-0.45936950911027236
10
98.146926856998107
20
66.645051568068894
10
71.710906680186525
20
66.645051568067032
42
-0.35241862133400453
10
68.780288174348343
20
69.00358826183593
42
0.067841912038978422
10
62.726189156253078
20
85.53950953300351
42
-0.32888819546813441
10
63.255063322078158
20
89.06144935194439
10
71.32472403918004
20
97.144954234435403
42
-0.4146656015595922
10
75.570636881718514
20
97.145317259336394
10
81.501568471391693
20
91.206242179506617
42
0.26956467282385388
10
89.274093626709913
20
89.142975625205139
42
-0.4044751470532213
10
97.808224920852695
20
84.46327233467828
42
-0.0372237919943567
0
CIRCLE
5
127
100
AcDbEntity
8
0
100
AcDbCircle
10
-25.922109701912852
20
63.918300696802234
30
0
40
1.0000000000000142
210
0
220
-0
230
1
0
CIRCLE
5
128
100
AcDbEntity
8
0
100
AcDbCircle
10
0.7325422379202351
20
153.2905542518846
30
0
40
1.0000000000000142
210
0
220
-0
230
1
0
SPLINE
5
129
100
AcDbEntity
8
0
100
AcDbSpline
70
4
71
3
72
35
73
31
74
0
42
0.000000001
43
0.0000000001
44
0.0000000001
40
0
40
0
40
0
40
0
40
1.5673449813803182
40
1.5673449813803182
40
1.5673449813803182
40
2.5673449813803182
40
2.5673449813803182
40
2.5673449813803182
40
3.1809633321535231
40
3.1809633321535231
40
3.1809633321535231
40
3.8708141621553147
40
3.8708141621553147
40
3.8708141621553147
40
5.4416104889502108
40
5.4416104889502108
40
5.4416104889502108
40
6.4416104889502135
40
6.4416104889502135
40
6.4416104889502135
40
7.402398633206662
40
7.402398633206662
40
7.402398633206662
40
7.5710415722567461
40
7.5710415722567461
40
7.5710415722567461
40
9.1416790762313429
40
9.1416790762313429
40
9.1416790762313429
40
10.005027456136881
40
10.005027456136881
40
10.005027456136881
40
10.005027456136881
41
1
41
0.8055506417277335
41
0.8055506417277335
41
1
41
1
41
1
41
1
41
0.96886807254500684
41
0.96886807254500684
41
1
41
1
41
1
41
1
41
0.80473785412436494
41
0.80473785412436494
41
0.99999999999999978
41
1
41
1
41
1
41
0.9245419197396918
41
0.9245419197396918
41
1
41
1
41
1
41
1
41
0.80477528753569316
41
0.80477528753569316
41
0.99999999999999978
41
1
41
1
41
1
10
-8.8621073507725612
20
19.509228928856697
30
0
10
-7.4257976402165937
20
18.505007892766425
30
0
10
-5.6995571197056449
20
18.807562250376563
30
0
10
-4.6903848735504283
20
20.240397499647269
30
0
10
-3.8736562273032504
20
21.399998943197414
30
0
10
-3.0569275810560015
20
22.559600386747487
30
0
10
-2.240198934808717
20
23.719201830297703
30
0
10
-1.8812004726962073
20
24.228912291431595
30
0
10
-1.6929083988652494
20
24.823244475416839
30
0
10
-1.6929083988652494
20
25.446690262946401
30
0
10
-1.6929083988642191
20
29.296056074261951
30
0
10
-1.6929083988642191
20
33.145421885576653
30
0
10
-1.6929083988642191
20
36.994787696891422
30
0
10
-1.6929083988642188
20
38.752147009771903
30
0
10
-2.9355490859835243
20
39.994787696891279
30
0
10
-4.6929083988643328
20
39.994787696891251
30
0
10
-9.6902398233267206
20
39.994787696891038
30
0
10
-14.687571247789322
20
39.994787696891038
30
0
10
-19.684902672251958
20
39.994787696891038
30
0
10
-20.684594886930618
20
39.994787696891891
30
0
10
-21.571134818552942
20
39.532801253662115
30
0
10
-22.143832663176291
20
38.713410197539901
30
0
10
-23.123222522239608
20
37.312141974674788
30
0
10
-24.102612381303281
20
35.910873751810314
30
0
10
-25.082002240367167
20
34.509605528945841
30
0
10
-26.088621218203158
20
33.069379072525308
30
0
10
-25.782151826802249
20
31.339173730825092
30
0
10
-24.342085262610524
20
30.332326024858087
30
0
10
-19.182092625331038
20
26.724626992857008
30
0
10
-14.022099988051622
20
23.116927960856497
30
0
10
-8.8621073507724191
20
19.509228928856341
30
0
0
CIRCLE
5
130
100
AcDbEntity
8
0
100
AcDbCircle
10
-7.124047007918044
20
13.413320338894987
30
0
40
1.4999999999999858
210
0
220
-0
230
1
0
CIRCLE
5
131
100
AcDbEntity
8
0
100
AcDbCircle
10
46.53238725564222
20
-38.492029574079979
30
0
40
1.9999999999999574
210
0
220
-0
230
1
0
CIRCLE
5
132
100
AcDbEntity
8
0
100
AcDbCircle
10
0.73254223792027062
20
-43.271121461703089
30
0
40
1.0000000000000142
210
0
220
-0
230
1
0
CIRCLE
5
133
100
AcDbEntity
8
0
100
AcDbCircle
10
46.532387255642185
20
148.51146236426155
30
0
40
1.9999999999999929
210
0
220
-0
230
1
0
CIRCLE
5
134
100
AcDbEntity
8
0
100
AcDbCircle
10
18.487978255412685
20
-43.271121461703089
30
0
40
1.0000000000000142
210
0
220
-0
230
1
0
CIRCLE
5
135
100
AcDbEntity
8
0
100
AcDbCircle
10
0.73254223792027062
20
27.819252709822546
30
0
40
1.0000000000000142
210
0
220
-0
230
1
0
CIRCLE
5
136
100
AcDbEntity
8
0
100
AcDbCircle
10
52.358026720460344
20
-13.046200329199511
30
0
40
1.4999999999999858
210
0
220
-0
230
1
0
SPLINE
5
137
100
AcDbEntity
8
0
100
AcDbSpline
70
0
71
3
72
227
73
223
74
0
42
0.000000001
43
0.0000000001
44
0.0000000001
40
0
40
0
40
0
40
0
40
0.53547163546189358
40
0.53547163546189358
40
0.71258741128247127
40
0.71258741128247127
40
0.81342422650583035
40
0.81342422650583035
40
0.87621903564683945
40
0.87621903564683945
40
0.94268086089941117
40
0.94268086089941117
40
0.97951345338325235
40
0.97951345338325235
40
0.99336394004546436
40
0.99336394004546436
40
0.99910079258579598
40
0.99910079258579598
40
1.003661379862048
40
1.003661379862048
40
1.0082219671383001
40
1.0082219671383001
40
1.0173431416908041
40
1.0173431416908041
40
1.0355854907958131
40
1.0355854907958131
40
1.0720701890058308
40
1.0720701890058308
40
1.1450395854258659
40
1.1450395854258659
40
1.2909783782659361
40
1.2909783782659361
40
1.5828559639460769
40
1.5828559639460769
40
1.8044537022258491
40
1.8044537022258491
40
2.0260514405056216
40
2.0260514405056216
40
2.1383348742131338
40
2.1383348742131338
40
2.3629017416281592
40
2.3629017416281592
40
2.4288387331770269
40
2.4288387331770269
40
2.5607127162747605
40
2.5607127162747605
40
2.5665441968568561
40
2.5665441968568561
40
2.5697235762605919
40
2.5697235762605919
40
2.5709344960176241
40
2.5709344960176241
40
2.5733563355316891
40
2.5733563355316891
40
2.5757781750457527
40
2.5757781750457527
40
2.5806218540738808
40
2.5806218540738808
40
2.590309212130137
40
2.590309212130137
40
2.6096839282426507
40
2.6096839282426507
40
2.648433360467676
40
2.648433360467676
40
2.7259322249177287
40
2.7259322249177287
40
2.8809299538178319
40
2.8809299538178319
40
2.8900701366932928
40
2.8900701366932928
40
2.8959451017659936
40
2.8959451017659936
40
2.8995457212195879
40
2.8995457212195879
40
2.900479252989506
40
2.900479252989506
40
2.9014127847594238
40
2.9014127847594238
40
2.9032798482992588
40
2.9032798482992588
40
2.9070139753789288
40
2.9070139753789288
40
2.9144822295382684
40
2.9144822295382684
40
2.9294187378569503
40
2.9294187378569503
40
2.9592917544943118
40
2.9592917544943118
40
3.0190377877690353
40
3.0190377877690353
40
3.1385298543184819
40
3.1385298543184819
40
3.3775139874173736
40
3.3775139874173736
40
3.6962970422916182
40
3.6962970422916182
40
3.9378929350454248
40
3.9378929350454248
40
4.1794888277992319
40
4.1794888277992319
40
4.2894066735688217
40
4.2894066735688217
40
4.509242365108002
40
4.509242365108002
40
4.571743347742089
40
4.571743347742089
40
4.5831396284228871
40
4.5831396284228871
40
4.5923128262963582
40
4.5923128262963582
40
4.5969345526592651
40
4.5969345526592651
40
4.5998549030363671
40
4.5998549030363671
40
4.6005369927040913
40
4.6005369927040913
40
4.6016130645000199
40
4.6016130645000199
40
4.6026891362959503
40
4.6026891362959503
40
4.6048412798878093
40
4.6048412798878093
40
4.6091455670715282
40
4.6091455670715282
40
4.6177541414389669
40
4.6177541414389669
40
4.6349712901738451
40
4.6349712901738451
40
4.6694055876435989
40
4.6694055876435989
40
4.7382741825831083
40
4.7382741825831083
40
4.876011372462127
40
4.876011372462127
40
4.8775628610471937
40
4.8775628610471937
40
4.8781040944311833
40
4.8781040944311833
40
4.8786453278151738
40
4.8786453278151738
40
4.8797277945831556
40
4.8797277945831556
40
4.8818927281191167
40
4.8818927281191167
40
4.8862225951910414
40
4.8862225951910414
40
4.8948823293348882
40
4.8948823293348882
40
4.9122017976225809
40
4.9122017976225809
40
4.9468407341979672
40
4.9468407341979672
40
5.0161186073487443
40
5.0161186073487443
40
5.154674353650293
40
5.154674353650293
40
5.4317858462533941
40
5.4317858462533941
40
5.692659639100528
40
5.692659639100528
40
5.9123365241303931
40
5.9123365241303931
40
6.1320134091602601
40
6.1320134091602601
40
6.596329981815594
40
6.596329981815594
40
6.596329981815594
40
6.8846823400094594
40
6.8846823400094594
40
6.9037268111490819
40
6.9037268111490819
40
6.9200581854451002
40
6.9200581854451002
40
6.9308143387202215
40
6.9308143387202215
40
6.9326273005632535
40
6.9326273005632535
40
6.9344402624062846
40
6.9344402624062846
40
6.9380661860923478
40
6.9380661860923478
40
6.9453180334644768
40
6.9453180334644768
40
6.959821728208734
40
6.959821728208734
40
6.9888291176972457
40
6.9888291176972457
40
7.0468438966742726
40
7.0468438966742726
40
7.1628734546283219
40
7.1628734546283219
40
7.3949325705364224
40
7.3949325705364224
40
7.7783223067004368
40
7.7783223067004368
40
8.161712042864453
40
8.161712042864453
40
8.2535465340142551
40
8.2535465340142551
40
8.4372155163138576
40
8.4372155163138576
40
8.4701376597894225
40
8.4701376597894225
40
8.490539761460397
40
8.490539761460397
40
8.500308907961367
40
8.500308907961367
40
8.5066978081084628
40
8.5066978081084628
40
8.5199854925622791
40
8.5199854925622791
40
8.5465608614699082
40
8.5465608614699082
40
8.5997115992851665
40
8.5997115992851665
40
8.7060130749156812
40
8.7060130749156812
40
8.9186160261767125
40
8.9186160261767125
40
9.3438219286987749
40
9.3438219286987749
40
9.5018758776000052
40
9.5018758776000052
40
9.5018758776000052
40
9.5018758776000052
10
-41.361588345508515
20
-10.342288208155086
30
0
10
-39.97391520974201
20
-11.31252929081251
30
0
10
-38.586242073975043
20
-12.282770373469791
30
0
10
-36.739573936886245
20
-13.573934154375511
30
0
10
-36.280578935564307
20
-13.894856852623807
30
0
10
-35.560265630311818
20
-14.398489547620148
30
0
10
-35.298947326381516
20
-14.581199544368548
30
0
10
-34.874896463077754
20
-14.87768980429296
30
0
10
-34.712163903704294
20
-14.991470067469113
30
0
10
-34.377195723713037
20
-15.2256749974587
30
0
10
-34.204960103095132
20
-15.346099664271637
30
0
10
-33.937272929630034
20
-15.533262682926381
30
0
10
-33.841821376782875
20
-15.600001034768045
30
0
10
-33.710476329330845
20
-15.691835601393809
30
0
10
-33.674582834726259
20
-15.716931816178263
30
0
10
-33.623822303985733
20
-15.752422848635579
30
0
10
-33.608955267849829
20
-15.762817666309008
30
0
10
-33.58226948347891
20
-15.781475982631594
30
0
10
-33.582820280436749
20
-15.781087583462199
30
0
10
-33.576730432307968
20
-15.785313235972698
30
0
10
-33.573679475499816
20
-15.787420217168862
30
0
10
-33.564508600749008
20
-15.793723482085102
30
0
10
-33.55837067800163
20
-15.797902086926516
30
0
10
-33.539885659510524
20
-15.810366045356563
30
0
10
-33.527467305936653
20
-15.818579539277469
30
0
10
-33.489933643757226
20
-15.842923582360218
30
0
10
-33.464539615254054
20
-15.858757626267863
30
0
10
-33.387298468931306
20
-15.905003981513008
30
0
10
-33.334390525751516
20
-15.934159158658918
30
0
10
-33.171936952976324
20
-16.016081899186805
30
0
10
-33.058639911900798
20
-16.063276658978882
30
0
10
-32.70877343709671
20
-16.179388871680462
30
0
10
-32.462201686765724
20
-16.222219813146754
30
0
10
-32.032841079365753
20
-16.2331422143256
30
0
10
-31.850249831187512
20
-16.21721038316247
30
0
10
-31.495809269605815
20
-16.147637835789528
30
0
10
-31.318686122454125
20
-16.092687322033914
30
0
10
-31.062177305012
20
-15.979920503316993
30
0
10
-30.97768725455591
20
-15.936938283057192
30
0
10
-30.732089693326401
20
-15.793815875481076
30
0
10
-30.579007585477243
20
-15.679352458495561
30
0
10
-30.401882283099653
20
-15.512817796736176
30
0
10
-30.363057150928725
20
-15.473803731632518
30
0
10
-30.251006482105254
20
-15.353577609438691
30
0
10
-30.182228719925845
20
-15.269177567721375
30
0
10
-30.117124474720853
20
-15.177985661475422
30
0
10
-30.114379988400017
20
-15.174118194227422
30
0
10
-30.11015856235737
20
-15.168133489318354
30
0
10
-30.108672808471653
20
-15.166020188892677
30
0
10
-30.106626334523234
20
-15.163099729050646
30
0
10
-30.106062423369337
20
-15.162293977324968
30
0
10
-30.104372314914514
20
-15.159876008737729
30
0
10
-30.077895668592838
20
-15.121994272287882
30
0
10
-30.049766117794903
20
-15.081747739927369
30
0
10
-30.035701342396166
20
-15.061624473747148
30
0
10
-29.993507016199317
20
-15.001254675205988
30
0
10
-29.965377465401417
20
-14.961008142845547
30
0
10
-29.880988813007825
20
-14.840268545763653
30
0
10
-29.824729711412274
20
-14.759775481042272
30
0
10
-29.65595240662509
20
-14.518296286878556
30
0
10
-29.543434203433634
20
-14.357310157436007
30
0
10
-29.205879593859407
20
-13.874351769108291
30
0
10
-28.980843187476566
20
-13.552379510223194
30
0
10
-28.3057339683279
20
-12.586462733568258
30
0
10
-27.855661155562217
20
-11.942518215798064
30
0
10
-26.505442717265133
20
-10.010684662487694
30
0
10
-25.605297091733625
20
-8.7227956269476614
30
0
10
-24.652070071459846
20
-7.3589600508247521
30
0
10
-24.59898867671793
20
-7.2830135102418758
30
0
10
-24.511788561992738
20
-7.1582513956824734
30
0
10
-24.477669842009462
20
-7.1094358217060893
30
0
10
-24.422640610154147
20
-7.0307024008789831
30
0
10
-24.401730098281824
20
-7.0007845540284031
30
0
10
-24.375398122850314
20
-6.9631099139697206
30
0
10
-24.365759217062859
20
-6.9493190454331177
30
0
10
-24.364894543015225
20
-6.9480817845463783
30
0
10
-24.364462443885344
20
-6.9474628978737663
30
0
10
-24.36316686142753
20
-6.9456054699135628
30
0
10
-24.362304093033629
20
-6.9443661606831775
30
0
10
-24.359718657600098
20
-6.9406451672151981
30
0
10
-24.35799886031333
20
-6.9381604171872802
30
0
10
-24.352851027403943
20
-6.9306939524031641
30
0
10
-24.349434550810933
20
-6.9257000227294618
30
0
10
-24.339231993828534
20
-6.9106697696907737
30
0
10
-24.332492787616218
20
-6.9005849788405449
30
0
10
-24.312467710844423
20
-6.870140028468672
30
0
10
-24.29937440773891
20
-6.8495892363896083
30
0
10
-24.260904264504859
20
-6.7872026793804174
30
0
10
-24.236337710753233
20
-6.7446318933444793
30
0
10
-24.166178362249013
20
-6.6142376261319846
30
0
10
-24.124137554100926
20
-6.5237206772619238
30
0
10
-24.014256146726325
20
-6.2439209756640857
30
0
10
-23.962920251102418
20
-6.046306471628089
30
0
10
-23.900783259828131
20
-5.5788118040367074
30
0
10
-23.909696264740958
20
-5.3073098492753878
30
0
10
-23.9949149143618
20
-4.8573885256100091
30
0
10
-24.053804866930264
20
-4.6694371914272104
30
0
10
-24.219942532798839
20
-4.3023196754193727
30
0
10
-24.32676558262493
20
-4.1262357050303855
30
0
10
-24.511250703428225
20
-3.89294701655297
30
0
10
-24.573014856029225
20
-3.8232362266797715
30
0
10
-24.768700056192614
20
-3.6256573117305813
30
0
10
-24.913067747362305
20
-3.5095252998414317
30
0
10
-25.108576417059396
20
-3.3841939597530946
30
0
10
-25.152486028708338
20
-3.3579307529074676
30
0
10
-25.204972814897104
20
-3.3286607609941576
30
0
10
-25.213083268657144
20
-3.3241968635344854
30
0
10
-25.227749432411031
20
-3.3162303605485199
30
0
10
-25.234299803378626
20
-3.3127100977127277
30
0
10
-25.244164523689747
20
-3.3074651413422806
30
0
10
-25.24747188688373
20
-3.3057161758916642
30
0
10
-25.2528728703399
20
-3.3028755652029851
30
0
10
-25.254965098253557
20
-3.301778957185082
30
0
10
-25.257547119170241
20
-3.3004302905264105
30
0
10
-25.258036051312374
20
-3.3001751125906686
30
0
10
-25.259296455463769
20
-3.2995178272259018
30
0
10
-25.283401956198048
20
-3.2869545207980799
30
0
10
-25.325044344906544
20
-3.2652129658161932
30
0
10
-25.345860479446998
20
-3.2543306186284049
30
0
10
-25.408293646109001
20
-3.2216488886077776
30
0
10
-25.449895441260111
20
-3.1998148172757546
30
0
10
-25.574639419152021
20
-3.1341740159080622
30
0
10
-25.657720194130036
20
-3.0902286978288096
30
0
10
-25.906713217746145
20
-2.9578397489835062
30
0
10
-26.072376161680566
20
-2.8688431128981939
30
0
10
-26.568338532405349
20
-2.599652435853077
30
0
10
-26.897611437955042
20
-2.417257456286368
30
0
10
-27.88109220930103
20
-1.8613650131888626
30
0
10
-28.530960978501234
20
-1.4791573908650157
30
0
10
-30.461394314968047
20
-0.29856201973403884
30
0
10
-31.722761708214158
20
0.53383798571273289
30
0
10
-35.416311985831683
20
3.1586369138392989
30
0
10
-37.75739631192593
20
5.079142784768873
30
0
10
-39.970576665165254
20
7.1641179892680462
30
0
10
-39.995209253572241
20
7.1873596458387645
30
0
10
-40.02840882945172
20
7.2187330975564912
30
0
10
-40.04003799252267
20
7.2297307550650736
30
0
10
-40.040673464237635
20
7.2303316526573091
30
0
10
-40.040991297108164
20
7.2306320352801201
30
0
10
-40.041945086650657
20
7.2315329843651277
30
0
10
-40.042581334254805
20
7.2321333520443254
30
0
10
-40.044491239940214
20
7.2339336578445845
30
0
10
-40.04576606089536
20
7.2351327987280989
30
0
10
-40.049595168356227
20
7.2387270156035122
30
0
10
-40.052154099483133
20
7.2411188858150943
30
0
10
-40.059849415205733
20
7.2482815388954513
30
0
10
-40.065004322554145
20
7.2530393641258506
30
0
10
-40.080542671476849
20
7.2672599367139235
30
0
10
-40.090999746498355
20
7.2766697793954727
30
0
10
-40.122661552491756
20
7.3046791612003936
30
0
10
-40.144156968971814
20
7.3230585214229471
30
0
10
-40.209770509947838
20
7.3772487105222062
30
0
10
-40.255017553810539
20
7.4121108842681416
30
0
10
-40.394930426455673
20
7.512388490740971
30
0
10
-40.493790705348331
20
7.5734753835653201
30
0
10
-40.803501889371532
20
7.7358782908717494
30
0
10
-41.027635215776534
20
7.8158553232998251
30
0
10
-41.471956301452551
20
7.9068384622229182
30
0
10
-41.691319524608161
20
7.9216826563400922
30
0
10
-42.082405826159146
20
7.8988655934337082
30
0
10
-42.258990488218018
20
7.8696489183122331
30
0
10
-42.61108265030245
20
7.770598420785273
30
0
10
-42.784162403145913
20
7.7008037201916402
30
0
10
-43.293183762767455
20
7.4254074464385234
30
0
10
-43.592217893271439
20
7.1532056274835121
30
0
10
-43.807125282299211
20
6.8457255241145099
30
0
10
-45.48172474696365
20
4.4497817698090181
30
0
10
-47.156324211623328
20
2.0538380154999736
30
0
10
-48.941523989647919
20
-0.50034783527197035
30
0
10
-49.052124303010913
20
-0.65858993173685931
30
0
10
-49.257568684321029
20
-0.95253077708237655
30
0
10
-49.352412752268648
20
-1.0882295259634311
30
0
10
-49.509722924634829
20
-1.313302048033993
30
0
10
-49.572189029052858
20
-1.4026758212235713
30
0
10
-49.645183866271942
20
-1.5071136453257772
30
0
10
-49.643148439118647
20
-1.5042018713161731
30
0
10
-49.644704943669957
20
-1.5064347680546497
30
0
10
-49.64548254703363
20
-1.5075522288210585
30
0
10
-49.647813400975771
20
-1.510907646599069
30
0
10
-49.649364695406142
20
-1.5131486391026705
30
0
10
-49.654010678696743
20
-1.5198837444957469
30
0
10
-49.657097467591242
20
-1.5243899854459819
30
0
10
-49.666325629832251
20
-1.5379571013804316
30
0
10
-49.672434799220362
20
-1.5470663723493949
30
0
10
-49.69062863579591
20
-1.5745867108950229
30
0
10
-49.702579636818456
20
-1.5931903518756663
30
0
10
-49.737858884900312
20
-1.649761385022277
30
0
10
-49.760613382290053
20
-1.6884896888582723
30
0
10
-49.826267346847501
20
-1.8076082564788898
30
0
10
-49.866554399545038
20
-1.890945730646667
30
0
10
-49.974496184214026
20
-2.1513863618023699
30
0
10
-50.029077065318432
20
-2.3391186575350709
30
0
10
-50.113235613363436
20
-2.8581772796130345
30
0
10
-50.101284683597846
20
-3.2032996198114638
30
0
10
-49.940965967412438
20
-3.8572017158695537
30
0
10
-49.79333937001023
20
-4.1640451000128742
30
0
10
-49.558030356751921
20
-4.4824160639887545
30
0
10
-49.510222941586761
20
-4.5411814929087946
30
0
10
-49.361182205808021
20
-4.7086458421905952
30
0
10
-49.254351745742042
20
-4.8084308567659839
30
0
10
-49.123868384511944
20
-4.9116120752369774
30
0
10
-49.103911204804902
20
-4.9269043296513537
30
0
10
-49.071418187529154
20
-4.9510421026930551
30
0
10
-49.05894631280983
20
-4.9601276877275957
30
0
10
-49.040450280142522
20
-4.9733433633917379
30
0
10
-49.034453349459817
20
-4.9775883032369883
30
0
10
-49.02452191804624
20
-4.9845530105988622
30
0
10
-49.004925166227622
20
-4.9982493708090381
30
0
10
-48.954658261987731
20
-5.0333947915579991
30
0
10
-48.92071279962444
20
-5.057128649357896
30
0
10
-48.818876412534529
20
-5.128330222758084
30
0
10
-48.750985487807839
20
-5.1757979383583752
30
0
10
-48.547312713627875
20
-5.3182010851586803
30
0
10
-48.411530864174637
20
-5.4131365163587652
30
0
10
-48.00418531581478
20
-5.6979428099595175
30
0
10
-47.73262161690802
20
-5.8878136723597585
30
0
10
-46.91793052018852
20
-6.4574262595609788
30
0
10
-46.374803122375639
20
-6.837167984361745
30
0
10
-44.745420928936426
20
-7.9763931587639014
30
0
10
-43.65916613331045
20
-8.7358766083653627
30
0
10
-42.169137874185338
20
-9.7776688350148966
30
0
10
-41.765364410686132
20
-10.05997761206304
30
0
10
-41.361590947187032
20
-10.342286389111113
30
0
0
CIRCLE
5
138
100
AcDbEntity
8
0
100
AcDbCircle
10
-25.922109701912852
20
46.101132093379306
30
0
40
1.0000000000000142
210
0
220
-0
230
1
0
CIRCLE
5
139
100
AcDbEntity
8
0
100
AcDbCircle
10
23.354352874167859
20
16.00945046456685
30
0
40
1.4999999999999858
210
0
220
-0
230
1
0
CIRCLE
5
140
100
AcDbEntity
8
0
100
AcDbCircle
10
18.487978255412649
20
153.2905542518846
30
0
40
1.0000000000000142
210
0
220
-0
230
1
0
CIRCLE
5
141
100
AcDbEntity
8
0
100
AcDbCircle
10
18.487978255412685
20
-7.7259343759402732
30
0
40
1.0000000000000142
210
0
220
-0
230
1
0
CIRCLE
5
142
100
AcDbEntity
8
0
100
AcDbCircle
10
52.358026720460309
20
123.065633119381
30
0
40
1.4999999999999858
210
0
220
-0
230
1
0
CIRCLE
5
143
100
AcDbEntity
8
0
100
AcDbCircle
10
-30.718361781601686
20
80.109734926490205
30
0
40
1.4999999999999858
210
0
220
-0
230
1
0
CIRCLE
5
144
100
AcDbEntity
8
0
100
AcDbCircle
10
-20.325203311565581
20
154.1394386012897
30
0
40
1.9999999999999929
210
0
220
-0
230
1
0
CIRCLE
5
145
100
AcDbEntity
8
0
100
AcDbCircle
10
-30.734614507526352
20
130.38738648343804
30
0
40
1.4999999999999858
210
0
220
-0
230
1
0
CIRCLE
5
146
100
AcDbEntity
8
0
100
AcDbCircle
10
72.784817999836022
20
102.61079474973043
30
0
40
1.4999999999999858
210
0
220
-0
230
1
0
CIRCLE
5
147
100
AcDbEntity
8
0
100
AcDbCircle
10
0.15789029808704669
20
63.918300696802234
30
0
40
1.0000000000000142
210
0
220
-0
230
1
0
CIRCLE
5
148
100
AcDbEntity
8
0
100
AcDbCircle
10
-30.718361781601651
20
29.909697863691331
30
0
40
1.4999999999999858
210
0
220
-0
230
1
0
CIRCLE
5
149
100
AcDbEntity
8
0
100
AcDbCircle
10
-52.01528490009995
20
63.864995866045632
30
0
40
1.0000000000000142
210
0
220
-0
230
1
0
CIRCLE
5
150
100
AcDbEntity
8
0
100
AcDbCircle
10
-52.01528490009995
20
46.154436924135908
30
0
40
1.0000000000000142
210
0
220
-0
230
1
0
CIRCLE
5
151
100
AcDbEntity
8
0
100
AcDbCircle
10
43.700341025406253
20
73.509348629857726
30
0
40
1.4999999999999858
210
0
220
-0
230
1
0
CIRCLE
5
152
100
AcDbEntity
8
0
100
AcDbCircle
10
68.26712126801101
20
63.665848247601232
30
0
40
1.0000000000000142
210
0
220
-0
230
1
0
CIRCLE
5
153
100
AcDbEntity
8
0
100
AcDbCircle
10
18.487978255412649
20
82.20018008035899
30
0
40
1.0000000000000142
210
0
220
-0
230
1
0
CIRCLE
5
154
100
AcDbEntity
8
0
100
AcDbCircle
10
32.76712126801101
20
46.353584542580307
30
0
40
1.0000000000000142
210
0
220
-0
230
1
0
CIRCLE
5
155
100
AcDbEntity
8
0
100
AcDbCircle
10
23.354352874167823
20
94.009982325614686
30
0
40
1.4999999999999858
210
0
220
-0
230
1
0
LWPOLYLINE
5
156
100
AcDbEntity
8
0
100
AcDbPolyline
90
6
70
1
43
0.0
10
20.913428892199196
20
109.59989411589581
42
-0.51522689056067739
10
24.891864189870034
20
112.43585327784828
42
-0.024950399498260299
10
30.508466822001598
20
110.17873623189701
42
-0.52167062593840396
10
31.375530679891984
20
105.33484884085497
10
26.036566546040021
20
99.986725275762751
42
-0.66848860706049384
10
20.913428892198603
20
102.10622675083675
0
CIRCLE
5
157
100
AcDbEntity
8
0
100
AcDbCircle
10
32.767121268010975
20
63.665848247601232
30
0
40
1.0000000000000142
210
0
220
-0
230
1
0
LWPOLYLINE
5
158
100
AcDbEntity
8
0
100
AcDbPolyline
90
8
70
1
43
0.0
10
52.516021431178039
20
66.645051568065256
10
60.915026381633979
20
66.64505156806635
42
0.4911920139963169
10
63.817630432517156
20
70.403266395008956
42
0.044949555339667178
10
60.131134690569411
20
80.650205810224975
42
0.52120357626153002
10
55.287622922470376
20
81.504968308877665
10
50.392883777335491
20
76.601831836935929
42
0.19868963536022707
10
49.516021431177109
20
74.482330361861941
10
49.516021431177606
20
69.645051568064801
42
0.4142135623731818
0
CIRCLE
5
159
100
AcDbEntity
8
0
100
AcDbCircle
10
-80.211763097359523
20
-2.2487630944339365
30
0
40
1.9999999999999929
210
0
220
-0
230
1
0
CIRCLE
5
160
100
AcDbEntity
8
0
100
AcDbCircle
10
-7.1240470079180795
20
96.606112451286549
30
0
40
1.4999999999999858
210
0
220
-0
230
1
0
CIRCLE
5
161
100
AcDbEntity
8
0
100
AcDbCircle
10
-20.325203311565545
20
-44.120005811108186
30
0
40
1.9999999999999574
210
0
220
-0
230
1
0
SPLINE
5
162
100
AcDbEntity
8
0
100
AcDbSpline
70
0
71
3
72
186
73
182
74
0
42
0.000000001
43
0.0000000001
44
0.0000000001
40
-4.9588742769249707
40
-4.9588742769249707
40
-4.9588742769249707
40
-4.9588742769249707
40
-4.7893699837864157
40
-4.6198657840308641
40
-4.5351136833151209
40
-4.4503615822205189
40
-4.3656094808819494
40
-4.2808573794341225
40
-4.1961052779744108
40
-4.1537292272445967
40
-4.1113531765148448
40
-4.0689771257851621
40
-4.0266010750555754
40
-3.9842250243260757
40
-3.941848973596628
40
-3.9206609482319172
40
-3.8994729228672029
40
-3.8782848975024771
40
-3.8570968721377499
40
-3.8465028594553865
40
-3.8359088467730054
40
-3.8253148340906216
40
-3.8147207772485401
40
-3.8092959066980026
40
-3.8047307530792089
40
-3.8022528822625938
40
-3.800582444030788
40
-3.797235065100772
40
-3.793879236377748
40
-3.7905152453219744
40
-3.7871433712224243
40
-3.7803772013388923
40
-3.7735826234988812
40
-3.766762033922824
40
-3.7599180754025014
40
-3.7461716190633494
40
-3.7323616449694708
40
-3.7185080523725662
40
-3.7046327257507174
40
-3.6907577301984578
40
-3.6769030653618118
40
-3.6630894394647622
40
-3.649338272774119
40
-3.6356910246814702
40
-3.622174531892866
40
-3.608724855467198
40
-3.5952747717656135
40
-3.5885281915196647
40
-3.5817568789777914
40
-3.5681335560621443
40
-3.5406408914434184
40
-3.526804425328105
40
-3.5129390740846351
40
-3.4990638837810066
40
-3.485197878986956
40
-3.4713647992237249
40
-3.457585368240939
40
-3.4507217494176685
40
-3.4438794115642173
40
-3.4370606584851249
40
-3.430267875045673
40
-3.4235034861011164
40
-3.4201325622202132
40
-3.4167695799785669
40
-3.4134148148920667
40
-3.4100685366265231
40
-3.4084318410157022
40
-3.407302505121117
40
-3.4041612463048438
40
-3.3977016936009803
40
-3.3912421408971203
40
-3.3847825881932554
40
-3.3718634827855265
40
-3.3589443773778003
40
-3.3460252719700767
40
-3.3201870611546256
40
-3.2943488503391669
40
-3.2685106395237145
40
-3.242672428708266
40
-3.2168342178928122
40
-3.1651577962619051
40
-3.1134813746310042
40
-3.0618049530000984
40
-3.0101285313691988
40
-2.9584521097383005
40
-2.8550992664764974
40
-2.7517464232147004
40
-2.6483935799528986
40
-2.5450407366911043
40
-2.4416878934293127
40
-2.3383350501675144
40
-2.2349822069057215
40
-2.131629363643917
40
-2.0282765203821027
40
-1.9766000987511967
40
-1.9249236771203018
40
-1.873247255489408
40
-1.8215708338585284
40
-1.7698944122276501
40
-1.7182179905967541
40
-1.692379779781304
40
-1.6665415689658485
40
-1.6407033581503907
40
-1.6148651473349487
40
-1.5890269365195144
40
-1.5761078311117913
40
-1.5631887257040629
40
-1.5502696202963389
40
-1.5373505148886197
40
-1.5308909621847591
40
-1.5244314094808855
40
-1.5207275730447964
40
-1.5190565501348157
40
-1.5173833534818468
40
-1.5140305937338794
40
-1.5106695233881404
40
-1.5073003044493856
40
-1.5005388393214483
40
-1.493748679511508
40
-1.4869324419888668
40
-1.4800926753736314
40
-1.4663535615470602
40
-1.4525483220982405
40
-1.4386970228365459
40
-1.4317604183662049
40
-1.4109478365338382
40
-1.397089894683853
40
-1.3832706822768468
40
-1.3695113117993314
40
-1.3626601442066948
40
-1.3558329287997679
40
-1.3422826643922365
40
-1.3288246210192922
40
-1.3187490696652524
40
-1.3086565516221742
40
-1.2985176506033684
40
-1.2883061151337574
40
-1.2746014778745027
40
-1.2469989029440605
40
-1.2331336761789857
40
-1.2192569750555018
40
-1.2053878665842188
40
-1.1915481970111301
40
-1.1777594377698664
40
-1.1640424512203236
40
-1.1504173984396817
40
-1.1436446401014431
40
-1.1369019303772911
40
-1.1335424640054277
40
-1.1301913401628121
40
-1.1285189815756258
40
-1.1268488091096971
40
-1.1257701302319363
40
-1.1217043440892072
40
-1.1178107026538815
40
-1.1139170612185594
40
-1.1061297783479151
40
-1.0983424954772685
40
-1.0827679297359827
40
-1.0671933639947031
40
-1.0516187982534086
40
-1.0360442325121253
40
-1.0204696667708371
40
-0.98932053528826924
40
-0.95817140380569654
40
-0.92702227232313006
40
-0.86472400935799465
40
-0.80242574639285169
40
-0.74012748342771628
40
-0.67782922046257721
40
-0.61553095749743059
40
-0.58438182601486033
40
-0.55323269453228252
40
-0.52208356304970105
40
-0.49032359878851667
40
-0.45367943433133784
40
-0.40651843261146842
40
-0.34320533461850011
40
-0.2581047778772152
40
-0.14558142780938138
40
0
40
0
40
0
40
0
10
36.876335242815088
20
103.86186998434992
30
0
10
36.477152513883659
20
103.46200210623329
30
0
10
35.678791063730628
20
102.6622627890002
30
0
10
34.680833356794416
20
101.66259463260202
30
0
10
33.882467277882178
20
100.86286036634723
30
0
10
33.283692421449302
20
100.26305995409599
30
0
10
32.68491758013834
20
99.663259523300724
30
0
10
32.086142928716583
20
99.063458901221239
30
0
10
31.587164340338489
20
98.563624761708169
30
0
10
31.18798157033364
20
98.163757349528296
30
0
10
30.888594531457976
20
97.863856751832387
30
0
10
30.589207516575527
20
97.563956130185531
30
0
10
30.289820510800602
20
97.264055499448205
30
0
10
29.990433503585301
20
96.964154870148661
30
0
10
29.740944331961856
20
96.71423767801619
30
0
10
29.541352992849106
20
96.514303926112021
30
0
10
29.391659493323559
20
96.364353607408745
30
0
10
29.241965975469064
20
96.214403306905169
30
0
10
29.117221434346021
20
96.089444666465255
30
0
10
29.017425673598574
20
95.989477881061717
30
0
10
28.942579202331835
20
95.914502445175657
30
0
10
28.867731293816128
20
95.839528228975382
30
0
10
28.805061067887507
20
95.776743921539222
30
0
10
28.756578960619912
20
95.728191729762301
30
0
10
28.727229621038397
20
95.698766969428078
30
0
10
28.706685330375628
20
95.678235428974276
30
0
10
28.689142445376277
20
95.660443932846121
30
0
10
28.669749192044414
20
95.640368039462999
30
0
10
28.646757530265958
20
95.615923364955634
30
0
10
28.624041445206991
20
95.591111414903466
30
0
10
28.594098495730549
20
95.557508897479394
30
0
10
28.557404315530199
20
95.514612522300183
30
0
10
28.514660061874579
20
95.461796060289061
30
0
10
28.473216840682412
20
95.407624833975063
30
0
10
28.419692526501166
20
95.333561944065494
30
0
10
28.356356797096254
20
95.237897585951202
30
0
10
28.286570182999746
20
95.118724916986949
30
0
10
28.223313435731541
20
94.995475972203764
30
0
10
28.166876286542433
20
94.868721004143083
30
0
10
28.117633221521423
20
94.738997547653966
30
0
10
28.075685027257435
20
94.606953406292803
30
0
10
28.041141558415816
20
94.473208165009254
30
0
10
28.014139931042905
20
94.338443059759086
30
0
10
27.994732050312301
20
94.203380700943015
30
0
10
27.98268053425442
20
94.068473597230437
30
0
10
27.978060594312915
20
93.93376584504152
30
0
10
27.980333429698341
20
93.821574491514482
30
0
10
27.985783709000245
20
93.731838174286452
30
0
10
27.993639984376735
20
93.641697651513866
30
0
10
28.014135437094865
20
93.483326880521659
30
0
10
28.052609417378562
20
93.30379533199887
30
0
10
28.105648220465902
20
93.12755411604995
30
0
10
28.152815804760785
20
92.997158132945103
30
0
10
28.207184794945519
20
92.869492352434605
30
0
10
28.268661992689808
20
92.745211733663794
30
0
10
28.336747191704426
20
92.624798244539178
30
0
10
28.398758655604581
20
92.527969161677234
30
0
10
28.451321290183209
20
92.452917424104498
30
0
10
28.49210210731453
20
92.397973254281411
30
0
10
28.534220296869535
20
92.344348137731217
30
0
10
28.577615439217254
20
92.292088517872003
30
0
10
28.614833163017508
20
92.249665718862005
30
0
10
28.645186193374315
20
92.216450030284292
30
0
10
28.6682046086597
20
92.191932121528652
30
0
10
28.691493379153812
20
92.167785016707157
30
0
10
28.711053502913479
20
92.148039815496446
30
0
10
28.725536711533408
20
92.133709539485892
30
0
10
28.73960695539008
20
92.119934082709577
30
0
10
28.765143633424088
20
92.094890782127848
30
0
10
28.80337837926394
20
92.057420090222791
30
0
10
28.849507443868632
20
92.012201828151689
30
0
10
28.911014787972533
20
91.951912770227494
30
0
10
28.987898307770799
20
91.876550775983276
30
0
10
29.080158814173664
20
91.786116670460785
30
0
10
29.203172723978383
20
91.665537762644561
30
0
10
29.356940145114265
20
91.514814162344592
30
0
10
29.541461035952601
20
91.333945827206605
30
0
10
29.725981930682188
20
91.153077496027905
30
0
10
29.910502824370901
20
90.97220916379014
30
0
10
30.15653068298608
20
90.731051387842982
30
0
10
30.464065506130282
20
90.429604167782131
30
0
10
30.833107293956807
20
90.067867503763551
30
0
10
31.202149081769086
20
89.706130839730406
30
0
10
31.57119086958506
20
89.344394175701098
30
0
10
32.06324658667171
20
88.862078623660693
30
0
10
32.678316233030564
20
88.259184183610756
30
0
10
33.416399808660984
20
87.535710855550576
30
0
10
34.154483384291261
20
86.812237527490353
30
0
10
34.892566959921929
20
86.088764199430429
30
0
10
35.630650535552064
20
85.365290871370064
30
0
10
36.368734111182874
20
84.641817543310424
30
0
10
37.106817686812299
20
83.918344215249277
30
0
10
37.844901262445987
20
83.194870887192337
30
0
10
38.459970908809105
20
82.591976447146664
30
0
10
38.952026625897993
20
82.109660895108462
30
0
10
39.32106841371116
20
81.747924231076311
30
0
10
39.690110201528341
20
81.386187567048424
30
0
10
40.059151989318202
20
81.024450902992541
30
0
10
40.428193777199759
20
80.662714239031232
30
0
10
40.73572860015684
20
80.361267018776758
30
0
10
40.981756459156173
20
80.120109243227432
30
0
10
41.16627735168791
20
79.93924090979165
30
0
10
41.35079825078158
20
79.758372583131191
30
0
10
41.535319125338042
20
79.577504231136032
30
0
10
41.689086597104392
20
79.426780683256567
30
0
10
41.812100403646077
20
79.306201668526825
30
0
10
41.904361225394098
20
79.21576788949784
30
0
10
41.996620265233311
20
79.125332270630921
30
0
10
42.073508349104962
20
79.049974986031145
30
0
10
42.135006385527447
20
78.989676323560033
30
0
10
42.174600110215508
20
78.950913424168107
30
0
10
42.202725889917545
20
78.923252554277013
30
0
10
42.219647276101817
20
78.906954603485019
30
0
10
42.235829726580434
20
78.89157727813371
30
0
10
42.256288840884899
20
78.872523268802212
30
0
10
42.281190368465467
20
78.849948334195389
30
0
10
42.314918466757057
20
78.820198617305209
30
0
10
42.357975530526524
20
78.783753847115022
30
0
10
42.410972874366948
20
78.741306137638446
30
0
10
42.465309447073381
20
78.700151622774598
30
0
10
42.539580762759037
20
78.647008184993922
30
0
10
42.63549052691527
20
78.584142440356985
30
0
10
42.754951279727322
20
78.514949894474086
30
0
10
42.857851182790263
20
78.462761815045624
30
0
10
42.984018526299259
20
78.4052052828565
30
0
10
43.11339718092551
20
78.35470320775292
30
0
10
43.267755101988037
20
78.30652478654018
30
0
10
43.401727296099324
20
78.272635730030146
30
0
10
43.514422983070666
20
78.250611616210776
30
0
10
43.604841309642168
20
78.236784046907729
30
0
10
43.694917622933467
20
78.225568836627119
30
0
10
43.807360760104181
20
78.216081806497243
30
0
10
43.930981375492983
20
78.212382903077525
30
0
10
44.043079955557083
20
78.214404210893051
30
0
10
44.143956245525011
20
78.220362988299868
30
0
10
44.244954243532604
20
78.230475027066561
30
0
10
44.357402164562245
20
78.246254071350791
30
0
10
44.526168712224141
20
78.278391826534758
30
0
10
44.703805492633037
20
78.327675070957369
30
0
10
44.877019978429331
20
78.391357215136978
30
0
10
45.004445579275476
20
78.446335210041681
30
0
10
45.12849927854127
20
78.508349341999221
30
0
10
45.248633520091666
20
78.577060582214585
30
0
10
45.364386610652829
20
78.651988655435531
30
0
10
45.475264436630063
20
78.73274617289907
30
0
10
45.563425532201478
20
78.804669478803135
30
0
10
45.63114370725124
20
78.864672503958303
30
0
10
45.672225778488666
20
78.903106640607476
30
0
10
45.704348307845102
20
78.934399582222724
30
0
10
45.724101507829573
20
78.954165366530788
30
0
10
45.739713282334442
20
78.970106224186111
30
0
10
45.749956879351039
20
78.980701649347068
30
0
10
45.765643689095619
20
78.997130808821922
30
0
10
45.786442645621328
20
79.018926215680224
30
0
10
45.813723089165279
20
79.047506561396133
30
0
10
45.8495675519206
20
79.085061378180569
30
0
10
45.894373539714266
20
79.132004513174493
30
0
10
45.966062891396611
20
79.207113744894485
30
0
10
46.055674659507737
20
79.301000210517202
30
0
10
46.163208747583298
20
79.413664001001166
30
0
10
46.270742844676498
20
79.526327782982293
30
0
10
46.378276939357477
20
79.638991567237753
30
0
10
46.521655733106719
20
79.789209945452043
30
0
10
46.700879225014482
20
79.976982918482435
30
0
10
46.915947415379904
20
80.202310486047907
30
0
10
47.202705002722745
20
80.502747242620018
30
0
10
47.561151985294927
20
80.878293189876857
30
0
10
47.991288371808167
20
81.32894831945768
30
0
10
48.421424731185034
20
81.779603475081245
30
0
10
48.851561191680908
20
82.23025853366137
30
0
10
49.210007927644668
20
82.605804717587205
30
0
10
49.496766020534793
20
82.906240988987761
30
0
10
49.71183266651483
20
83.131570038693553
30
0
10
49.928312518269173
20
83.358364892399294
30
0
10
50.157409944106561
20
83.598437803485254
30
0
10
50.424101653704767
20
83.876409575483578
30
0
10
50.764898887424899
20
84.229035005100087
30
0
10
51.219329386948651
20
84.696461604710564
30
0
10
51.826973327870896
20
85.318799395503206
30
0
10
52.627426210129862
20
86.136144190502705
30
0
10
53.230053275686089
20
86.750181403450512
30
0
10
53.570074607638922
20
87.096409436312413
30
0
0
SPLINE
5
163
100
AcDbEntity
8
0
100
AcDbSpline
70
4
71
3
72
14
73
10
74
0
42
0.000000001
43
0.0000000001
44
0.0000000001
40
-3.1628074483884148
40
-3.1628074483884148
40
-3.1628074483884148
40
-3.1628074483884148
40
-1.6951719272773391
40
-1.6951719272773391
40
-1.6951719272773391
40
-1.414404737687496
40
-1.414404737687496
40
-1.414404737687496
40
0
40
0
40
0
40
0
41
1
41
0.82841535291953428
41
0.82841535291953428
41
0.99752113925026042
41
0.99156161850060365
41
0.9921569370717982
41
1
41
0.84012166421967305
41
0.84012166421967305
41
1
10
53.570074607638922
20
87.096409436312413
30
0
10
54.744709333043815
20
88.2074546402267
30
0
10
54.87294241922708
20
89.819206624520888
30
0
10
53.888765379678567
20
91.102009702976702
30
0
10
49.473275732550377
20
96.857278810672923
30
0
10
45.374224088515334
20
100.82023955465607
30
0
10
40.762418304816244
20
104.16971903356044
30
0
10
39.510954799844953
20
105.07863660838878
30
4.4408920985006262e-15
10
37.969081669040385
20
104.95649197850126
30
4.4408920985006262e-15
10
36.876335242815088
20
103.86186998435014
30
0
0
LWPOLYLINE
5
164
100
AcDbEntity
8
0
100
AcDbPolyline
90
8
70
1
43
0.0
10
38.214109471194746
20
75.176268672424754
42
-0.41421356237309503
10
38.211198782472806
20
70.933628983753024
10
34.795162206283727
20
67.522276379370737
42
-0.19873407332455403
10
32.675297706308903
20
66.64505156806753
10
23.913428892196258
20
66.64505156806753
42
-0.41421356237310897
10
20.913428892196286
20
69.645051568067714
10
20.913428892197281
20
85.251030486128784
42
-0.66842675494589587
10
26.03620408089407
20
87.37089498610348
0
CIRCLE
5
165
100
AcDbEntity
8
0
100
AcDbCircle
10
-58.101785694655241
20
66.442410721716328
30
0
40
1.4999999999999858
210
0
220
-0
230
1
0
CIRCLE
5
166
100
AcDbEntity
8
0
100
AcDbCircle
10
18.487978255412685
20
27.819252709822546
30
0
40
1.0000000000000142
210
0
220
-0
230
1
0
LWPOLYLINE
5
167
100
AcDbEntity
8
0
100
AcDbPolyline
90
12
70
1
43
0.0
10
2.5177563931960734
20
50.601132093379334
10
2.5177563931961449
20
52.437556017460935
42
0.4278056456886366
10
2.5177563931960023
20
57.584192926078174
10
2.5177563931960378
20
59.418300696802206
42
0.41421356237309503
10
0.51775639319604494
20
61.418300696802191
10
-52.357004193021339
20
61.418300696802234
42
0.41421356237312101
10
-54.357004193021332
20
59.418300696802206
10
-54.357004193021368
20
57.584192926078103
42
0.4278056456886084
10
-54.357004193021332
20
52.437556017460722
10
-54.357004193021332
20
50.601132093379334
42
0.4142135623730846
10
-52.357004193021375
20
48.601132093379306
10
0.51775639319604505
20
48.601132093379377
42
0.41421356237309503
0
CIRCLE
5
168
100
AcDbEntity
8
0
100
AcDbCircle
10
0.15789029808704669
20
46.101132093379306
30
0
40
1.0000000000000142
210
0
220
-0
230
1
0
SPLINE
5
169
100
AcDbEntity
8
0
100
AcDbSpline
70
4
71
3
72
35
73
31
74
0
42
0.000000001
43
0.0000000001
44
0.0000000001
40
-10.005027456138301
40
-10.005027456138301
40
-10.005027456138301
40
-10.005027456138301
40
-8.437682474757878
40
-8.437682474757878
40
-8.437682474757878
40
-7.5743340948523388
40
-7.5743340948523388
40
-7.5743340948523388
40
-6.003696590877742
40
-6.003696590877742
40
-6.003696590877742
40
-5.835053651827657
40
-5.835053651827657
40
-5.835053651827657
40
-4.8742655075712076
40
-4.8742655075712076
40
-4.8742655075712076
40
-3.8742655075712071
40
-3.8742655075712071
40
-3.8742655075712071
40
-2.303469180776311
40
-2.303469180776311
40
-2.303469180776311
40
-1.6136183507745192
40
-1.6136183507745192
40
-1.6136183507745192
40
-1
40
-1
40
-1
40
0
40
0
40
0
40
0
41
0.99999999999999978
41
0.80555064172770952
41
0.80555064172770952
41
1
41
1
41
1
41
0.99999999999999978
41
0.80477528753569316
41
0.80477528753569316
41
1
41
1
41
1
41
1
41
0.9245419197396918
41
0.9245419197396918
41
1
41
1
41
1
41
0.99999999999999978
41
0.80473785412436494
41
0.80473785412436494
41
1
41
1
41
1
41
1
41
0.96886807254487461
41
0.96886807254487461
41
1
41
1
41
1
41
1
10
-4.6903848735502507
20
89.779035290533656
30
0
10
-5.6995571197054673
20
91.211870539804835
30
0
10
-7.4257976402164871
20
91.514424897415111
30
0
10
-8.8621073507724546
20
90.510203861325266
30
0
10
-14.022099988051657
20
86.902504829325039
30
0
10
-19.182092625331073
20
83.294805797324528
30
0
10
-24.34208526261056
20
79.687106765323378
30
0
10
-25.782151826802288
20
78.680259059356473
30
0
10
-26.088621218203194
20
76.950053717656218
30
0
10
-25.082002240367167
20
75.509827261235699
30
0
10
-24.102612381303281
20
74.108559038371226
30
0
10
-23.123222522239608
20
72.707290815506752
30
0
10
-22.143832663176291
20
71.306022592641639
30
0
10
-21.571134818552942
20
70.486631536519425
30
0
10
-20.684594886930618
20
70.02464509328972
30
0
10
-19.684902672251958
20
70.024645093290573
30
0
10
-14.687571247789357
20
70.024645093290573
30
0
10
-9.6902398233267562
20
70.024645093290573
30
0
10
-4.6929083988643683
20
70.02464509329036
30
0
10
-2.9355490859835598
20
70.02464509329036
30
0
10
-1.6929083988642544
20
71.267285780409622
30
0
10
-1.6929083988642546
20
73.024645093290118
30
0
10
-1.6929083988642546
20
76.874010904604887
30
0
10
-1.6929083988642546
20
80.723376715919684
30
0
10
-1.6929083988592808
20
84.572742527234709
30
0
10
-1.6929083988588545
20
85.196188314765692
30
0
10
-1.8812004726903808
20
85.790520498752244
30
0
10
-2.2401989348087525
20
86.300230959883834
30
0
10
-3.056927581056037
20
87.459832403433978
30
0
10
-3.873656227303286
20
88.619433846984194
30
0
10
-4.6903848735505704
20
89.779035290534338
30
0
0
CIRCLE
5
170
100
AcDbEntity
8
0
100
AcDbCircle
10
-80.211763097359565
20
112.26819588461539
30
0
40
1.9999999999999929
210
0
220
-0
230
1
0
CIRCLE
5
171
100
AcDbEntity
8
0
100
AcDbCircle
10
72.784817999836065
20
7.4086380404511054
30
0
40
1.4999999999999858
210
0
220
-0
230
1
0
LWPOLYLINE
5
172
100
AcDbEntity
8
0
100
AcDbPolyline
90
6
70
1
43
0.0
10
-1.6929083988651417
20
-1.8980067361545305
42
-0.46509466813782313
10
-5.2020688833762403
20
-4.8544836261347761
42
-0.024833084438415209
10
-11.081330325403989
20
-3.5385215828465411
42
-0.51773751492838593
10
-12.740477648857079
20
1.0715275007910752
10
-7.1518383897877769
20
9.0675083967643193
42
-0.7335598459562086
10
-1.6929083988643479
20
7.3488858961151324
0
CIRCLE
5
173
100
AcDbEntity
8
0
100
AcDbCircle
10
97.09809076520142
20
13.558717066956785
30
0
40
1.9999999999999929
210
0
220
-0
230
1
0
SPLINE
5
174
100
AcDbEntity
8
0
100
AcDbSpline
70
4
71
3
72
81
73
77
74
0
42
0.000000001
43
0.0000000001
44
0.0000000001
40
3.1628074483886026
40
3.1628074483886026
40
3.1628074483886026
40
3.1628074483886026
40
3.3509508657719214
40
3.8835777037667789
40
3.8835777037667789
40
3.8861730518893349
40
3.8861730518893349
40
3.8887684000118909
40
3.8939590962570043
40
3.8939590962570043
40
3.9043404887472284
40
3.9043404887472284
40
3.925103273727681
40
3.925103273727681
40
3.9666288436885826
40
3.9666288436885826
40
4.0496799836103854
40
4.0496799836103854
40
4.2157822634539901
40
4.2157822634539901
40
4.5479868231412031
40
4.5479868231412031
40
4.8159472590563688
40
4.8159472590563688
40
5.0839076949715372
40
5.0839076949715372
40
5.1992873687920316
40
5.1992873687920316
40
5.4300467164330195
40
5.4300467164330195
40
5.4597149837478041
40
5.4597149837478041
40
5.4664920482503891
40
5.4697799312464372
40
5.4697799312464372
40
5.4712650228922977
40
5.4712650228922977
40
5.481660664413333
40
5.4935413975802287
40
5.5173028639140238
40
5.5648257965816113
40
5.6598716619167853
40
5.8499633925871324
40
6.4693313586616608
40
6.4693313586616608
40
6.4721428593169268
40
6.4721428593169268
40
6.4776496849345362
40
6.4776496849345362
40
6.4886633361697559
40
6.4886633361697559
40
6.5106906386401926
40
6.5106906386401926
40
6.554745243581066
40
6.554745243581066
40
6.6428544534628129
40
6.6428544534628129
40
6.8190728732263075
40
6.8190728732263075
40
7.1715097127532985
40
7.1715097127532985
40
7.4232704104622993
40
7.4232704104622993
40
7.6750311081713036
40
7.6750311081713036
40
7.7686603076902125
40
7.7686603076902125
40
7.9559187067280304
40
7.9559187067280304
40
8.0487060779952877
40
8.0487060779952877
40
8.053793935058339
40
8.053793935058339
40
8.1265576053472817
40
8.2097160856775062
40
8.4210595103616903
40
8.4210595103616903
40
8.4210595103616903
40
8.4210595103616903
41
1
41
1
41
1
41
1
41
1
41
1
41
1
41
1
41
1
41
1
41
1
41
1
41
1
41
1
41
1
41
1
41
1
41
1
41
1
41
1
41
1
41
1
41
1
41
1
41
1
41
1
41
1
41
1
41
1
41
1
41
1
41
1
41
1
41
1
41
1
41
1
41
1
41
1
41
1
41
1
41
1
41
1
41
1
41
1
41
1
41
1
41
1
41
1
41
1
41
1
41
1
41
1
41
1
41
1
41
1
41
1
41
1
41
1
41
1
41
1
41
1
41
1
41
1
41
1
41
1
41
1
41
1
41
1
41
1
41
1
41
1
41
1
41
1
41
1
41
1
41
1
41
1
10
53.570074607638958
20
22.923023353869123
30
0
10
50.940127616865105
20
25.60097702200272
30
0
10
49.054329761339979
20
27.576732911060997
30
0
10
47.168531905815527
20
29.552488800117356
30
0
10
45.768195469512776
20
31.019625350613946
30
0
10
45.757390522818255
20
31.030946282403828
30
0
10
45.754480638651245
20
31.033993703387193
30
0
10
45.750108927720596
20
31.038560476128705
30
0
10
45.745716596819541
20
31.043114084429515
30
0
10
45.736904534493661
20
31.052203513491019
30
0
10
45.730993291461708
20
31.058239415981301
30
0
10
45.713150732005516
20
31.076274099336541
30
0
10
45.701110571562715
20
31.088199852694611
30
0
10
45.664561412573477
20
31.123670128751524
30
0
10
45.639623519770112
20
31.146907594516602
30
0
10
45.563155796438082
20
31.215275064922618
30
0
10
45.50996860407885
20
31.259058380033888
30
0
10
45.34439389686213
20
31.384140555282425
30
0
10
45.225950445738263
20
31.459125909900134
30
0
10
44.853095216626464
20
31.653105821760743
30
0
10
44.581063902081866
20
31.740093590389105
30
0
10
44.088530792113048
20
31.811886949850656
30
0
10
43.871057534421212
20
31.814679360810612
30
0
10
43.42929851032455
20
31.761704966922135
30
0
10
43.208099143460146
20
31.704721209310076
30
0
10
42.908646278922333
20
31.581843064373398
30
0
10
42.820713345629571
20
31.539584039795852
30
0
10
42.566103715198906
20
31.398456133931472
30
0
10
42.408813457060894
20
31.28512110095981
30
0
10
42.251005663910313
20
31.142099108490253
30
0
10
42.233312455378957
20
31.125586900964333
30
0
10
42.211935510590273
20
31.105051413770237
30
0
10
42.206054504991179
20
31.099364358670183
30
0
10
42.200207187397289
20
31.093654128532204
30
0
10
42.197439517564952
20
31.090942675732389
30
0
10
42.188142965269897
20
31.081829823673726
30
0
10
42.134804454205188
20
31.029547139994147
30
0
10
42.034794745968185
20
30.931517108089306
30
0
10
41.828108015574408
20
30.728921708843853
30
0
10
41.454738438144574
20
30.362942923073017
30
0
10
40.707999283210903
20
29.630985351580801
30
0
10
39.214520973441935
20
28.167070208530571
30
0
10
35.153746334864628
20
24.18667796138136
30
0
10
31.519679784963337
20
20.624547183564186
30
0
10
28.72640718935827
20
17.886566976987606
30
0
10
28.727331373608997
20
17.887472111456102
30
0
10
28.722516409180656
20
17.882733173952499
30
0
10
28.719335564670274
20
17.879585714534283
30
0
10
28.709813458564781
20
17.870112762568535
30
0
10
28.703492624634244
20
17.863756695231228
30
0
10
28.684614057327522
20
17.844567151207809
30
0
10
28.672140263033015
20
17.831612315272505
30
0
10
28.635072274691531
20
17.792270657562437
30
0
10
28.610831573786299
20
17.765406413223328
30
0
10
28.539661445251809
20
17.682980301725717
30
0
10
28.494286365805692
20
17.625580917386596
30
0
10
28.365411584964804
20
17.446798755404114
30
0
10
28.289223270594803
20
17.318780679512482
30
0
10
28.096393134877431
20
16.916484969868488
30
0
10
28.016795915912205
20
16.623966373837131
30
0
10
27.970859434013278
20
16.127949438008411
30
0
10
27.977098675962893
20
15.923221423349911
30
0
10
28.042185850952279
20
15.508939860326247
30
0
10
28.101701531022272
20
15.302859579587587
30
0
10
28.217894379839663
20
15.035413171501855
30
0
10
28.252822850379431
20
14.964446154561895
30
0
10
28.367100654577158
20
14.757524837365619
30
0
10
28.455999518045019
20
14.627631680907509
30
0
10
28.603469902353709
20
14.449721582346537
30
0
10
28.654699403198478
20
14.393439338628138
30
0
10
28.710780581125874
20
14.337121651306131
30
0
10
28.756217479443862
20
14.291611343494832
30
0
10
29.323307731312198
20
13.723548201746905
30
0
10
30.459084185209448
20
12.585823230123818
30
0
10
33.134339696392168
20
9.9059780984751278
30
0
10
35.279566195736649
20
7.7570712869955649
30
0
10
36.819045253010145
20
6.2149511270196278
30
0
0
SPLINE
5
175
100
AcDbEntity
8
0
100
AcDbSpline
70
4
71
3
72
14
73
10
74
0
42
0.000000001
43
0.0000000001
44
0.0000000001
40
0
40
0
40
0
40
0
40
1.4144047376875031
40
1.4144047376875031
40
1.4144047376875031
40
1.6951719272773451
40
1.6951719272773451
40
1.6951719272773451
40
3.1628074483886026
40
3.1628074483886026
40
3.1628074483886026
40
3.1628074483886026
41
1
41
0.84012166421967183
41
0.84012166421967183
41
1
41
0.9921569370717982
41
0.99156161850060365
41
0.99752113925026042
41
0.82841535291949409
41
0.82841535291949409
41
1
10
36.87633524281491
20
6.1575628058314003
30
0
10
37.969081669040428
20
5.0629408116804875
30
0
10
39.510954799844988
20
4.9407961817927593
30
0
10
40.762418304816279
20
5.8497137566211244
30
0
10
45.374224088515369
20
9.1991932355255379
30
0
10
49.473275732550412
20
13.162153979508613
30
0
10
53.888765379678603
20
18.917423087204792
30
0
10
54.872942419227464
20
20.200226165659938
30
0
10
54.744709333044312
20
21.811978149954623
30
0
10
53.570074607638958
20
22.923023353869123
30
0
0
LINE
5
176
100
AcDbEntity
8
0
100
AcDbLine
10
36.87633524281491
20
6.1575628058314003
30
0
11
36.819045253010138
21
6.2149511270196287
31
0
0
CIRCLE
5
177
100
AcDbEntity
8
0
100
AcDbCircle
10
-54.325892089192358
20
113.88666347699142
30
0
40
1.5000000000000213
210
0
220
-0
230
1
0
LWPOLYLINE
5
178
100
AcDbEntity
8
0
100
AcDbPolyline
90
11
70
1
43
0.0
10
-26.062643034715869
20
128.00867750607344
10
-19.060831258595492
20
117.99079111123979
42
0.33268042407442205
10
-15.647207567666612
20
116.86537424170128
42
-0.044974994096855972
10
-4.2621495213141785
20
119.57887607695821
42
0.37261491984240203
10
-1.692908398866777
20
122.54778947909868
10
-1.6929083988698035
20
150.80904997070854
42
0.45051249581720532
10
-7.3030033443340159
20
155.77168880075791
42
0.0089064584439578348
10
-10.887999596879649
20
155.2659861169376
42
0.44296422612922987
10
-14.939722537027183
20
149.06650186238434
42
-0.27544895018991461
10
-18.442785222345996
20
136.9963126135948
10
-25.322755995588984
20
132.18593607777427
42
0.41416347860901642
0
LWPOLYLINE
5
179
100
AcDbEntity
8
0
100
AcDbPolyline
90
12
70
1
43
0.0
10
13.987982005306598
20
155.36510736498872
10
12.183578700974813
20
155.36510736498929
42
0.42780564568864093
10
7.0369417923572186
20
155.36510736498869
10
5.2325384880260373
20
155.36510736498872
42
0.41421356237311846
10
3.2325384880260444
20
153.36510736498849
10
3.2325384880324393
20
82.125626967255002
42
0.41421356237306384
10
5.2325384880324322
20
80.125626967255229
10
7.0369417923568278
20
80.125626967255229
42
0.42780564568862378
10
12.18357870097563
20
80.125626967255229
10
13.987982005300275
20
80.125626967255229
42
0.41421356237306384
10
15.987982005300267
20
82.125626967255002
10
15.987982005306627
20
153.3651073649886
42
0.41421356237311846
0
LWPOLYLINE
5
180
100
AcDbEntity
8
0
100
AcDbPolyline
90
11
70
1
43
0.0
10
68.7802881743483
20
41.015844528345575
42
-0.35241862133400448
10
71.710906680186525
20
43.374381222114508
10
98.146926856998107
20
43.374381222112731
42
-0.45936950911027208
10
101.1124842677234
20
39.921094068444511
42
-0.037223791994356145
10
97.808224920852709
20
25.556160455503356
42
-0.4044751470532193
10
89.274093626709941
20
20.876457164976454
42
0.26956467282385405
10
81.501568471391707
20
18.813190610674919
10
75.570636881718542
20
12.874115530845199
42
-0.41466560155959592
10
71.324724039180083
20
12.874478555746105
10
63.2550633220782
20
20.957983438237228
42
-0.32888819546813658
10
62.726189156253092
20
24.479923257178029
42
0.067841912038971955
0
LWPOLYLINE
5
181
100
AcDbEntity
8
0
100
AcDbPolyline
90
6
70
1
43
0.0
10
-5.2020688833770734
20
114.87391641632043
42
-0.46509466813782768
10
-1.6929083988651779
20
111.91743952633614
10
-1.6929083988643969
20
102.67054689406665
42
-0.73355984595629509
10
-7.1518383897879403
20
100.95192439341746
10
-12.740477648857073
20
108.94790528939039
42
-0.51773751492836106
10
-11.081330325404897
20
113.55795437303135
42
-0.024833084438408766
0
LWPOLYLINE
5
182
100
AcDbEntity
8
0
100
AcDbPolyline
90
12
70
1
43
0.0
10
13.98798200530031
20
29.893805822926307
10
12.183578700975666
20
29.893805822926307
42
0.42780564568853835
10
7.0369417923568633
20
29.893805822926307
10
5.2325384880324668
20
29.893805822926343
42
0.41421356237307411
10
3.2325384880324748
20
27.893805822926492
10
3.2325384880260799
20
-43.345674574806822
42
0.41421356237311063
10
5.2325384880260728
20
-45.345674574807276
10
7.0369417923572914
20
-45.345674574807276
42
0.42780564568854901
10
12.183578700974493
20
-45.345674574808129
10
13.987982005306669
20
-45.345674574807276
42
0.41421356237313145
10
15.987982005306662
20
-43.345674574807106
10
15.987982005300339
20
27.893805822926492
42
0.41421356237306384
0
CIRCLE
5
183
100
AcDbEntity
8
0
100
AcDbCircle
10
-58.101785694655241
20
43.57702206846524
30
0
40
1.4999999999999858
210
0
220
-0
230
1
0
LWPOLYLINE
5
184
100
AcDbEntity
8
0
100
AcDbPolyline
90
6
70
1
43
0.0
10
-45.387756822598099
20
21.273750074724219
42
-0.067971477505020556
10
-52.570315534334412
20
36.044833763068873
42
-0.51008840919676712
10
-49.722398724372319
20
39.979584562196194
10
-33.070623457178279
20
39.994787696890988
42
-0.60683403380420209
10
-30.608954455888018
20
35.276166446605529
10
-40.43321745937363
20
21.220040142617712
42
-0.52802333728952577
0
LWPOLYLINE
5
185
100
AcDbEntity
8
0
100
AcDbPolyline
90
8
70
1
43
0.0
10
-46.498611701727448
20
98.350285762896718
10
-53.714187915764171
20
108.67401697658521
42
0.41426178824858251
10
-57.892145248412881
20
109.41404146125264
10
-68.756662851204823
20
101.81782983534919
42
0.32300181791128274
10
-69.913163090130368
20
98.503997996964316
10
-62.824977555570442
20
74.670235123085277
42
0.73980221771359478
10
-57.087685669871377
20
74.62525051301759
42
-0.087919801612459256
10
-46.579365175235736
20
94.802926963047284
42
0.32738144299873828
0
CIRCLE
5
186
100
AcDbEntity
8
0
100
AcDbCircle
10
-54.325892089192322
20
-3.8672306868098794
30
0
40
1.5000000000000213
210
0
220
-0
230
1
0
LWPOLYLINE
5
187
100
AcDbEntity
8
0
100
AcDbPolyline
90
8
70
1
43
0.0
10
-46.579365175232326
20
15.216505827129703
42
-0.32738144299872002
10
-46.498611701727427
20
11.669147027285035
10
-53.714187915764136
20
1.3454158135966137
42
-0.4142617882486046
10
-57.892145248412817
20
0.60539132892895697
10
-68.756662851204453
20
8.2016029548322891
42
-0.32300181791126409
10
-69.913163090130297
20
11.515434793217182
10
-62.824977555570484
20
35.349197667096291
42
-0.73980221771351851
10
-57.087685669874723
20
35.394182277163196
42
0.087919801612503429
0
LWPOLYLINE
5
188
100
AcDbEntity
8
0
100
AcDbPolyline
90
11
70
1
43
0.0
10
40.527961542933603
20
-33.898744718666059
42
-0.30808216042875386
10
41.501162364829881
20
-21.692213267361758
10
47.488947877887782
20
-15.696206200634055
42
0.41376166763029415
10
47.489310343032578
20
-11.456840225585072
10
39.199146485499803
20
-3.1524539114266927
42
0.32982544942516479
10
35.669148821173181
20
-2.6222865560799846
42
-0.052185759762307785
10
23.08565512851839
20
-7.70424021704466
42
0.33451225300413046
10
20.913428892200265
20
-10.587778078103458
10
20.913428892202823
20
-39.243217015712247
42
0.4793302102495855
10
26.990448951525185
20
-44.125842107997443
42
0.027609278087070904
10
37.79273177393204
20
-41.109339865293052
42
0.47121800664889513
0
LWPOLYLINE
5
189
100
AcDbEntity
8
0
100
AcDbPolyline
90
46
70
1
43
0.0
10
-65.214724536259354
20
44.836431274433593
10
-65.219392646779141
20
65.139209249493973
42
0.072335968117474517
10
-65.260883426796454
20
65.424040942470413
10
-72.479252771197451
20
89.695542083587313
42
0.33186825357231042
10
-86.85689067445
20
100.41961781824155
10
-90.635812779684073
20
100.41961781824119
42
-0.55659049495931834
10
-92.427242722407129
20
103.30887523896111
42
-0.037847675536626213
10
-84.015256301533597
20
117.45683893486152
42
-0.52042347597205196
10
-77.463080051603583
20
117.45037192610135
10
-71.89625137155808
20
109.48722471285132
42
0.41423367181321197
10
-67.718459026307045
20
108.74743626079842
10
-44.513061983009976
20
124.97209650317912
10
-21.307751701215274
20
141.19691543992698
42
0.4142317347060458
10
-20.568265242694572
20
145.37474700265722
10
-24.766606544003601
20
151.37857007791726
42
-0.52292034600768167
10
-21.924363149373857
20
159.08375207229076
42
-0.1701487593375246
10
49.022487252383478
20
153.16066258927717
42
-0.52580571771876183
10
50.515859806917298
20
145.05872060228637
10
45.041703230932377
20
139.58983621556729
42
0.41415373394766358
10
45.039226120117632
20
135.34762959874831
10
85.039632226679231
20
95.292300769093913
42
0.4266318402563527
10
89.369963016419973
20
95.38073762617968
10
94.43796289111728
20
100.88814102725183
42
-0.53635444817242661
10
101.01973985695865
20
99.84157787570831
42
-0.21799485210135611
10
100.94990118253689
20
10.245258196126629
42
-0.53585269328295848
10
94.370719643909069
20
9.2043651049835695
10
89.369963016420002
20
14.638695164001929
42
0.42663184025633416
10
85.039632226679274
20
14.727132021087833
10
45.039226120117604
20
-25.328196808566744
42
0.41415373394765781
10
45.041703230932413
20
-29.570403425385994
10
50.515859806917334
20
-35.039287812104774
42
-0.5258057177187645
10
49.022487252372486
20
-43.141229799071127
42
-0.17014875933745915
10
-21.924363149378223
20
-49.064319282120451
42
-0.52292034600769488
10
-24.766606544003551
20
-41.359137287735606
10
-20.568265242694487
20
-35.355314212475697
42
0.41423173470606756
10
-21.307751701215238
20
-31.17748264974546
10
-44.513061983009941
20
-14.95266371299758
10
-67.718459026307045
20
1.2719965293829749
42
0.41423367181321219
10
-71.896251371558037
20
0.53220807733021402
10
-77.463080051603555
20
-7.4309391359199637
42
-0.52042347597208938
10
-84.01525630152797
20
-7.4374061446759931
42
-0.037847675536643338
10
-92.427242722410739
20
6.710557551221271
42
-0.55659049495931223
10
-90.63581277968413
20
9.599814971940237
10
-86.856890674449986
20
9.5998149719398889
42
0.33186825357230321
10
-72.479252771197451
20
20.323890706593861
10
-65.291180411301937
20
44.49351935284264
42
0.08801769688499031
0
ENDSEC
0
SECTION
2
OBJECTS
0
DICTIONARY
5
C
100
AcDbDictionary
3
ACAD_GROUP
350
D
3
ACAD_MLINESTYLE
350
17
0
DICTIONARY
5
D
100
AcDbDictionary
0
DICTIONARY
5
1A
330
C
100
AcDbDictionary
0
DICTIONARY
5
17
100
AcDbDictionary
0
ENDSEC
0
EOF
