0
SECTION
2
HEADER
9
$INSUNITS
70
4
9
$ACADVER
1
AC1014
9
$HANDSEED
5
FFFF
0
ENDSEC
0
SECTION
2
TABLES
0
TABLE
2
VPORT
5
8
100
AcDbSymbolTable
0
ENDTAB
0
TABLE
2
LTYPE
5
5
100
AcDbSymbolTable
0
LTYPE
5
14
100
AcDbSymbolTableRecord
100
AcDbLinetypeTableRecord
2
BYBLOCK
70
0
0
LTYPE
5
15
100
AcDbSymbolTableRecord
100
AcDbLinetypeTableRecord
2
BYLAYER
70
0
0
ENDTAB
0
TABLE
2
LAYER
5
2
100
AcDbSymbolTable
70
2
0
LAYER
5
50
100
AcDbSymbolTableRecord
100
AcDbLayerTableRecord
2
0
70
0
6
CONTINUOUS
0
ENDTAB
0
TABLE
2
STYLE
5
3
100
AcDbSymbolTable
70
1
0
STYLE
5
11
100
AcDbSymbolTableRecord
100
AcDbTextStyleTableRecord
2
STANDARD
70
0
0
ENDTAB
0
TABLE
2
VIEW
5
6
100
AcDbSymbolTable
70
0
0
ENDTAB
0
TABLE
2
UCS
5
7
100
AcDbSymbolTable
70
0
0
ENDTAB
0
TABLE
2
APPID
5
9
100
AcDbSymbolTable
70
2
0
APPID
5
12
100
AcDbSymbolTableRecord
100
AcDbRegAppTableRecord
2
ACAD
70
0
0
ENDTAB
0
TABLE
2
DIMSTYLE
5
A
100
AcDbSymbolTable
70
1
0
ENDTAB
0
TABLE
2
BLOCK_RECORD
5
1
100
AcDbSymbolTable
70
1
0
BLOCK_RECORD
5
1F
100
AcDbSymbolTableRecord
100
AcDbBlockTableRecord
2
*MODEL_SPACE
0
BLOCK_RECORD
5
1B
100
AcDbSymbolTableRecord
100
AcDbBlockTableRecord
2
*PAPER_SPACE
0
ENDTAB
0
ENDSEC
0
SECTION
2
BLOCKS
0
BLOCK
5
20
100
AcDbEntity
100
AcDbBlockBegin
2
*MODEL_SPACE
0
ENDBLK
5
21
100
AcDbEntity
100
AcDbBlockEnd
0
BLOCK
5
1C
100
AcDbEntity
100
AcDbBlockBegin
2
*PAPER_SPACE
0
ENDBLK
5
1D
100
AcDbEntity
100
AcDbBlockEnd
0
ENDSEC
0
SECTION
2
ENTITIES
0
CIRCLE
5
100
100
AcDbEntity
8
0
100
AcDbCircle
10
97.098090765201334
20
13.497493811453065
30
0
40
1.9999999999999929
210
-0
220
0
230
1
0
CIRCLE
5
101
100
AcDbEntity
8
0
100
AcDbCircle
10
31.282943174494271
20
73.979104767338782
30
0
40
1.9999999999999929
210
0
220
-0
230
1
0
CIRCLE
5
102
100
AcDbEntity
8
0
100
AcDbCircle
10
-20.325203311565687
20
-44.181229066611834
30
0
40
1.9999999999999929
210
-0
220
0
230
1
0
CIRCLE
5
103
100
AcDbEntity
8
0
100
AcDbCircle
10
-6.2170568255056944
20
-10.020895232661449
30
0
40
2.0000000000000284
210
0
220
-0
230
1
0
CIRCLE
5
104
100
AcDbEntity
8
0
100
AcDbCircle
10
-38.880682606315915
20
8.7338731900434219
30
0
40
2.0000000000000018
210
-0
220
0
230
1
0
CIRCLE
5
105
100
AcDbEntity
8
0
100
AcDbCircle
10
-38.880682606315915
20
101.2243363446339
30
0
40
1.9999999999999929
210
-0
220
0
230
1
0
CIRCLE
5
106
100
AcDbEntity
8
0
100
AcDbCircle
10
-6.2170568255056233
20
119.97910476733877
30
0
40
2.0000000000000284
210
0
220
-0
230
1
0
CIRCLE
5
107
100
AcDbEntity
8
0
100
AcDbCircle
10
-38.880682606315915
20
110.22433634463395
30
0
40
1.9999999999999929
210
-0
220
0
230
1
0
CIRCLE
5
108
100
AcDbEntity
8
0
100
AcDbCircle
10
-58.101785694655277
20
43.515798812961606
30
0
40
1.4999999999999858
210
-0
220
0
230
1
0
CIRCLE
5
109
100
AcDbEntity
8
0
100
AcDbCircle
10
-58.101785694655277
20
66.442410721715817
30
0
40
1.4999999999999858
210
-0
220
0
230
1
0
CIRCLE
5
110
100
AcDbEntity
8
0
100
AcDbCircle
10
97.098090765201377
20
96.460715723224254
30
0
40
1.9999999999999929
210
-0
220
0
230
1
0
CIRCLE
5
111
100
AcDbEntity
8
0
100
AcDbCircle
10
-20.325203311565616
20
154.13943860128921
30
0
40
1.9999999999999929
210
-0
220
0
230
1
0
CIRCLE
5
112
100
AcDbEntity
8
0
100
AcDbCircle
10
-38.880682606315915
20
-0.26612680995659937
30
0
40
2.0000000000000009
210
-0
220
0
230
1
0
CIRCLE
5
113
100
AcDbEntity
8
0
100
AcDbCircle
10
-17.217056825505708
20
82.979104767338768
30
0
40
2.0000000000000284
210
-5.4738221262688167e-48
220
9.7236987608515397e-62
230
1
0
CIRCLE
5
114
100
AcDbEntity
8
0
100
AcDbCircle
10
46.532387255642185
20
148.51146236426143
30
0
40
1.9999999999999929
210
-0
220
0
230
1
0
CIRCLE
5
115
100
AcDbEntity
8
0
100
AcDbCircle
10
58.782943174494307
20
99.979104767338768
30
0
40
1.9999999999999929
210
0
220
-0
230
1
0
CIRCLE
5
116
100
AcDbEntity
8
0
100
AcDbCircle
10
46.532387255642149
20
-38.553252829584125
30
0
40
1.9999999999999929
210
-0
220
0
230
1
0
CIRCLE
5
117
100
AcDbEntity
8
0
100
AcDbCircle
10
-80.211763097359565
20
-2.3099863499380113
30
0
40
1.9999999999999927
210
8.3523897190381114e-53
220
3.8518598887744717e-34
230
1
0
CIRCLE
5
118
100
AcDbEntity
8
0
100
AcDbCircle
10
-80.211763097359565
20
112.26819588461539
30
0
40
1.9999999999999929
210
-0
220
0
230
1
0
CIRCLE
5
119
100
AcDbEntity
8
0
100
AcDbCircle
10
31.282943174494271
20
35.979104767338598
30
0
40
1.9999999999999929
210
0
220
-0
230
1
0
CIRCLE
5
120
100
AcDbEntity
8
0
100
AcDbCircle
10
-17.217056825505708
20
26.979104767338562
30
0
40
2.0000000000000284
210
0
220
-0
230
1
0
LWPOLYLINE
5
121
100
AcDbEntity
8
0
100
AcDbPolyline
90
8
70
1
43
0.0
10
39.221013698961826
20
-41.734387960204906
42
-0.12444576194766076
10
-10.879457056289741
20
-46.321603017903321
42
-0.65393853712982353
10
-12.27238201565001
20
-41.004338693833461
10
-3.2713444968842449
20
-33.891905004235056
42
-0.16875614534202291
10
-0.1714179914621683
20
-32.814972128435528
10
27.95156247987557
20
-32.814972128435514
42
-0.08186875926063121
10
31.161194590497843
20
-33.344055503606512
10
39.186485192960006
20
-36.063774347631778
42
-0.71237105506473464
0
LWPOLYLINE
5
122
100
AcDbEntity
8
0
100
AcDbPolyline
90
8
70
1
43
0.0
10
-12.802439842875373
20
76.370608417089386
10
-12.802439842875373
20
33.587601117587994
42
0.46847526039981996
10
-6.8991822412337456
20
28.669865286428049
10
22.437712534254647
20
34.058274530905365
42
0.36195689088791899
10
26.534454932613095
20
38.976010362065793
10
26.534454932613084
20
70.982199172611601
42
0.36195689088792382
10
22.437712534254644
20
75.899935003771958
10
-6.89918224123375
20
81.288344248249302
42
0.46847526039981907
0
LWPOLYLINE
5
123
100
AcDbEntity
8
0
100
AcDbPolyline
90
11
70
1
43
0.0
10
34.334993536542058
20
65.300360664144804
10
34.334993536542058
20
44.657848870532639
42
0.5038090087287026
10
47.251617671880304
20
35.092635665738896
10
80.054611516967611
20
45.094922233902878
42
0.32967242225656768
10
82.179622705115762
20
47.961415771759576
10
82.186788273417136
20
54.962630124734169
10
82.18677141235807
20
54.979104767338676
10
82.186788273417136
20
54.995579409943161
10
82.179622705115747
20
61.996793762917775
42
0.32967242225657206
10
80.054611516967583
20
64.863287300774445
10
47.251617671880311
20
74.865573868938526
42
0.50380900872870193
0
LWPOLYLINE
5
124
100
AcDbEntity
8
0
100
AcDbPolyline
90
8
70
1
43
0.0
10
-63.22334771014927
20
33.843979247784752
42
-0.73954107504312905
10
-57.486664247381754
20
33.890895840355441
42
0.09427919365209117
10
-45.077340125952794
20
10.816733788261887
42
-0.17202549584969937
10
-44.630682606316086
20
9.5569214456087792
10
-44.630682606316086
20
-3.0739885502091182
42
-0.60657916547798552
10
-49.349717753083127
20
-5.5326300784071591
10
-68.756561006820306
20
8.0362636616323417
42
-0.32300094147887981
10
-69.913053440703763
20
11.350090042900138
0
LWPOLYLINE
5
125
100
AcDbEntity
8
0
100
AcDbPolyline
90
10
70
1
43
0.0
10
87.186807753555144
20
54.979104767338676
10
87.177468684653689
20
45.854242581411135
42
0.13412433620615272
10
87.869233108708954
20
43.311581359588381
10
95.531563502700095
20
30.302503962612395
42
0.67356901084011411
10
101.03176929981041
20
31.117058509735074
42
0.059837930241107888
10
103.87768095161364
20
54.979104767341482
42
0.059837930241092824
10
101.03176929981039
20
78.841151024942221
42
0.67356901084015064
10
95.53156350270001
20
79.655705572064676
10
87.869233108708769
20
66.646628175088694
42
0.1341243362061591
10
87.177468684653689
20
64.103966953265896
0
LWPOLYLINE
5
126
100
AcDbEntity
8
0
100
AcDbPolyline
90
8
70
1
43
0.0
10
23.826365669969967
20
29.240420842592112
10
-10.850717118884958
20
22.871160738516174
42
0.49435489328571347
10
-13.73451847153202
20
17.20670463175167
10
-2.8919513612540722
20
-5.3925269576829757
42
0.24557341599781832
10
-0.66576943941927036
20
-7.056400180583271
42
0.11321206720259901
10
27.371512991934033
20
-5.2246976611117031
42
0.32914883274771828
10
29.511537085595805
20
-2.3750933588041967
10
29.729456205076584
20
24.281811579465629
42
0.47096987432713566
0
LWPOLYLINE
5
127
100
AcDbEntity
8
0
100
AcDbPolyline
90
10
70
1
43
0.0
10
-5.5165449671329645
20
-23.039883297133926
42
-0.35076093229714561
10
-6.3613946393498111
20
-26.691424153031331
10
-10.584278679490991
20
-30.028259784673708
42
-0.33108422638533469
10
-14.163269729511894
20
-30.133061038350952
10
-33.599717753083667
20
-16.543468209281919
42
-0.24488107587579355
10
-34.880682606316
20
-14.084826681084497
10
-34.88068260631632
20
-3.7836581371612459
42
-0.41421356237310003
10
-22.880682606316327
20
8.2163418628389433
10
-22.400612432752638
20
8.2163418628388349
42
-0.28849067414446977
10
-19.695806857282747
20
6.5140424442159528
0
LWPOLYLINE
5
128
100
AcDbEntity
8
0
100
AcDbPolyline
90
8
70
1
43
0.0
10
60.356943241239449
20
1.2220432600357807
42
-0.41085332204060948
10
60.335611699835056
20
-2.9961077623032573
10
39.236199016984166
20
-24.124491081031554
42
-0.6694685517630683
10
34.113436260410062
20
-21.995989881387086
10
34.138101423377364
20
-13.428460027244091
42
-0.30447632023786725
10
36.009510924363695
20
-10.657472373348718
42
0.083357741846658881
10
55.982771746348199
20
1.6436709250007082
42
-0.39783194581940229
10
60.101298368424366
20
1.4832706407945828
0
LWPOLYLINE
5
129
100
AcDbEntity
8
0
100
AcDbPolyline
90
9
70
1
43
0.0
10
-52.930877587173342
20
54.979104767338711
10
-52.932154385801908
20
49.424728411241894
42
0.26423123020021733
10
-51.468684302242629
20
46.847398333751286
10
-24.838969680054035
20
30.967281681952183
42
0.58206601520421208
10
-20.302439842875373
20
33.543922141826137
10
-20.302439842875298
20
76.414287392851165
42
0.58206601520420997
10
-24.838969680054053
20
78.990927852725179
10
-51.468684302242593
20
63.110811200926094
42
0.26423123020024997
10
-52.932154385801908
20
60.533481123435081
0
LWPOLYLINE
5
130
100
AcDbEntity
8
0
100
AcDbPolyline
90
8
70
1
43
0.0
10
89.986653919519114
20
29.87523859044277
10
85.478705422959834
20
37.528817577238286
42
0.34657170663269571
10
79.712160398097296
20
39.773880330445834
10
49.67208471104918
20
30.614062572036964
42
0.56245792695090058
10
48.826005051382744
20
27.302162249501993
10
67.375419633294229
20
8.3476847648424091
42
0.41758180581616683
10
71.642301552092334
20
8.3261067872316374
10
89.524489333899581
20
26.232847780955471
42
0.34168797908828252
0
LWPOLYLINE
5
131
100
AcDbEntity
8
0
100
AcDbPolyline
90
7
70
1
43
0.0
10
-52.17530555947252
20
35.336940083764368
42
-0.69051079320245357
10
-47.780680955740422
20
38.825333967217333
10
-24.408226203854412
20
24.887621409472903
42
-0.39672016224903917
10
-23.280486875340216
20
20.931970502670563
10
-24.473596008393031
20
18.626865503952821
42
-0.26878449337447796
10
-32.92604147076041
20
13.232749755253334
42
-0.2463631523214613
10
-45.033071306294978
20
20.134236207299764
42
-0.06529002356620324
0
CIRCLE
5
132
100
AcDbEntity
8
0
100
AcDbCircle
10
58.782943174494292
20
9.9791047673385336
30
0
40
1.9999999999999929
210
0
220
-0
230
1
0
LWPOLYLINE
5
133
100
AcDbEntity
8
0
100
AcDbPolyline
90
7
70
1
43
0.0
10
-45.033071306292094
20
89.823973327373366
42
-0.24636315232149722
10
-32.926041470760289
20
96.725459779419779
42
-0.26878449337450638
10
-24.473596008392562
20
91.33134403072367
10
-23.280486875340216
20
89.026239032006757
42
-0.39672016224903928
10
-24.408226203854397
20
85.070588125204395
10
-47.780680955740422
20
71.132875567460061
42
-0.69051079320226538
10
-52.175305559468725
20
74.621269450910304
42
-0.065290023566176927
0
LWPOLYLINE
5
134
100
AcDbEntity
8
0
100
AcDbPolyline
90
6
70
1
43
0.0
10
34.334993536541987
20
22.909083398252648
10
34.33499353654252
20
2.080456079651043
42
0.56503487265578689
10
38.737480260127562
20
-0.57153015526173689
42
0.054732117234355365
10
50.090514300265227
20
7.1258754649211431
42
0.43469913043846886
10
50.290140681669214
20
11.508674227027846
10
37.764398023276087
20
24.307941079828801
42
0.67209120473636019
0
LWPOLYLINE
5
135
100
AcDbEntity
8
0
100
AcDbPolyline
90
10
70
1
43
0.0
10
-6.3613946393498333
20
136.64963368770859
42
-0.35076093229715138
10
-5.5165449671330435
20
132.99809283181128
10
-19.695806857282609
20
103.44416709046135
42
-0.28849067414446811
10
-22.400612432752638
20
101.74186767183839
10
-22.880682606316324
20
101.74186767183835
42
-0.41421356237309498
10
-34.880682606316356
20
113.74186767183838
10
-34.880682606315943
20
124.04303621576184
42
-0.2448810758757933
10
-33.599717753083596
20
126.50167774395931
10
-14.163269729511828
20
140.09127057302831
42
-0.3310842263853318
10
-10.584278679490929
20
139.98646931935107
0
LWPOLYLINE
5
136
100
AcDbEntity
8
0
100
AcDbPolyline
90
8
70
1
43
0.0
10
34.113436260410097
20
131.95419941606437
42
-0.66946855176306475
10
39.236199016984166
20
134.08270061570889
10
60.335611699835084
20
112.95431729698058
42
-0.4108533220406082
10
60.356943241239449
20
108.73616627464158
10
60.101298368424381
20
108.47493889388278
42
-0.39783194581939391
10
55.982771746348234
20
108.31453860967656
42
0.083357741846634748
10
36.009510924363788
20
120.61568190802598
42
-0.30447632023787519
10
34.1381014233774
20
123.38666956192139
0
LWPOLYLINE
5
137
100
AcDbEntity
8
0
100
AcDbPolyline
90
8
70
1
43
0.0
10
29.392842080829812
20
126.85264138133641
42
-0.486680567595973
10
25.700919787719243
20
123.90902417294501
42
0.066697581980896314
10
6.9782864908177817
20
125.7794712761615
42
-0.56322477577390484
10
4.1726240853466763
20
130.07547602820603
10
6.7766325533396827
20
135.50302744019939
42
-0.28849067414445534
10
10.383039987299654
20
137.77275999836306
10
24.508483686173648
20
137.77275999836309
42
-0.31474114432214134
10
29.334993536542552
20
133.92895092945119
0
LWPOLYLINE
5
138
100
AcDbEntity
8
0
100
AcDbPolyline
90
8
70
1
43
0.0
10
39.22101369896447
20
151.69259749488128
42
-0.71237105506438636
10
39.186485192960028
20
146.02198388230906
10
31.161194590497271
20
143.30226503828368
42
-0.081868759260604052
10
27.951562479875843
20
142.77318166311287
10
-0.17141799146216358
20
142.77318166311292
42
-0.16875614534203823
10
-3.2713444968843675
20
143.85011453891261
10
-12.272382015650024
20
150.96254822851083
42
-0.65393853712970562
10
-10.879457056290578
20
156.27981255258047
42
-0.12444576194767024
0
LWPOLYLINE
5
139
100
AcDbEntity
8
0
100
AcDbPolyline
90
8
70
1
43
0.0
10
49.672084711049393
20
79.344146962640281
42
-0.5624579269509421
10
48.826005051382779
20
82.65604728517539
10
67.375419633294399
20
101.61052476983508
42
-0.41758180581614285
10
71.642301552092363
20
101.63210274744573
10
89.524489333899623
20
83.725361753721742
42
-0.34168797908825221
10
89.986653919519284
20
80.082970944234773
10
85.478705422959735
20
72.429391957438938
42
-0.34657170663267012
10
79.712160398097552
20
70.184329204231489
0
LWPOLYLINE
5
140
100
AcDbEntity
8
0
100
AcDbPolyline
90
6
70
1
43
0.0
10
50.090514300264005
20
102.83233406975717
42
-0.43469913043860331
10
50.290140681669357
20
98.449535307649697
10
37.764398023276151
20
85.650268454848501
42
-0.67209120473636219
10
34.334993536542022
20
87.049126136424647
10
34.334993536540892
20
107.87775345502629
42
-0.5650348726557749
10
38.737480260126851
20
110.52973968993797
42
-0.054732117234332515
0
LWPOLYLINE
5
141
100
AcDbEntity
8
0
100
AcDbPolyline
90
8
70
1
43
0.0
10
10.383039987299583
20
-27.814550463685777
10
24.508483686173648
20
-27.814550463685777
42
0.31474114432214523
10
29.33499353654252
20
-23.97074139477386
10
29.392842080829809
20
-16.894431846659099
42
0.48668056759599171
10
25.700919787719315
20
-13.950814638268307
42
-0.066697581980918894
10
6.9782864908176636
20
-15.821261741484117
42
0.56322477577389007
10
4.1726240853466114
20
-20.117266493528714
10
6.776632553339609
20
-25.544817905522091
42
0.28849067414445667
0
LWPOLYLINE
5
142
100
AcDbEntity
8
0
100
AcDbPolyline
90
8
70
1
43
0.0
10
27.371512991933397
20
115.18290719578927
42
-0.32914883274777773
10
29.511537085595876
20
112.33330289348154
10
29.729456205076588
20
85.676397955211158
42
-0.47096987432709669
10
23.826365669969999
20
80.717788692085279
10
-10.850717118885218
20
87.08704879616127
42
-0.49435489328569915
10
-13.734518471531915
20
92.751504902925689
10
-2.891951361254339
20
115.35073649236047
42
-0.24557341599782101
10
-0.66576943941903721
20
117.01460971525968
42
-0.11321206720255284
0
LWPOLYLINE
5
143
100
AcDbEntity
8
0
100
AcDbPolyline
90
8
70
1
43
0.0
10
-44.630682606316093
20
100.40128808906856
42
-0.17202549584999152
10
-45.077340125954208
20
99.141475746413747
42
0.094279193652051133
10
-57.486664247381782
20
76.067313694321939
42
-0.73954107504308031
10
-63.223347710149156
20
76.114230286892322
10
-69.913053440703806
20
98.608119491777302
42
-0.32300094147887953
10
-68.756561006820306
20
101.9219458730451
10
-49.349717753082913
20
115.49083961308455
42
-0.60657916547796586
10
-44.630682606316157
20
113.03219808488643
0
LWPOLYLINE
5
144
100
AcDbEntity
8
0
100
AcDbPolyline
90
46
70
1
43
0.0
10
94.409518754815792
20
9.1009787948917342
10
89.369963016420058
20
14.577471908497532
42
0.42663184025623629
10
85.039632226679259
20
14.665908765583637
10
45.039226120117561
20
-25.389420064070443
42
0.41415373394774579
10
45.041703230932448
20
-29.63162668088966
10
50.515859806917177
20
-35.100511067608586
42
-0.52580571771956108
10
49.022487252369729
20
-43.202453054597868
42
-0.1701487593374956
10
-21.924363149374532
20
-49.125542537625513
42
-0.52292034600778081
10
-24.766606544003409
20
-41.420360543239042
10
-20.568265242694679
20
-35.416537467979396
42
0.41423173470613556
10
-21.307751701215185
20
-31.238705905249162
10
-67.718459026306945
20
1.2107732738789787
42
0.41423367181313997
10
-71.896251371558009
20
0.47098482182615697
10
-77.463080051603455
20
-7.4921623914237321
42
-0.52042347597188154
10
-84.015256301532929
20
-7.4986294001868847
42
-0.037847675536706822
10
-92.427242722421923
20
6.6493342957404682
42
-0.55659049495920965
10
-90.635812779683889
20
9.5385917164360734
10
-83.127461749192548
20
9.5385917164359668
42
0.33186825357222832
10
-73.542369813691622
20
16.687975539536446
10
-65.260883426796354
20
44.534168592207024
42
0.072335968117568761
10
-65.219392646779326
20
44.819000285183677
10
-65.217056587611495
20
54.979104767338605
10
-65.219392646779255
20
65.139209249493675
42
0.072335968117526253
10
-65.260883426796354
20
65.424040942470356
10
-73.54236981369155
20
93.2702339951407
42
0.33186825357222494
10
-83.127461749192193
20
100.41961781824143
10
-90.635812779683889
20
100.41961781824131
42
-0.55659049495957236
10
-92.427242722420303
20
103.30887523893851
42
-0.037847675536701819
10
-84.015256301532361
20
117.45683893486381
42
-0.52042347597185445
10
-77.463080051603512
20
117.4503719261014
10
-71.896251371558009
20
109.48722471285132
42
0.41423367181314402
10
-67.718459026306945
20
108.74743626079839
10
-21.307751701215167
20
141.19691543992647
42
0.41423173470614255
10
-20.568265242694697
20
145.3747470026567
10
-24.766606544003555
20
151.37857007791644
42
-0.52292034600777071
10
-21.924363149376287
20
159.08375207230978
42
-0.17014875933752563
10
49.022487252383968
20
153.16066258927665
42
-0.52580571771874673
10
50.515859806917547
20
145.0587206022862
10
45.041703230932484
20
139.58983621556695
42
0.41415373394774452
10
45.039226120117597
20
135.34762959874774
10
85.039632226679274
20
95.292300769093771
42
0.42663184025623124
10
89.369963016420087
20
95.380737626179894
10
94.409518754815338
20
100.85723073978558
42
-0.53059617712126628
10
101.01973985695702
20
99.784492843321416
42
-0.10773147085747095
10
110.75058904707191
20
54.97910476733221
42
-0.10773147085743075
10
101.01973985695938
20
10.173716691360291
42
-0.53059617712164275
0
ENDSEC
0
SECTION
2
OBJECTS
0
DICTIONARY
5
C
100
AcDbDictionary
3
ACAD_GROUP
350
D
3
ACAD_MLINESTYLE
350
17
0
DICTIONARY
5
D
100
AcDbDictionary
0
DICTIONARY
5
1A
330
C
100
AcDbDictionary
0
DICTIONARY
5
17
100
AcDbDictionary
0
ENDSEC
0
EOF
