0
SECTION
2
HEADER
9
$INSUNITS
70
4
9
$ACADVER
1
AC1014
9
$HANDSEED
5
FFFF
0
ENDSEC
0
SECTION
2
TABLES
0
TABLE
2
VPORT
5
8
100
AcDbSymbolTable
0
ENDTAB
0
TABLE
2
LTYPE
5
5
100
AcDbSymbolTable
0
LTYPE
5
14
100
AcDbSymbolTableRecord
100
AcDbLinetypeTableRecord
2
BYBLOCK
70
0
0
LTYPE
5
15
100
AcDbSymbolTableRecord
100
AcDbLinetypeTableRecord
2
BYLAYER
70
0
0
ENDTAB
0
TABLE
2
LAYER
5
2
100
AcDbSymbolTable
70
2
0
LAYER
5
50
100
AcDbSymbolTableRecord
100
AcDbLayerTableRecord
2
0
70
0
6
CONTINUOUS
0
ENDTAB
0
TABLE
2
STYLE
5
3
100
AcDbSymbolTable
70
1
0
STYLE
5
11
100
AcDbSymbolTableRecord
100
AcDbTextStyleTableRecord
2
STANDARD
70
0
0
ENDTAB
0
TABLE
2
VIEW
5
6
100
AcDbSymbolTable
70
0
0
ENDTAB
0
TABLE
2
UCS
5
7
100
AcDbSymbolTable
70
0
0
ENDTAB
0
TABLE
2
APPID
5
9
100
AcDbSymbolTable
70
2
0
APPID
5
12
100
AcDbSymbolTableRecord
100
AcDbRegAppTableRecord
2
ACAD
70
0
0
ENDTAB
0
TABLE
2
DIMSTYLE
5
A
100
AcDbSymbolTable
70
1
0
ENDTAB
0
TABLE
2
BLOCK_RECORD
5
1
100
AcDbSymbolTable
70
1
0
BLOCK_RECORD
5
1F
100
AcDbSymbolTableRecord
100
AcDbBlockTableRecord
2
*MODEL_SPACE
0
BLOCK_RECORD
5
1B
100
AcDbSymbolTableRecord
100
AcDbBlockTableRecord
2
*PAPER_SPACE
0
ENDTAB
0
ENDSEC
0
SECTION
2
BLOCKS
0
BLOCK
5
20
100
AcDbEntity
100
AcDbBlockBegin
2
*MODEL_SPACE
0
ENDBLK
5
21
100
AcDbEntity
100
AcDbBlockEnd
0
BLOCK
5
1C
100
AcDbEntity
100
AcDbBlockBegin
2
*PAPER_SPACE
0
ENDBLK
5
1D
100
AcDbEntity
100
AcDbBlockEnd
0
ENDSEC
0
SECTION
2
ENTITIES
0
CIRCLE
5
100
100
AcDbEntity
8
0
100
AcDbCircle
10
-208.52868766323152
20
-121.92329407675921
30
0
40
1.9999999999999929
210
0
220
-0
230
1
0
CIRCLE
5
101
100
AcDbEntity
8
0
100
AcDbCircle
10
-9.450002852786838
20
-121.92329407675921
30
0
40
1.9999999999999929
210
0
220
-0
230
1
0
CIRCLE
5
102
100
AcDbEntity
8
0
100
AcDbCircle
10
-51.373424379612977
20
-181.80985386255313
30
0
40
1.9999999999999929
210
0
220
-0
230
1
0
CIRCLE
5
103
100
AcDbEntity
8
0
100
AcDbCircle
10
-15.077979089815008
20
-55.06570350955144
30
0
40
1.9999999999999929
210
0
220
-0
230
1
0
LWPOLYLINE
5
104
100
AcDbEntity
8
0
100
AcDbPolyline
90
9
70
1
43
0.0
10
-31.827098165438432
20
-60.096823292903998
10
-37.414645916797326
20
-54.516937027474796
42
0.41426489189918919
10
-42.364825598223646
20
-54.520766880070369
10
-62.06427205213663
20
-74.254176970105618
42
0.66786722214660865
10
-58.525694292914068
20
-82.786664399939582
10
-9.3925780794877483
20
-82.78666439993961
42
0.46379207383359117
10
-6.43394614883956
20
-79.290179658030326
42
0.034335016874269535
10
-9.7541243260739101
20
-65.416855799960544
42
0.49811313518356326
10
-21.781255575276425
20
-61.122096334741407
42
-0.35542818813578303
0
LWPOLYLINE
5
105
100
AcDbEntity
8
0
100
AcDbPolyline
90
8
70
1
43
0.0
10
-129.9639399021851
20
-63.359748070015939
42
-0.19873090887578679
10
-126.43087548376661
20
-61.897749739787287
10
-120.94877061117451
20
-61.897749739787301
42
-0.41421356237309503
10
-117.94877061117452
20
-64.897749739787287
10
-117.9487706111745
20
-77.786664399940477
42
-0.41421356237312051
10
-122.94877061117491
20
-82.786664399940477
10
-137.3350067667343
20
-82.786664399939127
42
-0.66843115931300412
10
-140.86807118515233
20
-74.24866273016778
0
CIRCLE
5
106
100
AcDbEntity
8
0
100
AcDbCircle
10
-67.128725730851784
20
-4.4999999999922684
30
0
40
1.9999999999999929
210
0
220
-0
230
1
0
CIRCLE
5
107
100
AcDbEntity
8
0
100
AcDbCircle
10
-150.84996478516649
20
-4.4999999999922684
30
0
40
1.9999999999999929
210
0
220
-0
230
1
0
CIRCLE
5
108
100
AcDbEntity
8
0
100
AcDbCircle
10
-202.90071142620334
20
-55.06570350955144
30
0
40
1.9999999999999929
210
0
220
-0
230
1
0
CIRCLE
5
109
100
AcDbEntity
8
0
100
AcDbCircle
10
-166.60526613640531
20
-181.80985386255313
30
0
40
1.9999999999999929
210
0
220
-0
230
1
0
CIRCLE
5
110
100
AcDbEntity
8
0
100
AcDbCircle
10
-92.194317069205681
20
-132.5907029128079
30
0
40
1.5000000000000036
210
0
220
-0
230
1
0
LWPOLYLINE
5
111
100
AcDbEntity
8
0
100
AcDbPolyline
90
8
70
1
43
0.0
10
-91.547815032251933
20
-61.897749739787294
42
-0.19873090887579037
10
-88.014750613833485
20
-63.359748070015947
10
-77.110619330866271
20
-74.248662730167794
42
-0.66843115931300379
10
-80.643683749284264
20
-82.786664399939113
10
-95.029919904843581
20
-82.786664399940477
42
-0.41421356237312262
10
-100.02991990484401
20
-77.786664399940477
10
-100.02991990484401
20
-64.897749739787287
42
-0.4142135623730942
10
-97.029919904844064
20
-61.897749739787294
0
LWPOLYLINE
5
112
100
AcDbEntity
8
0
100
AcDbPolyline
90
8
70
1
43
0.0
10
-97.08076095629778
20
-104.24966439993972
42
-0.41421356237308909
10
-93.580760956297809
20
-100.7496643999397
10
-75.975755588532138
20
-100.74966439993972
42
-0.60657608682034703
10
-71.058441581653128
20
-110.18769042627399
10
-82.786815751298505
20
-126.96246122223961
42
-0.24488346142279249
10
-84.42592042025808
20
-127.81645254679502
10
-95.080760956297809
20
-127.81645254679502
42
-0.4142135623730846
10
-97.08076095629778
20
-125.81645254679501
0
LWPOLYLINE
5
113
100
AcDbEntity
8
0
100
AcDbPolyline
90
9
70
1
43
0.0
10
-29.64854565736551
20
-124.48327515582193
42
-0.41416316447547558
10
-38.003052828435337
20
-125.96307944237331
10
-59.758419186794534
20
-110.7577160983555
42
-0.73356147908016811
10
-56.607630415007392
20
-100.74966439993972
10
-8.2605579667522289
20
-100.74966439993972
42
-0.43541779366582711
10
-5.2682981288308621
20
-103.96502702981348
42
-0.015684203924888021
10
-5.9403095981894882
20
-110.45267124106134
42
-0.48664462238564127
10
-16.801203000819896
20
-116.8221290768124
42
0.34700881897808489
10
-26.290812730607964
20
-119.68089422147294
0
CIRCLE
5
114
100
AcDbEntity
8
0
100
AcDbCircle
10
-151.33257411339559
20
-108.2544841507883
30
0
40
1.5000000000000036
210
0
220
-0
230
1
0
LWPOLYLINE
5
115
100
AcDbEntity
8
0
100
AcDbPolyline
90
9
70
1
43
0.0
10
-208.58611243653084
20
-82.78666439993961
42
-0.46379207383358534
10
-211.54474436717976
20
-79.290179658030183
42
-0.034335016874276425
10
-208.22456618994471
20
-65.416855799960587
42
-0.49811313518356076
10
-196.19743494074214
20
-61.122096334741407
42
0.35542818813578697
10
-186.15159235058013
20
-60.096823292903991
10
-180.56404459922121
20
-54.516937027474796
42
-0.41426489189919308
10
-175.61386491779496
20
-54.520766880070369
10
-155.9144184638819
20
-74.254176970105632
42
-0.66786722214660266
10
-159.45299622310449
20
-82.786664399939582
0
LWPOLYLINE
5
116
100
AcDbEntity
8
0
100
AcDbPolyline
90
8
70
1
43
0.0
10
-133.55277009576039
20
-127.81645254679502
42
-0.24488346142279827
10
-135.19187476472001
20
-126.96246122223961
10
-146.92024893436545
20
-110.18769042627399
42
-0.60657608682034525
10
-142.00293492748639
20
-100.74966439993972
10
-124.39792955972072
20
-100.74966439993972
42
-0.41421356237309503
10
-120.89792955972072
20
-104.24966439993972
10
-120.89792955972072
20
-125.81645254679501
42
-0.41421356237309764
10
-122.89792955972072
20
-127.81645254679502
0
CIRCLE
5
117
100
AcDbEntity
8
0
100
AcDbCircle
10
-133.78437344681291
20
-132.5907029128079
30
0
40
1.5000000000000036
210
0
220
-0
230
1
0
CIRCLE
5
118
100
AcDbEntity
8
0
100
AcDbCircle
10
-33.297008744241111
20
-131.5686437142985
30
0
40
1.4999999999999991
210
0
220
-0
230
1
0
CIRCLE
5
119
100
AcDbEntity
8
0
100
AcDbCircle
10
-167.8520057707849
20
-156.40718022451034
30
0
40
1.4999999999999858
210
0
220
-0
230
1
0
CIRCLE
5
120
100
AcDbEntity
8
0
100
AcDbCircle
10
-125.78437344681291
20
-132.5907029128079
30
0
40
1.5000000000000036
210
0
220
-0
230
1
0
CIRCLE
5
121
100
AcDbEntity
8
0
100
AcDbCircle
10
-156.5509501643005
20
-28.460061137630873
30
0
40
1.5000000000000036
210
0
220
-0
230
1
0
LWPOLYLINE
5
122
100
AcDbEntity
8
0
100
AcDbPolyline
90
12
70
1
43
0.0
10
-163.98690252243358
20
-160.24724439038209
42
-0.41426303223407041
10
-163.12352843978599
20
-155.37295231999539
10
-137.47661765261932
20
-137.44769237507668
42
-0.15369430166456705
10
-135.47157025239153
20
-136.81645254679501
10
-122.89792955972072
20
-136.81645254679501
42
-0.41421356237309503
10
-120.89792955972072
20
-138.81645254679501
10
-120.8979295597205
20
-154.33654533270141
42
-0.41048068641348451
10
-125.83412311706091
20
-159.33613818991259
42
0.4008053499354659
10
-129.7808693167776
20
-163.20290539864749
42
-0.32267014300026992
10
-131.20964175831998
20
-165.05347024723051
10
-153.4886651252734
20
-171.67927465710909
42
-0.32300181791225896
10
-156.80249696366491
20
-170.52277441817483
0
LWPOLYLINE
5
123
100
AcDbEntity
8
0
100
AcDbPolyline
90
9
70
1
43
0.0
10
-201.17748751519869
20
-116.8221290768124
42
-0.34700881897808167
10
-191.68787778541059
20
-119.68089422147294
10
-188.33014485865303
20
-124.48327515582193
42
0.41416316447547724
10
-179.97563768758323
20
-125.96307944237336
10
-158.220271329224
20
-110.7577160983555
42
0.73356147908017322
10
-161.3710601010111
20
-100.7496643999397
10
-209.71813254926633
20
-100.74966439993972
42
0.43541779366583977
10
-212.71039238719055
20
-103.96502702981391
42
0.015684203924891081
10
-212.03838091782902
20
-110.45267124106149
42
0.48664462238563466
0
CIRCLE
5
124
100
AcDbEntity
8
0
100
AcDbCircle
10
-92.194317069205439
20
-163.31645254679501
30
0
40
1.5000000000000036
210
0
220
-0
230
1
0
CIRCLE
5
125
100
AcDbEntity
8
0
100
AcDbCircle
10
-184.68168177177742
20
-131.5686437142985
30
0
40
1.4999999999999858
210
0
220
-0
230
1
0
CIRCLE
5
126
100
AcDbEntity
8
0
100
AcDbCircle
10
-66.646116402622965
20
-108.2544841507883
30
0
40
1.5000000000000036
210
0
220
-0
230
1
0
CIRCLE
5
127
100
AcDbEntity
8
0
100
AcDbCircle
10
-40.50481400644594
20
-49.964061775136543
30
0
40
1.5000000000000036
210
0
220
-0
230
1
0
CIRCLE
5
128
100
AcDbEntity
8
0
100
AcDbCircle
10
-127.18541814630632
20
-57.879335312910825
30
0
40
1.5000000000000036
210
0
220
-0
230
1
0
LWPOLYLINE
5
129
100
AcDbEntity
8
0
100
AcDbPolyline
90
8
70
1
43
0.0
10
-180.02167747094268
20
-136.36628771629279
10
-170.4013520679448
20
-150.12597437734482
42
0.41416580110886292
10
-165.52787149703792
20
-150.98921936703482
10
-140.48857740679719
20
-133.488637751981
42
0.41426132525030845
10
-139.62519163634579
20
-128.61436239823428
10
-149.24551703934299
20
-114.8546757371828
42
0.4141658011089478
10
-154.11899761025049
20
-113.99143074749193
10
-179.15829170049091
20
-131.49201236254649
42
0.41426132525035131
0
CIRCLE
5
130
100
AcDbEntity
8
0
100
AcDbCircle
10
-50.126684745233661
20
-156.40718022451034
30
0
40
1.5000000000000036
210
0
220
-0
230
1
0
CIRCLE
5
131
100
AcDbEntity
8
0
100
AcDbCircle
10
-125.78437344681311
20
-163.31645254679501
30
0
40
1.5000000000000036
210
0
220
-0
230
1
0
CIRCLE
5
132
100
AcDbEntity
8
0
100
AcDbCircle
10
-61.427740351718072
20
-28.460061137630873
30
0
40
1.4999999999999947
210
0
220
-0
230
1
0
CIRCLE
5
133
100
AcDbEntity
8
0
100
AcDbCircle
10
-148.7276963184195
20
-78.762848940239564
30
0
40
1.5000000000000036
210
0
220
-0
230
1
0
LWPOLYLINE
5
134
100
AcDbEntity
8
0
100
AcDbPolyline
90
8
70
1
43
0.0
10
-77.490113109221269
20
-133.488637751981
42
-0.41426132525030701
10
-78.35349887967277
20
-128.61436239823428
10
-68.733173476675574
20
-114.8546757371828
42
-0.41416580110895024
10
-63.859692905768043
20
-113.99143074749192
10
-38.820398815527604
20
-131.49201236254649
42
-0.41426132525035447
10
-37.957013045075882
20
-136.36628771629279
10
-47.57733844807376
20
-150.12597437734482
42
-0.41416580110886059
10
-52.450819018980617
20
-150.98921936703482
0
CIRCLE
5
135
100
AcDbEntity
8
0
100
AcDbCircle
10
-90.793272369712227
20
-57.879335312910825
30
0
40
1.5000000000000036
210
0
220
-0
230
1
0
CIRCLE
5
136
100
AcDbEntity
8
0
100
AcDbCircle
10
-84.194317069205681
20
-132.5907029128079
30
0
40
1.5000000000000036
210
0
220
-0
230
1
0
CIRCLE
5
137
100
AcDbEntity
8
0
100
AcDbCircle
10
-177.47387650957262
20
-49.964061775136543
30
0
40
1.4999999999999858
210
0
220
-0
230
1
0
LWPOLYLINE
5
138
100
AcDbEntity
8
0
100
AcDbPolyline
90
6
70
1
43
0.0
10
-10.10454880183762
20
-88.768164399939891
42
-0.99999999999999989
10
-10.104548801837607
20
-94.768164399939906
10
-74.857633568786227
20
-94.768164399939934
42
-0.41421356237309243
10
-76.857633568786227
20
-92.76816439993992
10
-76.857633568786227
20
-90.768164399939906
42
-0.41421356237309631
10
-74.857633568786227
20
-88.768164399939906
0
LWPOLYLINE
5
139
100
AcDbEntity
8
0
100
AcDbPolyline
90
12
70
1
43
0.0
10
-54.855162076232553
20
-155.37295231999539
10
-80.502072863399249
20
-137.44769237507668
42
0.15369430166456702
10
-82.507120263627044
20
-136.81645254679501
10
-95.080760956297809
20
-136.81645254679501
42
0.41421356237309503
10
-97.080760956297794
20
-138.81645254679501
10
-97.080760956298064
20
-154.33654533270141
42
0.41048068641347729
10
-92.144567398957648
20
-159.33613818991262
42
-0.40080534993546718
10
-88.197821199240934
20
-163.20290539864749
42
0.32267014300026992
10
-86.76904875769857
20
-165.05347024723051
10
-64.490025390745132
20
-171.67927465710909
42
0.32300181791225618
10
-61.176193552353659
20
-170.52277441817483
10
-53.991787993584921
20
-160.24724439038209
42
0.41426303223406608
0
LWPOLYLINE
5
140
100
AcDbEntity
8
0
100
AcDbPolyline
90
8
70
1
43
0.0
10
-67.513308392740313
20
-72.626305923129166
10
-45.929257691825114
20
-51.007671351467714
42
0.41426132525034676
10
-45.933623910536667
20
-46.057522247764155
10
-57.816865482028341
20
-34.19715936868397
42
0.41416580110885842
10
-62.766207431174969
20
-34.201524875455561
10
-84.350258132090403
20
-55.820159447116112
42
0.41426132525031362
10
-84.345891913378637
20
-60.77030855082014
10
-72.462650341887638
20
-72.630671429899849
42
0.41416580110893986
0
CIRCLE
5
141
100
AcDbEntity
8
0
100
AcDbCircle
10
-69.250994197599084
20
-78.762848940239564
30
0
40
1.4999999999999947
210
0
220
-0
230
1
0
LWPOLYLINE
5
142
100
AcDbEntity
8
0
100
AcDbPolyline
90
6
70
1
43
0.0
10
-143.12105694723229
20
-88.768164399939906
42
-0.41421356237309503
10
-141.12105694723229
20
-90.768164399939906
10
-141.12105694723229
20
-92.76816439993992
42
-0.41421356237309503
10
-143.12105694723229
20
-94.768164399939906
10
-207.87414171418092
20
-94.768164399939906
42
-0.99999999999999989
10
-207.87414171418084
20
-88.768164399939891
0
LWPOLYLINE
5
143
100
AcDbEntity
8
0
100
AcDbPolyline
90
6
70
1
43
0.0
10
-107.98934525800901
20
-93.933049198152716
42
-0.41421356237310542
10
-105.989345258009
20
-95.93304919815273
10
-105.989345258009
20
-160.68613396510131
42
-0.99999999999999989
10
-111.98934525800901
20
-160.68613396510131
10
-111.98934525800901
20
-95.93304919815273
42
-0.41421356237310542
10
-109.989345258009
20
-93.933049198152716
0
LWPOLYLINE
5
144
100
AcDbEntity
8
0
100
AcDbPolyline
90
6
70
1
43
0.0
10
-111.98934525800991
20
-5.480615233044297
42
-0.99999999999999989
10
-105.98934525800992
20
-5.4806152330443147
10
-105.98934525800992
20
-70.23369999999295
42
-0.41421356237308721
10
-107.98934525800991
20
-72.23369999999295
10
-109.98934525800991
20
-72.233699999992979
42
-0.41421356237309631
10
-111.98934525800992
20
-70.23369999999295
0
LWPOLYLINE
5
145
100
AcDbEntity
8
0
100
AcDbPolyline
90
8
70
1
43
0.0
10
-172.04943282419345
20
-51.007671351467707
42
-0.41426132525034937
10
-172.04506660548191
20
-46.05752224776414
10
-160.1618250339902
20
-34.19715936868397
42
-0.41416580110884954
10
-155.2124830848436
20
-34.201524875455569
10
-133.6284323839281
20
-55.820159447116104
42
-0.41426132525031995
10
-133.63279860263989
20
-60.770308550820111
10
-145.51604017413092
20
-72.630671429899849
42
-0.41416580110894302
10
-150.46538212327815
20
-72.626305923129152
0
LWPOLYLINE
5
146
100
AcDbEntity
8
0
100
AcDbPolyline
90
11
70
1
43
0.0
10
-65.898046620325431
20
-24.607364188510932
42
-0.41416223471000541
10
-65.893670412913707
20
-30.263721050640466
10
-88.02203521977232
20
-52.43023716962125
42
-0.19913622226227859
10
-91.560612978994897
20
-53.89774973978728
10
-97.029919904844064
20
-53.89774973978728
42
-0.41421356237309936
10
-100.02991990484401
20
-50.897749739787301
10
-100.02991990484401
20
-7.4999999999922737
42
-0.41421356237309331
10
-97.029919904844064
20
-4.4999999999922764
10
-75.438359446138975
20
-4.4999999999922675
42
-0.59291251422058544
10
-72.0706928058339
20
-10.658430309217231
42
0.35262431331589622
10
-71.123685453416655
20
-19.388766768195392
0
LWPOLYLINE
5
147
100
AcDbEntity
8
0
100
AcDbPolyline
90
11
70
1
43
0.0
10
-152.08502010310482
20
-30.26372105064047
42
-0.41416223470999869
10
-152.0806438956931
20
-24.607364188510928
10
-146.85500506295003
20
-19.38876676784675
42
0.35262431331589639
10
-145.90799771018456
20
-10.658430309217222
42
-0.59291251422058278
10
-142.5403310698795
20
-4.4999999999922675
10
-120.94877061117451
20
-4.4999999999922728
42
-0.41421356237309531
10
-117.94877061117452
20
-7.499999999992264
10
-117.94877061117454
20
-50.897749739787301
42
-0.41421356237308898
10
-120.94877061117451
20
-53.89774973978728
10
-126.41807753702369
20
-53.897749739787272
42
-0.19913622226227676
10
-129.9566552962462
20
-52.430237169621265
0
LWPOLYLINE
5
148
100
AcDbEntity
8
0
100
AcDbPolyline
90
44
70
1
43
0.0
10
-199.71181725444654
20
-122.16635600788769
10
-206.69310152349891
20
-127.04821440303563
42
-0.52183520966701236
10
-214.39397476541117
20
-124.22246769957482
42
-0.17184972925694639
10
-208.34732729303394
20
-51.704030613652321
42
-0.52478479200252703
10
-200.25193927474544
20
-50.225257181612513
10
-193.92690646735744
20
-56.55638753426139
42
0.41415373394777333
10
-189.68469985053818
20
-56.558864645076035
10
-149.62937102088418
20
-16.55845853851406
42
0.42663184025639062
10
-149.71780787796999
20
-12.228127748773659
10
-154.51754521244169
20
-7.8113334015592937
42
-0.68330041634501948
10
-151.4704037481074
20
7.7327033665142153e-12
10
-66.508286767910931
20
8.1840090260243414e-12
42
-0.6833004163450237
10
-63.461145303576139
20
-7.8113334015588398
10
-68.260882638048756
20
-12.228127748773661
42
0.42663184025633155
10
-68.349319495134523
20
-16.558458538514511
10
-28.293990665480131
20
-56.558864645076028
42
0.41415373394772798
10
-24.051784048661382
20
-56.55638753426139
10
-17.726751241272957
20
-50.225257181612513
42
-0.52478479200253758
10
-9.6313632229856694
20
-51.70403061364371
42
-0.17184972925694583
10
-3.5847157506077587
20
-124.22246769958151
42
-0.52183520966697083
10
-11.285588992519935
20
-127.0482144030352
10
-18.266873261571163
20
-122.1663560078882
42
0.41423173470610408
10
-22.444704824301652
20
-122.90584246640901
10
-54.894184003430382
20
-169.31654979150062
42
0.41423367181323761
10
-54.154395551376631
20
-173.49434213675204
10
-46.219014106035061
20
-179.041760492089
42
-0.51985077173081318
10
-46.206648059782992
20
-185.58978757516741
42
-0.037784658762366641
10
-60.329066000833322
20
-194.02349789206622
42
-0.55726350505679578
10
-63.2220024459873
20
-192.23389891326769
10
-63.222002445986611
20
-188.45498143964318
42
0.33186825357229216
10
-73.946078180641081
20
-174.07734353639117
10
-96.277725838039061
20
-167.43885519408104
42
0.072305295559015978
10
-100.54844638326242
20
-166.8170152712828
10
-117.43024413275592
20
-166.81313372868001
42
0.072451532976270647
10
-121.70961726879723
20
-167.43549542893885
10
-144.03261233537751
20
-174.07734353639117
42
0.33186825357229555
10
-154.75668807003154
20
-188.45498143964366
10
-154.75668807003086
20
-192.23389891326903
42
-0.55726350505686828
10
-157.64962451519614
20
-194.02349789205977
42
-0.037784658762310158
10
-171.77204245622551
20
-185.58978757517696
42
-0.51985077173069927
10
-171.75967640998391
20
-179.04176049208854
10
-163.82429496464141
20
-173.49434213675252
42
0.41423367181322085
10
-163.08450651258821
20
-169.31654979150062
10
-195.53398569171668
20
-122.90584246640901
42
0.4142317347061632
0
ENDSEC
0
SECTION
2
OBJECTS
0
DICTIONARY
5
C
100
AcDbDictionary
3
ACAD_GROUP
350
D
3
ACAD_MLINESTYLE
350
17
0
DICTIONARY
5
D
100
AcDbDictionary
0
DICTIONARY
5
1A
330
C
100
AcDbDictionary
0
DICTIONARY
5
17
100
AcDbDictionary
0
ENDSEC
0
EOF
