0
SECTION
2
HEADER
9
$INSUNITS
70
4
9
$ACADVER
1
AC1014
9
$HANDSEED
5
FFFF
0
ENDSEC
0
SECTION
2
TABLES
0
TABLE
2
VPORT
5
8
100
AcDbSymbolTable
0
ENDTAB
0
TABLE
2
LTYPE
5
5
100
AcDbSymbolTable
0
LTYPE
5
14
100
AcDbSymbolTableRecord
100
AcDbLinetypeTableRecord
2
BYBLOCK
70
0
0
LTYPE
5
15
100
AcDbSymbolTableRecord
100
AcDbLinetypeTableRecord
2
BYLAYER
70
0
0
ENDTAB
0
TABLE
2
LAYER
5
2
100
AcDbSymbolTable
70
2
0
LAYER
5
50
100
AcDbSymbolTableRecord
100
AcDbLayerTableRecord
2
0
70
0
6
CONTINUOUS
0
ENDTAB
0
TABLE
2
STYLE
5
3
100
AcDbSymbolTable
70
1
0
STYLE
5
11
100
AcDbSymbolTableRecord
100
AcDbTextStyleTableRecord
2
STANDARD
70
0
0
ENDTAB
0
TABLE
2
VIEW
5
6
100
AcDbSymbolTable
70
0
0
ENDTAB
0
TABLE
2
UCS
5
7
100
AcDbSymbolTable
70
0
0
ENDTAB
0
TABLE
2
APPID
5
9
100
AcDbSymbolTable
70
2
0
APPID
5
12
100
AcDbSymbolTableRecord
100
AcDbRegAppTableRecord
2
ACAD
70
0
0
ENDTAB
0
TABLE
2
DIMSTYLE
5
A
100
AcDbSymbolTable
70
1
0
ENDTAB
0
TABLE
2
BLOCK_RECORD
5
1
100
AcDbSymbolTable
70
1
0
BLOCK_RECORD
5
1F
100
AcDbSymbolTableRecord
100
AcDbBlockTableRecord
2
*MODEL_SPACE
0
BLOCK_RECORD
5
1B
100
AcDbSymbolTableRecord
100
AcDbBlockTableRecord
2
*PAPER_SPACE
0
ENDTAB
0
ENDSEC
0
SECTION
2
BLOCKS
0
BLOCK
5
20
100
AcDbEntity
100
AcDbBlockBegin
2
*MODEL_SPACE
0
ENDBLK
5
21
100
AcDbEntity
100
AcDbBlockEnd
0
BLOCK
5
1C
100
AcDbEntity
100
AcDbBlockBegin
2
*PAPER_SPACE
0
ENDBLK
5
1D
100
AcDbEntity
100
AcDbBlockEnd
0
ENDSEC
0
SECTION
2
ENTITIES
0
CIRCLE
5
100
100
AcDbEntity
8
0
100
AcDbCircle
10
-167.85200577078552
20
-156.40718022451074
30
0
40
1.4999999999999858
210
0
220
-0
230
1
0
LWPOLYLINE
5
101
100
AcDbEntity
8
0
100
AcDbPolyline
90
5
70
1
43
0.0
10
-120.43096745714993
20
-157.0036606776026
10
-134.68110684980275
20
-132.5875259616501
42
0.55716458799182433
10
-140.63158551871015
20
-132.43372219175089
42
0.37379566086264776
10
-136.96658222323907
20
-159.32696120589807
42
0.35359424864431699
10
-120.85182572768774
20
-160.58721282260788
42
0.33428104470558911
0
LWPOLYLINE
5
102
100
AcDbEntity
8
0
100
AcDbPolyline
90
9
70
1
43
0.0
10
-208.22456618994562
20
-65.416855799961098
42
-0.49811313518350847
10
-196.19743494074277
20
-61.122096334741933
42
0.35542818813576116
10
-186.15159235058081
20
-60.096823292904546
10
-184.86748290790439
20
-58.814474584429348
42
-0.57310451063280132
10
-179.85942737984755
20
-60.125860479816417
42
-0.14209698732880663
10
-185.26433039985159
20
-121.19275873757672
42
-0.6780275774043345
10
-190.83801918033538
20
-121.24047672768718
42
0.41061728594874819
10
-201.17748751519937
20
-116.82212907681283
42
-0.48664462238563849
10
-212.03838091783018
20
-110.45267124106206
42
-0.10997188160354948
0
CIRCLE
5
103
100
AcDbEntity
8
0
100
AcDbCircle
10
-146.57416862535527
20
-154.91502494419959
30
0
40
1.5000000000000036
210
0
220
-0
230
1
0
LWPOLYLINE
5
104
100
AcDbEntity
8
0
100
AcDbPolyline
90
7
70
1
43
0.0
10
-176.88965450496289
20
-137.53609166993149
42
-0.37433731253258407
10
-173.03919668269685
20
-115.34567305830669
42
-0.25568425425785163
10
-169.26267882598157
20
-114.65078764823289
10
-151.05969439395463
20
-120.6563371844623
42
-0.30735339146863117
10
-147.63505125853703
20
-125.10795270530899
42
-0.10969014207765665
10
-150.25575995156919
20
-145.07286902743542
42
-0.56399816235462652
10
-171.58336645578339
20
-146.29725830881628
0
CIRCLE
5
105
100
AcDbEntity
8
0
100
AcDbCircle
10
-177.4738765095733
20
-49.964061775137068
30
0
40
1.4999999999999858
210
0
220
-0
230
1
0
LWPOLYLINE
5
106
100
AcDbEntity
8
0
100
AcDbPolyline
90
10
70
1
43
0.0
10
-142.81673218302197
20
-54.390577236766056
42
-0.013714854215319747
10
-148.90579957846785
20
-43.421386199674217
42
-0.080463973661812377
10
-149.40686374723686
20
-41.902997843903975
10
-151.55005765813507
20
-28.465656949351867
42
-0.24054671603328953
10
-150.14557389671995
20
-24.140175263378151
10
-142.97642953018678
20
-16.980861022882294
42
-0.38468369669260166
10
-138.96035578823506
20
-16.778901708320124
10
-130.34763319164676
20
-23.804015399081742
42
-0.31912503303879025
10
-129.42475973047476
20
-27.154797032255669
10
-139.21597410525433
20
-54.056332334091721
42
-0.63335813106724859
0
LWPOLYLINE
5
107
100
AcDbEntity
8
0
100
AcDbPolyline
90
8
70
1
43
0.0
10
-169.07730633649561
20
-105.6593946551798
42
-0.26835533238797488
10
-158.20007552684226
20
-51.58951980321406
42
-0.48082506842281669
10
-150.39281847863504
20
-51.822068121346625
42
-0.039747784042071549
10
-146.0556752506759
20
-58.660878351123806
42
-0.12203312337604411
10
-145.47734525801405
20
-60.995152188146307
10
-145.47734525800936
20
-109.59518411300728
42
-0.51094874917402544
10
-150.73058496227753
20
-113.39378783590976
10
-166.54101269542085
20
-108.17759335445366
42
-0.2358009714737884
0
LWPOLYLINE
5
108
100
AcDbEntity
8
0
100
AcDbPolyline
90
8
70
1
43
0.0
10
-139.32274525800966
20
-73.818649198152869
42
-0.41421356237309243
10
-131.32274525800966
20
-65.818649198152869
10
-87.001345258010133
20
-65.818649198152869
42
-0.41421356237309437
10
-79.001345258010119
20
-73.818649198152869
10
-79.001345258010133
20
-110.31804919815299
42
-0.4142135623730957
10
-87.001345258010119
20
-118.31804919815299
10
-131.32274525800966
20
-118.31804919815299
42
-0.41421356237309698
10
-139.32274525800966
20
-110.31804919815299
0
LWPOLYLINE
5
109
100
AcDbEntity
8
0
100
AcDbPolyline
90
7
70
1
43
0.0
10
-57.912508453550345
20
-38.419400069293772
42
-0.59584032241866947
10
-54.541587291949327
20
-37.413479625257942
10
-46.878754057837561
20
-45.065805801257788
42
-0.16176968903504096
10
-45.464016798694743
20
-47.883464345076007
10
-43.752500268305099
20
-59.640116951211027
42
-0.84239626300929249
10
-47.5001451448843
20
-60.862251493058977
42
0.047688758162514173
10
-54.745763482749645
20
-49.832186334442319
42
-0.20575682843663864
0
LWPOLYLINE
5
110
100
AcDbEntity
8
0
100
AcDbPolyline
90
8
70
1
43
0.0
10
-126.85722575440965
20
-31.795821054925973
42
-0.31530008560247719
10
-124.03814305126099
20
-29.821868184841207
10
-93.940547464758097
20
-29.821868184841218
42
-0.31530008560248096
10
-91.121464761609317
20
-31.795821054925987
10
-81.352756748313169
20
-58.635519729067326
42
-0.52051838312176135
10
-83.231848319035194
20
-61.319551126973764
10
-134.74684219698386
20
-61.319551126973735
42
-0.52051838312176657
10
-136.62593376770585
20
-58.635519729067333
0
LWPOLYLINE
5
111
100
AcDbEntity
8
0
100
AcDbPolyline
90
8
70
1
43
0.0
10
-130.98438101765828
20
-129.0021491405669
10
-115.61856015795419
20
-155.32988824501638
42
0.26668979991850411
10
-111.30023494177793
20
-157.8095574478121
10
-106.67845557424124
20
-157.8095574478121
42
0.26668979991850239
10
-102.36013035806501
20
-155.32988824501638
10
-86.994309498360707
20
-129.00214914056687
42
0.60086826914258695
10
-89.481042374421094
20
-124.31804919815299
10
-128.49764814159792
20
-124.31804919815301
42
0.60086826914258817
0
LWPOLYLINE
5
112
100
AcDbEntity
8
0
100
AcDbPolyline
90
9
70
1
43
0.0
10
-145.74081417346196
20
-159.66502494419962
42
-0.1720254958500041
10
-143.85109565947613
20
-160.33501122365951
42
0.021956666414583624
10
-138.97739401921166
20
-163.94498940892117
42
-0.6335093415148435
10
-139.52576723942704
20
-167.51978078121556
10
-145.4585055136518
20
-169.28497161383041
42
0.082103578341692351
10
-151.32484249933393
20
-172.13993302772496
42
-0.41614484365861787
10
-155.51868246831685
20
-171.4117071808337
10
-161.53209865867507
20
-162.81104837537907
42
-0.60657916547823365
10
-159.89300430654404
20
-159.66502494419959
0
CIRCLE
5
113
100
AcDbEntity
8
0
100
AcDbCircle
10
-150.84996478516726
20
-4.4999999999927986
30
0
40
1.9999999999999929
210
0
220
-0
230
1
0
CIRCLE
5
114
100
AcDbEntity
8
0
100
AcDbCircle
10
-184.68168177177807
20
-131.56864371429907
30
0
40
1.4999999999999858
210
0
220
-0
230
1
0
CIRCLE
5
115
100
AcDbEntity
8
0
100
AcDbCircle
10
-155.57416862535527
20
-154.91502494419959
30
0
40
1.5000000000000036
210
0
220
-0
230
1
0
CIRCLE
5
116
100
AcDbEntity
8
0
100
AcDbCircle
10
-40.504814006446601
20
-49.964061775137068
30
0
40
1.5000000000000036
210
0
220
-0
230
1
0
CIRCLE
5
117
100
AcDbEntity
8
0
100
AcDbCircle
10
-61.427740351718754
20
-28.460061137631403
30
0
40
1.5000000000000036
210
0
220
-0
230
1
0
CIRCLE
5
118
100
AcDbEntity
8
0
100
AcDbCircle
10
-166.60526613640602
20
-181.80985386255372
30
0
40
1.9999999999999929
210
0
220
-0
230
1
0
CIRCLE
5
119
100
AcDbEntity
8
0
100
AcDbCircle
10
-51.373424379613617
20
-181.80985386255367
30
0
40
1.9999999999999929
210
0
220
-0
230
1
0
CIRCLE
5
120
100
AcDbEntity
8
0
100
AcDbCircle
10
-50.126684745234336
20
-156.40718022451074
30
0
40
1.5000000000000036
210
0
220
-0
230
1
0
CIRCLE
5
121
100
AcDbEntity
8
0
100
AcDbCircle
10
-15.077979089815692
20
-55.065703509551952
30
0
40
1.9999999999999929
210
0
220
-0
230
1
0
CIRCLE
5
122
100
AcDbEntity
8
0
100
AcDbCircle
10
-33.297008744241779
20
-131.56864371429904
30
0
40
1.4999999999999991
210
0
220
-0
230
1
0
CIRCLE
5
123
100
AcDbEntity
8
0
100
AcDbCircle
10
-156.55095016430118
20
-28.460061137631403
30
0
40
1.5000000000000036
210
0
220
-0
230
1
0
CIRCLE
5
124
100
AcDbEntity
8
0
100
AcDbCircle
10
-208.52868766323215
20
-121.92329407675977
30
0
40
1.9999999999999929
210
0
220
-0
230
1
0
CIRCLE
5
125
100
AcDbEntity
8
0
100
AcDbCircle
10
-202.90071142620394
20
-55.065703509551994
30
0
40
1.9999999999999929
210
0
220
-0
230
1
0
CIRCLE
5
126
100
AcDbEntity
8
0
100
AcDbCircle
10
-77.501345258009891
20
-119.81804919815298
30
0
40
2.0000000000000018
210
0
220
-0
230
1
0
CIRCLE
5
127
100
AcDbEntity
8
0
100
AcDbCircle
10
-9.4500028527875202
20
-121.92329407675976
30
0
40
1.9999999999999918
210
0
220
-0
230
1
0
CIRCLE
5
128
100
AcDbEntity
8
0
100
AcDbCircle
10
-154.16404525800996
20
-43.821649198153466
30
0
40
1.9999999999999929
210
0
220
-0
230
1
0
CIRCLE
5
129
100
AcDbEntity
8
0
100
AcDbCircle
10
-140.82274525800995
20
-119.82164919815297
30
0
40
1.9999999999999929
210
0
220
-0
230
1
0
CIRCLE
5
130
100
AcDbEntity
8
0
100
AcDbCircle
10
-140.82274525800995
20
-64.318649198152855
30
0
40
1.9999999999999929
210
0
220
-0
230
1
0
CIRCLE
5
131
100
AcDbEntity
8
0
100
AcDbCircle
10
-77.501345258009906
20
-64.328049198153238
30
0
40
2.0000000000000018
210
0
220
-0
230
1
0
CIRCLE
5
132
100
AcDbEntity
8
0
100
AcDbCircle
10
-44.164045258009978
20
-108.82164919815295
30
0
40
2.0000000000000018
210
0
220
-0
230
1
0
CIRCLE
5
133
100
AcDbEntity
8
0
100
AcDbCircle
10
-174.16404525800996
20
-108.82164919815297
30
0
40
1.9999999999999929
210
0
220
-0
230
1
0
CIRCLE
5
134
100
AcDbEntity
8
0
100
AcDbCircle
10
-64.164045258009992
20
-43.821649198153466
30
0
40
2.0000000000000018
210
0
220
-0
230
1
0
CIRCLE
5
135
100
AcDbEntity
8
0
100
AcDbCircle
10
-71.404521890663077
20
-154.91502494420686
30
0
40
1.5000000000000036
210
0
220
-0
230
1
0
CIRCLE
5
136
100
AcDbEntity
8
0
100
AcDbCircle
10
-62.404521890663091
20
-154.91502494420823
30
0
40
1.5000000000000036
210
0
220
-0
230
1
0
CIRCLE
5
137
100
AcDbEntity
8
0
100
AcDbCircle
10
-67.128725730851784
20
-4.4999999999922657
30
0
40
1.9999999999999929
210
0
220
-0
230
1
0
LWPOLYLINE
5
138
100
AcDbEntity
8
0
100
AcDbPolyline
90
9
70
1
43
0.0
10
-38.119263136171419
20
-60.125860479816389
42
-0.57310451063280221
10
-33.111207608114682
20
-58.814474584429306
10
-31.827098165438201
20
-60.096823292904503
42
0.3554281881357631
10
-21.781255575276202
20
-61.122096334741912
42
-0.49811313518350714
10
-9.7541243260727448
20
-65.416855799960814
42
-0.10997188160352937
10
-5.9403095981888052
20
-110.45267124106198
42
-0.48664462238563844
10
-16.801203000819658
20
-116.82212907681287
42
0.41061728594875174
10
-27.140671335683685
20
-121.24047672768717
42
-0.67802757740432673
10
-32.714360116167434
20
-121.19275873757675
42
-0.14209698732880707
0
LWPOLYLINE
5
139
100
AcDbEntity
8
0
100
AcDbPolyline
90
8
70
1
43
0.0
10
-67.248105553741411
20
-113.39378783590976
10
-51.437677820598076
20
-108.17759335445368
42
0.23580097147379847
10
-48.901384179523347
20
-105.65939465517977
42
0.26835533238797499
10
-59.778614989176724
20
-51.589519803214053
42
0.48082506842282385
10
-67.585872037384036
20
-51.822068121346675
42
0.03974778404206996
10
-71.923015265343111
20
-58.66087835112382
42
0.1220331233760427
10
-72.501345258004903
20
-60.995152188146292
10
-72.50134525800965
20
-109.59518411300726
42
0.510948749174022
0
LWPOLYLINE
5
140
100
AcDbEntity
8
0
100
AcDbPolyline
90
7
70
1
43
0.0
10
-48.716011690037462
20
-114.65078764823288
10
-66.918996122064286
20
-120.65633718446227
42
0.30735339146862978
10
-70.343639257481982
20
-125.10795270530899
42
0.10969014207765507
10
-67.722930564449811
20
-145.07286902743544
42
0.56399816235462463
10
-46.395324060235659
20
-146.29725830881625
10
-41.089036011056102
20
-137.53609166993147
42
0.37433731253258401
10
-44.939493833322082
20
-115.34567305830666
42
0.25568425425786084
0
LWPOLYLINE
5
141
100
AcDbEntity
8
0
100
AcDbPolyline
90
8
70
1
43
0.0
10
-141.15768314579458
20
-9.8247345032523761
42
-0.70540286043439515
10
-139.26147390381789
20
-4.4999999999934701
10
-78.717216612201383
20
-4.4999999999934728
42
-0.70540286043442679
10
-76.821007370224393
20
-9.8247345032523974
10
-95.053559379217646
20
-24.696425690272523
42
-0.17274342995447398
10
-98.213908115845712
20
-25.821868184841207
10
-119.76478240017356
20
-25.8218681848412
42
-0.17274342995445682
10
-122.92513113680137
20
-24.696425690272523
0
LWPOLYLINE
5
142
100
AcDbEntity
8
0
100
AcDbPolyline
90
7
70
1
43
0.0
10
-160.06618206246776
20
-38.419400069290148
42
-0.20575682843663817
10
-163.23292703326939
20
-49.832186334438177
42
0.047688758162514028
10
-170.47854537113537
20
-60.862251493054401
42
-0.84239626300928827
10
-174.22619024771453
20
-59.640116951206039
10
-172.51467371732411
20
-47.883464345071459
42
-0.16176968903504882
10
-171.09993645818096
20
-45.065805801253262
10
-163.43710322406881
20
-37.413479625253856
42
-0.59584032241866425
0
LWPOLYLINE
5
143
100
AcDbEntity
8
0
100
AcDbPolyline
90
10
70
1
43
0.0
10
-68.571826768782103
20
-41.902997843903961
42
-0.080463973661811586
10
-69.072890937550994
20
-43.421386199673897
42
-0.013714854215322746
10
-75.161958332996463
20
-54.39057723676504
42
-0.6333581310673575
10
-78.762716410764597
20
-54.056332334091685
10
-88.553930785544267
20
-27.154797032255672
42
-0.31912503303879536
10
-87.631057324372264
20
-23.804015399081738
10
-79.018334727783909
20
-16.77890170832012
42
-0.38468369669259689
10
-75.002260985832237
20
-16.980861022882273
10
-67.833116619299076
20
-24.140175263378147
42
-0.24054671603329
10
-66.42863285788394
20
-28.46565694935186
0
LWPOLYLINE
5
144
100
AcDbEntity
8
0
100
AcDbPolyline
90
9
70
1
43
0.0
10
-78.452923276591932
20
-167.51978078121553
10
-72.52018500236727
20
-169.28497161383038
42
-0.082103578341693628
10
-66.65384801668506
20
-172.13993302772494
42
0.41614484365860788
10
-62.460008047702082
20
-171.41170718083367
10
-56.446591857343961
20
-162.81104837537899
42
0.60657916547822655
10
-58.085686209474936
20
-159.66502494419956
10
-72.237876342557016
20
-159.66502494419959
42
0.17202549585000285
10
-74.127594856542771
20
-160.33501122365945
42
-0.021956666414583298
10
-79.001296496807313
20
-163.94498940892117
42
0.63350934151484062
0
LWPOLYLINE
5
145
100
AcDbEntity
8
0
100
AcDbPolyline
90
5
70
1
43
0.0
10
-83.297583666216255
20
-132.5875259616501
10
-97.547723058868996
20
-157.0036606776026
42
0.33428104470559294
10
-97.126864788331204
20
-160.58721282260788
42
0.35359424864431727
10
-81.012108292779885
20
-159.32696120589804
42
0.37379566086264859
10
-77.347104997308861
20
-132.43372219175086
42
0.55716458799182023
0
LWPOLYLINE
5
146
100
AcDbEntity
8
0
100
AcDbPolyline
90
44
70
1
43
0.0
10
-154.51754521244249
20
-7.8113334015598204
42
-0.68330041634501804
10
-151.47040374810808
20
7.2086780988911414e-12
10
-66.508286767911343
20
7.6669226523051748e-12
42
-0.68330041634505689
10
-63.461145303576942
20
-7.811333401559466
10
-68.260882638049452
20
-12.228127748774178
42
0.42663184025632606
10
-68.349319495135035
20
-16.55845853851531
10
-28.293990665480933
20
-56.558864645076419
42
0.41415373394766702
10
-24.051784048662075
20
-56.556387534262115
10
-17.726751241273696
20
-50.225257181612946
42
-0.52478479200282402
10
-9.6313632229902417
20
-51.704030613651106
42
-0.1718497292569369
10
-3.5847157506084129
20
-124.22246769958194
42
-0.52183520966695396
10
-11.285588992520434
20
-127.04821440303587
10
-18.266873261571522
20
-122.16635600788896
42
0.4142317347060821
10
-22.444704824302111
20
-122.90584246640975
10
-54.894184003431057
20
-169.3165497915011
42
0.41423367181322512
10
-54.154395551377412
20
-173.49434213675244
10
-46.219014106035544
20
-179.04176049208934
42
-0.5198507717306371
10
-46.20664805978268
20
-185.58978757516667
42
-0.037784658762399774
10
-60.3290660008443
20
-194.02349789207182
42
-0.55726350505491073
10
-63.222002445987826
20
-192.23389891326818
10
-63.222002445987272
20
-188.45498143964463
42
0.33186825357229655
10
-73.946078180641706
20
-174.07734353639194
10
-96.277725838039686
20
-167.43885519408153
42
0.072305295559003141
10
-100.54844638326317
20
-166.81701527128325
10
-117.43024413275656
20
-166.8131337286805
42
0.072451532976268995
10
-121.70961726879794
20
-167.43549542893925
10
-144.03261233537816
20
-174.07734353639174
42
0.33186825357229582
10
-154.75668807003214
20
-188.4549814396442
10
-154.75668807003152
20
-192.23389891326963
42
-0.55726350505684497
10
-157.6496245151973
20
-194.02349789206119
42
-0.037784658762312497
10
-171.77204245622622
20
-185.58978757517752
42
-0.51985077173071303
10
-171.75967640998462
20
-179.04176049208905
10
-163.82429496464215
20
-173.49434213675298
42
0.41423367181323534
10
-163.08450651258883
20
-169.31654979150119
10
-195.53398569171736
20
-122.90584246640944
42
0.41423173470616653
10
-199.71181725444717
20
-122.16635600788827
10
-206.69310152349959
20
-127.04821440303621
42
-0.52183520966700492
10
-214.39397476541785
20
-124.22246769957682
42
-0.17184972925694136
10
-208.3473272930346
20
-51.704030613652861
42
-0.52478479200253325
10
-200.25193927474606
20
-50.225257181613046
10
-193.92690646735812
20
-56.556387534261894
42
0.41415373394769978
10
-189.68469985053886
20
-56.558864645076561
10
-149.62937102088495
20
-16.558458538514586
42
0.42663184025639556
10
-149.71780787797064
20
-12.228127748774185
0
ENDSEC
0
SECTION
2
OBJECTS
0
DICTIONARY
5
C
100
AcDbDictionary
3
ACAD_GROUP
350
D
3
ACAD_MLINESTYLE
350
17
0
DICTIONARY
5
D
100
AcDbDictionary
0
DICTIONARY
5
1A
330
C
100
AcDbDictionary
0
DICTIONARY
5
17
100
AcDbDictionary
0
ENDSEC
0
EOF
